<svg xmlns="http://www.w3.org/2000/svg" width="441.391" height="472.84" viewBox="0 0 441.391 472.84">
  <g id="Group_2363" data-name="Group 2363" transform="translate(2349.391 -2619.203)">
    <path id="Path_954" data-name="Path 954" d="M-2301.484,3067.773h5.969c.4.148.836.3,1.3.469,0,4.617-.047,9.266.008,13.883a9.826,9.826,0,0,0,7.469,9.531c6.555,1.563,12.3-2.742,12.508-9.508.125-4.687.023-9.383.023-14.375h35.148v-.047q133.652.023,267.32.031a24.377,24.377,0,0,0,3.117-.047c2.414-.312,3.414.445,3.25,3.078-.242,3.68-.148,7.391-.039,11.07.117,4.234,1.953,7.5,5.93,9.25,7.133,3.109,14.18-1.875,14.188-10.109q.059-44.2.023-88.391,0-162.574-.023-325.172v-3.875c2.945,0,5.484.055,8.016-.016a9.777,9.777,0,0,0,9.6-9.031c.75-8.172,3.094-10.57,11.109-11.469a9.428,9.428,0,0,0,8.477-8.547,48.55,48.55,0,0,0,.055-5.117c-.125-6.2-3.961-10-10.211-10.055-4.828-.047-9.656.008-14.484.008q-201.527-.012-403.055-.133c-9.953-.016-14.2,3.984-13.531,14.07.359,5.555,3.875,9.445,9.391,9.844,6.57.461,10.086,4.078,10.453,10.719.32,5.875,4.18,9.633,10.031,9.711,2.375.039,4.758.016,7.6.016v21.953a6.042,6.042,0,0,0,0,1.406V2705.7h.023c-.531,48.031-.328,225.766.266,310.617v51.461h8.57m154.664-63.094a10.272,10.272,0,0,1-10.437,8.641q-57.422.047-114.836,0c-6.437,0-10.727-4.4-10.742-11.039-.055-20.836-.023-41.687-.023-62.539h-.008q0-29.824.008-59.672a29.572,29.572,0,0,1,.367-5.953c1.016-4.812,5.336-7.758,11.1-7.758q54.574-.023,109.164-.016c1.7,0,3.406-.031,5.109.016,5.984.156,10.109,4.125,10.461,10.141.086,1.313.023,2.648.023,3.969q0,60.117-.008,120.234A22.4,22.4,0,0,1-2148.32,3004.68Zm.125-176.852a17.978,17.978,0,0,1-1.633,7.625c-1.781,3.555-5.219,5.055-9.219,5.055q-57.258,0-114.547-.023c-6.484,0-10.75-4.523-10.766-11.336q-.035-31.137-.008-62.25,0-29,0-57.984c0-1.992.008-3.984.133-5.969a10.029,10.029,0,0,1,9.07-9.352,31.034,31.034,0,0,1,3.414-.094c37.047,0,74.094.141,111.141-.1,8.7-.047,12.586,5.516,12.563,12.508C-2148.219,2746.555-2148.109,2787.2-2148.2,2827.828Zm27.531-143.125c-.016-1.875.367-2.641,2.477-2.641q75.422.094,150.82.063c.563,0,1.109.063,1.766.094v38.594c-1.445.063-2.742.18-4.047.18q-73.723,0-147.453.063c-2.641,0-3.641-.555-3.609-3.391C-2120.562,2706.672-2120.594,2695.7-2120.664,2684.7Zm155.094,362.75h-154.852c-.07-1.469-.2-3.031-.2-4.6q-.023-38.473-.016-76.937h.391V2850.68h-.391v-20.641q-.012-42.621-.008-85.281c0-1.2.148-2.406.242-3.68h26.344c.063,1.109.172,2.1.172,3.1.023,5.781-.016,11.555.023,17.336.023,6.516,4.164,11.055,10.039,11.086,5.859.031,10.07-4.523,10.094-10.961.023-5.961.078-11.945-.031-17.906-.047-2.039.445-2.883,2.664-2.82,5.844.133,11.711.047,17.844.047.086,1.133.188,2.039.188,2.938.023,6.063-.016,12.133.031,18.188.023,6.023,4.242,10.422,9.992,10.516,5.609.078,10.016-4.367,10.086-10.422.094-6.148.109-12.312,0-18.477-.031-2.008.414-2.867,2.648-2.8,5.859.148,11.719.063,18.039.063v6.391c.008,5.016-.047,10.039.031,15.055a10,10,0,0,0,9.969,10.2,9.86,9.86,0,0,0,9.961-10.164c.086-6.344.07-12.7-.008-19.039-.023-1.859.617-2.469,2.477-2.469,7.484.07,14.969.031,22.445.031a13.05,13.05,0,0,1,1.82.242Z" transform="translate(-0.002 0)" fill="#5eb65c"/>
    <path id="Path_955" data-name="Path 955" d="M-2103.727,3096.07v-5.352h-94.633c-.078.781-.172,1.352-.172,1.9q-.035,50.461-.07,100.891c-.008,2.227.836,2.656,2.844,2.656q44.625-.094,89.234-.016c2.234.016,2.867-.6,2.852-2.883Q-2103.789,3144.668-2103.727,3096.07Zm-27.727,81.172A10.4,10.4,0,0,1-2141.8,3167a10.433,10.433,0,0,1,10.133-10.492,10.608,10.608,0,0,1,10.523,10.172A10.406,10.406,0,0,1-2131.453,3177.242Z" transform="translate(-65.057 -203.438)" fill="#5eb65c"/>
    <path id="Path_956" data-name="Path 956" d="M-2107.375,2786.156c-29.086.086-58.156.047-87.258.047h-3.781c-.062,1.4-.172,2.414-.172,3.438q0,49.313-.047,98.617c-.016,2.766.586,3.688,3.578,3.68,29.375-.117,58.734-.078,88.094-.086,1.016,0,2.023-.125,3.227-.2v-2.484c0-33.164-.047-66.32.055-99.477C-2103.664,2786.656-2104.641,2786.148-2107.375,2786.156Zm-24.391,86.75a10.182,10.182,0,0,1-10.031-10.75,10.485,10.485,0,0,1,10.4-9.93,10.688,10.688,0,0,1,10.258,10.727A10.4,10.4,0,0,1-2131.766,2872.906Z" transform="translate(-65.044 -72.035)" fill="#5eb65c"/>
  </g>
</svg>
