<svg xmlns="http://www.w3.org/2000/svg" width="1050.385" height="795.04" viewBox="0 0 1050.385 795.04">
  <g id="Group_2362" data-name="Group 2362" transform="translate(9.504 9.5)">
    <path id="Path_674" data-name="Path 674" d="M624.807,599.391c-.868,2.837-1.749,5.672-2.6,8.517-15.073,50.528-76.984,67.152-114.634,30.217-29.246-28.685-57.838-57.973-91.692-81.441-110.3-76.452-232.157-107.231-365.265-90.575-118.284,14.8-219.3,65.609-303.245,150.3-12.521,12.633-24.9,25.437-37.9,37.559a68.529,68.529,0,0,1-95.442-1.6c-26.123-26.1-27.856-67.514-2.591-94.616,61.948-66.448,130.352-124.7,212.694-165.021,100.135-49.043,205.762-72.411,317.238-67.858q228.821,9.337,403.063,158.319A696.787,696.787,0,0,1,605.2,541.807c8.866,9.679,13.218,23.489,19.609,35.429Z" transform="translate(406.574 -324.311)" fill="none" stroke="#5eb65c" stroke-width="19"/>
    <path id="Path_675" data-name="Path 675" d="M19.141,417.376c81.288,1.027,166.392,31.6,239.523,93.68,19.387,16.457,37.347,34.748,54.794,53.294a74.1,74.1,0,0,1-1.17,103.57c-28.68,29-73.843,30.085-104.418,2.151-15.107-13.8-29.132-28.822-44.584-42.214a242.073,242.073,0,0,0-325.446,7.4c-15.332,14.549-29.945,29.86-45.033,44.666-22.4,21.988-49.006,28.793-78.628,18.86-29.759-9.981-46.571-31.932-50.856-62.854-2.853-20.584,2.035-40.278,16.113-55.345,38.944-41.685,78.618-82.68,129.148-111.135C-130.49,435.138-65.3,417.543,19.141,417.376Z" transform="translate(523.065 -167.468)" fill="none" stroke="#5eb65c" stroke-width="19"/>
    <path id="Path_676" data-name="Path 676" d="M-17.513,643.736c.085,66.238-53.6,120.337-119.94,120.853-66.058.519-121.272-54.633-121.032-120.9.24-66.186,54.405-120.165,120.579-120.165C-71.671,523.521-17.6,577.518-17.513,643.736Z" transform="translate(656.162 11.448)" fill="none" stroke="#5eb65c" stroke-width="19"/>
  </g>
</svg>
