<svg id="Group_2358" data-name="Group 2358" xmlns="http://www.w3.org/2000/svg" width="333.566" height="370.629" viewBox="0 0 333.566 370.629">
  <path id="Path_934" data-name="Path 934" d="M-299.382-54H-497.051A68.03,68.03,0,0,0-565,13.949v259.44a6.178,6.178,0,0,0,6.177,6.177h12.354v30.886a6.178,6.178,0,0,0,6.178,6.177h37.062a6.178,6.178,0,0,0,6.177-6.177V279.566h197.669v30.886a6.177,6.177,0,0,0,6.176,6.177h37.063a6.178,6.178,0,0,0,6.178-6.177V279.566h12.355a6.177,6.177,0,0,0,6.176-6.177V13.949A68.029,68.029,0,0,0-299.382-54ZM-497.051-41.646h197.669a55.655,55.655,0,0,1,55.594,55.594v216.2H-552.646V13.949A55.656,55.656,0,0,1-497.051-41.646ZM-509.4,304.275h-24.709V279.566H-509.4Zm247.085,0h-24.708V279.566h24.708Zm-290.326-37.063V242.5h308.857v24.709Z" transform="translate(565 54)" fill="#5eb65c"/>
  <path id="Path_935" data-name="Path 935" d="M-498.469,185.189a18.532,18.532,0,0,0,18.531-18.531V92.531A18.532,18.532,0,0,0-498.469,74,18.532,18.532,0,0,0-517,92.531v74.126A18.532,18.532,0,0,0-498.469,185.189Zm-6.177-92.657a6.177,6.177,0,0,1,6.177-6.177,6.177,6.177,0,0,1,6.177,6.177v74.126a6.177,6.177,0,0,1-6.177,6.177,6.177,6.177,0,0,1-6.177-6.177Z" transform="translate(554.063 24.834)" fill="#5eb65c"/>
  <path id="Path_936" data-name="Path 936" d="M-191.937,27.417V58.3h12.354V27.417A49.474,49.474,0,0,0-229-22V-9.646A37.1,37.1,0,0,1-191.937,27.417Z" transform="translate(488.44 46.709)" fill="#5eb65c"/>
  <path id="Path_937" data-name="Path 937" d="M-181,98h12.354v12.354H-181Z" transform="translate(477.503 19.366)" fill="#5eb65c"/>
</svg>
