<svg id="Group_2355" data-name="Group 2355" xmlns="http://www.w3.org/2000/svg" width="183.086" height="491.638" viewBox="0 0 183.086 491.638">
  <g id="Group_2284" data-name="Group 2284" transform="translate(0 0)">
    <path id="Path_927" data-name="Path 927" d="M-200.211,203.787l-30.09-78.159-7.557-102.853a14.4,14.4,0,0,0-.2-1.509A14.392,14.392,0,0,0-230.106,8.4,14.4,14.4,0,0,0-244.509-6h-92.567a14.4,14.4,0,0,0-14.4,14.4,14.39,14.39,0,0,0,7.95,12.863,14.411,14.411,0,0,0-.2,1.508l-7.559,102.853-30.089,78.16a14.431,14.431,0,0,0-.96,5.175V471.234a14.4,14.4,0,0,0,14.4,14.4h154.278a14.4,14.4,0,0,0,14.4-14.4V208.962A14.428,14.428,0,0,0-200.211,203.787Zm-27.846,253.043H-353.528V393.071h125.471Zm0-92.566H-353.528V254.222h125.471Zm0-138.85H-353.528V211.638l29.893-77.653a14.433,14.433,0,0,0,.922-4.118l6.735-91.634h50.369l6.733,91.634a14.424,14.424,0,0,0,.924,4.119l29.9,77.653v13.775Z" transform="translate(382.334 6)" fill="#5eb65c"/>
  </g>
</svg>
