<svg xmlns="http://www.w3.org/2000/svg" width="386.1" height="307.757" viewBox="0 0 386.1 307.757">
  <path id="Path_1049" data-name="Path 1049" d="M-602.94,427.579v91.6a66.4,66.4,0,0,0,66.327,66.326h229.127a66.4,66.4,0,0,0,66.327-66.326v-91.6a18.072,18.072,0,0,0,12.06-16.985A18.049,18.049,0,0,0-241.544,393.5a36.205,36.205,0,0,0-35.792-31.149,36.067,36.067,0,0,0-26.64,11.782,120.793,120.793,0,0,0-118.1-96.186A120.789,120.789,0,0,0-540.2,374.18,36.017,36.017,0,0,0-566.817,362.4a36.155,36.155,0,0,0-35.738,31.1A18.033,18.033,0,0,0-615,410.588a18.077,18.077,0,0,0,12.06,16.991Zm295.454,145.871H-536.613a54.326,54.326,0,0,1-54.269-54.267V428.689h337.663v90.494A54.325,54.325,0,0,1-307.486,573.449Zm30.15-199.04a24.083,24.083,0,0,1,23.261,18.1h-46.53a24.1,24.1,0,0,1,23.269-18.1Zm-144.743-84.4c57.806,0,105.074,45.469,108.226,102.5H-362.09a60.377,60.377,0,0,0-59.989-54.268,60.376,60.376,0,0,0-59.99,54.268h-48.238c3.154-57.035,50.421-102.5,108.229-102.5Zm47.821,102.5H-469.9A48.29,48.29,0,0,1-422.079,350.3,48.288,48.288,0,0,1-374.258,392.51Zm-192.559-18.053a24.072,24.072,0,0,1,23.232,18.053h-46.44A24.04,24.04,0,0,1-566.817,374.457Zm-30.1,30.113h349.724a6.024,6.024,0,0,1,6.029,6.017,6.038,6.038,0,0,1-6.029,6.041H-596.912a6.037,6.037,0,0,1-6.028-6.041A6.024,6.024,0,0,1-596.912,404.57Z" transform="translate(615.1 -277.852)" fill="#5eb65c" stroke="#3f3f3f" stroke-width="0.2"/>
</svg>
