<svg id="Group_2378" data-name="Group 2378" xmlns="http://www.w3.org/2000/svg" width="927.775" height="595.855" viewBox="0 0 927.775 595.855">
  <path id="Path_1003" data-name="Path 1003" d="M-1081.174,2006.075h-276V1993.6q.034-62.026.022-124.052c-.086-38.8-24.409-62.908-63.25-62.885-23.895,0-47.787-.15-71.67.107-5.312.053-8.145-1.32-10.268-6.523-2.479-6.1-6.525-11.524-10.4-18.144,17.125-1.31,33.733-3.048,50.4-3.788,71.875-3.2,143.763-8.422,215.648-8.422,63.293,0,126.585,5.9,189.866,9.356,17.113.944,34.206,2.543,51.308,3.583a56.421,56.421,0,0,0,11.846-.9c8.144-1.225,11.715-6.546,10.794-14.324a69.287,69.287,0,0,0-4.154-16.8c-12.681-32.478-24.923-65.138-38.721-97.143-15.322-35.568-40.815-60.664-79.632-69.858-4.99-1.181-10.334-1.2-15.494-1.2-95.265-.066-190.553,1-285.787-.484-49.3-.761-79.612,23.241-98.087,65.59-11.1,25.471-19.915,51.95-29.613,78.022-4.773,12.843-9.217,25.8-14.335,40.171-17.927,0-36.951-1.266-55.738.322-21.77,1.846-37.338,14.344-46.382,34.291-2.061,4.56-4.357,6.845-9.528,6.224-3.617-.45-7.339-.1-11.008-.1-12.866.022-14.593-.407-15.794-13.056-1.244-12.984-.729-26.234.2-39.281.7-9.6,7.339-15.237,16.718-17a87.5,87.5,0,0,1,15.461-1.673c19.912-.194,39.827.139,59.729-.322,3.025-.064,7.682-2.639,8.689-5.193,12.994-33.013,26.33-65.9,37.843-99.428,17.627-51.3,65.824-87.531,117.122-85.224,22.617,1.019,45.331-.053,67.992.322,6.265.1,9.365-1.867,11.232-7.844,3.466-11.083,7.544-21.994,11.588-32.874,4.72-12.768,14.378-19.592,28.014-19.645q49.167-.195,98.323-.043c13.359.021,22.553,6.448,27.372,19.044,4.033,10.558,8.068,21.157,11.406,31.962,2.1,6.8,5.235,9.689,12.907,9.42,18.357-.653,36.779.452,55.126-.3,49.742-2.018,85.566,21.93,112.358,60.986,9.548,13.915,15.45,30.45,22.318,46.082,11.072,25.192,21.727,50.566,32.177,76.039,2.241,5.438,5.17,7.167,10.9,7.06,19.291-.354,38.6-.345,57.9-.1,24.388.311,31.877,7.972,31.951,32.081.023,6.729.258,13.5-.16,20.214-1.159,17.952-9.624,27.424-27.468,30.1-8.433,1.256-17.047,1.48-25.6,1.7-10.654.279-21.319.066-33.315.066v12.37q.017,87.308.055,174.6c.021,14.591-1.933,28.786-9,41.726-11.438,20.933-28.284,33.358-53.165,32.725-9.174-.247-18.368-.032-27.562-.032-33.691-.043-55.836-18.24-62.252-51.49C-1079.735,2022.19-1080.165,2014.582-1081.174,2006.075Zm96.746-137.55h-.053c0-7.04.322-14.088-.086-21.116-.45-7.672-5.653-11.9-12.96-10.451-27.875,5.527-55.621,11.716-83.571,16.866-16.03,2.952-24.645,12.683-28.314,27.489-1.974,7.951-2.854,16.245-3.648,24.432-.687,6.984,2.778,11.92,9.635,13.647,4.688,1.19,9.754,2.618,14.4,2.029,28.154-3.584,56.394-6.825,84.269-12.007,15.311-2.844,20.331-11.664,20.331-27.113Z" transform="translate(1767.517 -1485.315)" fill="#5eb65c"/>
  <path id="Path_1004" data-name="Path 1004" d="M-1632.021,1693.492c0-5.762-.313-9.742.053-13.681a29.893,29.893,0,0,1,28.54-27.327c12.854-.45,25.729-.2,38.593-.15,20.719.1,33.08,12.263,33.6,32.906.055,2.125.2,4.261.375,7.652h42.436v247.665H-1680.7V1693.492Zm81.97-.537c1.707-16.921-1.554-20.547-17.66-20.6-9.194-.022-18.379,0-27.564,0-15.751,0-19.044,4.248-15.557,20.6Z" transform="translate(1773.546 -1345.423)" fill="#5eb65c"/>
  <path id="Path_1005" data-name="Path 1005" d="M-1556.946,1922.666V1674.282c13.53.815,27.027.278,39.925,2.757,13.732,2.639,23.228,16.072,23.293,30.589q.336,91.315-.034,182.634c-.085,18.068-14.205,31.759-32.123,32.339C-1535.928,1922.934-1545.981,1922.666-1556.946,1922.666Z" transform="translate(1877.277 -1326.93)" fill="#5eb65c"/>
  <path id="Path_1006" data-name="Path 1006" d="M-1669.7,1674.914v246.5c-12.735,0-25.354,1.567-37.414-.4-14.152-2.306-23.851-15.9-23.9-30.987q-.356-91.38,0-182.762c.073-17.189,12.274-30.473,29.355-32.157C-1691.423,1674.086-1680.983,1674.914-1669.7,1674.914Z" transform="translate(1731.209 -1326.666)" fill="#5eb65c"/>
</svg>
