<svg xmlns="http://www.w3.org/2000/svg" width="586.512" height="806.418" viewBox="0 0 586.512 806.418">
  <path id="Path_1056" data-name="Path 1056" d="M-4369.4,2658.549v309h-126.711V2161.825a51.006,51.006,0,0,1,6.113-.7c103.709.063,207.357-.151,311.043.43,38.625.2,77.037,3.756,114.592,13.98,69.7,18.959,115.768,63.355,138.451,131.23,22.957,68.6,21.715,137.7-3.93,205.348-24.27,64.13-72.832,103.42-136.326,125.674-44.053,15.482-89.8,20.707-136.285,20.751q-78.149.064-156.346.009Zm.279-115.275c2.746.183,4.936.484,7.123.484,54.936.021,109.869.61,164.8-.345a311.714,311.714,0,0,0,61.072-7.006c51.24-11.2,84.311-41.963,91.672-95.222a269.29,269.29,0,0,0,.918-63.036c-5-49.687-32.207-80.438-80.316-94.106-25.965-7.351-52.641-9.389-79.441-9.464-52.4-.14-104.8-.053-157.205-.021-2.725,0-5.43.247-8.627.4Z" transform="translate(4496.106 -2161.127)" fill="#5eb65c"/>
</svg>
