<svg id="Group_2377" data-name="Group 2377" xmlns="http://www.w3.org/2000/svg" width="1175.147" height="620.057" viewBox="0 0 1175.147 620.057">
  <path id="Path_997" data-name="Path 997" d="M-1932.274,2152.369c0,15.343.407,29.175-.075,42.961-1.405,40.245-32.833,70-73.057,69.591-39.763-.409-68.056-29.753-68.227-70.8-.055-13.766-.011-27.552-.011-42.413-5.6-.515-9.087-1.051-12.6-1.126-45.052-.912-45.073-.88-45.084-47.09-.021-53.659.419-107.338-.118-161.006-.43-41.136,19.313-69.043,53.4-89.75,9.078-5.516,17.66-15.086,21.856-24.795,16.951-39.024,31.78-78.958,47.97-118.346,17.628-42.82,52.414-65.126,98.067-64.686,97.013.921,194.038,1.78,291.065,2.07,55.695.183,88.806,18.861,105.565,71.65,12.7,40,35.17,62.382,75.223,72.22,26.136,6.437,50.933,18.315,78.216,28.464-1.748-22.832,10.462-31.254,29.773-36.737,40.944-11.577,80.944-26.47,121.875-37.992,9.6-2.705,24.173-.955,31.877,4.849,68.154,51.2,135.318,103.71,202.677,155.984,22.081,17.134,22.661,22.316,5.632,44.936q-60.995,81.016-122.238,161.873c-15.729,20.762-22.458,21.833-43.53,7.092-68.667-47.981-137.066-96.349-206.013-143.912-13.38-9.239-20.15-19.27-19.346-36.168,1.3-27.146,1-54.4-.117-81.565-.258-6.331-5.077-15.891-10.227-18.014-34.569-14.184-69.762-26.771-110.64-42.093,10.977,24.9,12.091,47.113,37,59.807,33.765,17.209,51.66,46.544,51.372,85.9-.441,57.349-.119,114.7-.151,172.046,0,32.209-2.9,35.116-35.138,35.234-6.523.011-13.058,0-23.1,0,0,15.9.258,30.278-.032,44.634-.848,39.152-27.488,67.509-65.147,69.655-38.906,2.189-72.07-25.439-75.814-64.429-1.48-15.258-.256-30.772-.256-48.036Zm-159.32-42.219c90.406,0,178.515-.194,266.6.043q189.622.531,379.261,1.736c13.647.1,15.494-6.427,15.418-17.659-.333-50,0-100-.162-149.975-.107-31.492-10.782-48.358-40.61-57.906-15.4-4.947-22.478-14.228-27.811-28-17.5-45.162-35.545-90.118-53.593-135.062-10.053-25.053-27.317-37.574-55.857-37.316-102.154.923-204.317,1.362-306.439-.27-31.286-.5-47.67,13.348-58.153,39.893-16.974,43-34.912,85.642-51.114,128.934-5.89,15.751-14.033,25.793-30.729,30.825-20.172,6.063-36.052,19.592-36.458,42.125C-2092.282,1987.675-2091.595,2047.843-2091.595,2110.15Zm771.556-251.357c0,25.16-.7,48.614.452,71.972.322,6.128,4.849,14.045,9.923,17.662,63.335,45.1,127.111,89.537,192.153,135.115,38.218-50.632,75.92-100.621,114.449-151.659-64.119-49.377-125.619-96.9-187.474-143.966-4.065-3.091-11.491-4.926-16.2-3.5-35.084,10.567-69.986,21.727-104.492,33.991-3.112,1.115-2.952,11.426-4.3,17.467,17.938,3.743,32.97,21.457,54.859,5.932,17.017-12.08,40.944-1.448,49.345,17.682,8.036,18.306-.333,39.507-18.906,47.94-18.11,8.218-42.809.836-47.38-18.326C-1283.311,1865.133-1301.478,1865.166-1320.039,1858.793ZM-1552.22,2150.17c0,19.129-1.385,36.029.363,52.583,2.04,19.346,16.643,23.648,33.756,23.349,17.134-.291,28.443-6.91,28.926-25.462.43-16.577.1-33.153.1-50.47Zm-482.2.053c0,18.155.224,34.206-.055,50.225-.322,16.449,7.951,24.3,23.83,25.213,16.942.987,34.4.484,37.992-20.44,3.048-17.648,2.189-35.975,3.122-55Z" transform="translate(2131.451 -1644.898)" fill="#5eb65c"/>
  <path id="Path_998" data-name="Path 998" d="M-1870.285,1820.809c-66.114,0-132.207.107-198.3-.042-31.876-.075-37.874-9.013-26.92-39.28,9.978-27.575,20.644-54.913,29.913-82.733,8.563-25.708,26.277-38.787,52.457-38.926q144.33-.74,288.641-.107c25.449.1,42.991,12.886,51.961,36.877,11.308,30.212,22.832,60.352,33.614,90.749,8.09,22.832.7,33.208-24.249,33.324C-1732.209,1821.056-1801.252,1820.809-1870.285,1820.809Zm187.389-39.783c-8.659-23.648-15.429-46.019-25.332-66.9-3.359-7.083-14.561-14.742-22.263-14.829-91.822-1.008-183.676-.772-275.519-.375-6.61.032-17.273,2.114-19.108,6.309-10.622,24.206-19.153,49.333-28.98,75.792Z" transform="translate(2236.907 -1595.153)" fill="#5eb65c"/>
  <path id="Path_999" data-name="Path 999" d="M-2049.555,1838.346c-34.624-.247-67.777-33.829-67.487-68.368.3-34.645,33.946-67.82,68.431-67.487,34.978.322,67.53,33.475,67.2,68.389C-1981.778,1805.975-2014.707,1838.593-2049.555,1838.346Zm4.12-39.194c14.817-.226,24.7-9.142,24.9-28.153.194-18.637-8.55-28.756-27.466-29.357-19.3-.61-30.622,10.247-30.053,29.227C-2077.484,1789.271-2068.085,1799.173-2045.436,1799.152Z" transform="translate(2180.61 -1448.39)" fill="#5eb65c"/>
  <path id="Path_1000" data-name="Path 1000" d="M-1939.569,1838.337c-34.656.439-68.314-32.479-68.679-67.178-.366-34.483,32.488-68.023,67.294-68.677,34.3-.645,68.143,32.531,68.636,67.294C-1871.825,1804.292-1904.8,1837.908-1939.569,1838.337Zm-6.438-39.185c24.753-.343,34.517-10.311,34.473-28.807-.043-18.4-10-28.542-28.272-28.745-19.161-.235-29.7,10.611-29.193,29.968C-1968.518,1790.645-1958.122,1799.142-1946.008,1799.153Z" transform="translate(2551.837 -1448.439)" fill="#5eb65c"/>
  <path id="Path_1001" data-name="Path 1001" d="M-2078.518,1745.271v-36.363h269.971v36.363Z" transform="translate(2312.069 -1426.481)" fill="#5eb65c"/>
  <path id="Path_1002" data-name="Path 1002" d="M-2078.548,1757.275v-36.5h270.164v36.5Z" transform="translate(2311.969 -1385.994)" fill="#5eb65c"/>
</svg>
