<svg id="Group_2359" data-name="Group 2359" xmlns="http://www.w3.org/2000/svg" width="824.773" height="611.399" viewBox="0 0 824.773 611.399">
  <path id="Path_944" data-name="Path 944" d="M837.181,919.444q174.981,0,349.965,0c36.675,0,62.271,25.59,62.285,62.344q.041,96.8,0,193.6c-.017,36.58-25.786,62.262-62.47,62.262q-347.1.025-694.2.06c-12.339,0-24.446-.621-35.55-6.727-20.628-11.342-32.117-28.857-32.264-52.341-.421-66.628-.25-133.262-.111-199.894.068-33.13,26.667-59.272,60.093-59.287Q661.054,919.384,837.181,919.444ZM439.493,1100.465c0,28.412-.832,55.92.32,83.344.66,15.674,10.375,27.071,24.235,34.54,7.822,4.219,16.276,4.941,24.978,4.848,17.373-.182,35.074,1.943,52.025-.752,15.554-2.469,30.277-10.092,45.428-15.264a26.587,26.587,0,0,1,8.375-1.262c29.021-.088,58.04-.052,87.06-.052,125.249,0,250.5.242,375.746-.264,18.9-.076,36.7,2.369,53.867,10a24.521,24.521,0,0,0,3.205,1.229c7.463,2.132,14.863,5.641,22.424,6.042,17.135.912,34.352.338,51.536.271,26.7-.1,46.2-19.589,46.289-46.315.078-23.486.026-46.97,0-70.456,0-1.82-.235-3.64-.394-5.9-14.466,0-28.374-.146-42.277.083a16.446,16.446,0,0,1-11.466-3.839c-11.1-9.03-22.577-17.61-33.7-26.623a16.865,16.865,0,0,0-11.433-3.994q-91.069.174-182.139.078-207.635,0-415.268.154A19.533,19.533,0,0,0,527.5,1070c-11.671,8.608-22.8,17.955-34.459,26.571a20.266,20.266,0,0,1-10.764,3.722C468.207,1100.716,454.116,1100.465,439.493,1100.465Zm-.287-14.215c13.721,0,26.485.165,39.24-.131a15.168,15.168,0,0,0,8.255-2.848q17.155-12.909,33.815-26.472a20.338,20.338,0,0,1,13.98-4.917c33.792.224,67.585.112,101.377.112,161.522,0,323.047.283,484.566-.383,18.793-.078,34.428,3.02,47.9,16.616,6.653,6.712,14.187,14.049,22.734,16.966,8.752,2.988,19.228.935,28.95,1.048,4.861.054,9.724.008,14.981.008v-7.28c0-32.267-.624-64.551.191-96.8.686-27.158-20.994-48.714-48.537-48.509-94.5.71-189.005.272-283.508.272q-208.2,0-416.4.006c-28.4,0-47.5,18.976-47.537,47.258q-.063,49.262-.007,98.523Z" transform="translate(-424.679 -919.433)" fill="#5eb65c"/>
  <path id="Path_945" data-name="Path 945" d="M653.332,1237.672c-.678,19.812,12.659,31.733,25.113,44.2,16.892,16.907,22.329,37.032,15.419,59.83-2.042,6.734-6.5,12.844-10.427,18.862-2.367,3.623-5.7,6.671-8.861,9.707-11.521,11.072-21.624,22.861-21.279,40.486H642.9a47.06,47.06,0,0,1,9.7-31.555c5.647-7.406,12.353-14.01,18.725-20.838,7.174-7.677,12.712-16.084,14.2-26.83,1.945-14.031-1.1-26.6-10.453-37.31-5.643-6.465-11.876-12.41-17.616-18.8-9.513-10.586-14.808-22.887-14.7-37.75Z" transform="translate(-392.888 -873.031)" fill="#5eb65c"/>
  <path id="Path_946" data-name="Path 946" d="M890,1411.007H879.248c.775-5.452,1.09-10.675,2.32-15.67,2.391-9.682,7.949-17.663,14.691-24.845,4.7-5.008,9.644-9.792,14.209-14.914,16.772-18.84,16.846-43.952.146-62.831-5.939-6.71-12.529-12.858-18.311-19.69-8.5-10.05-13.076-21.674-12.554-35.435h9.742a28.17,28.17,0,0,1,.576,3.121c.868,11.1,5.406,20.542,13,28.578,4.983,5.261,10.223,10.3,15.015,15.729,21.272,24.1,20.724,56.2-1.237,79.655-2.346,2.508-4.715,5-7.21,7.359C898.52,1382.577,889.813,1394.32,890,1411.007Z" transform="translate(-358.411 -873.038)" fill="#5eb65c"/>
  <path id="Path_947" data-name="Path 947" d="M771.172,1475.093h-9.923c-.45-8.268.821-16.2,4.782-23.106,4.037-7.031,9.176-13.5,14.3-19.829,3.944-4.873,8.844-8.969,12.912-13.762,15.183-17.874,15.25-42.268.051-60.2-5.3-6.241-11.327-11.853-16.859-17.9-9.87-10.8-15.433-23.354-15.3-38.573h10.058a19.25,19.25,0,0,1,.629,3.094,41.718,41.718,0,0,0,10.966,26.4c5.573,6.258,11.686,12.052,17.238,18.335,20.266,22.941,20.37,53.9.349,77.036-2.87,3.319-5.988,6.414-9.083,9.527C776.72,1450.75,774.569,1454.838,771.172,1475.093Z" transform="translate(-375.632 -863.694)" fill="#5eb65c"/>
  <path id="Path_948" data-name="Path 948" d="M750.964,1156.647v-22.722H827.8v22.722Z" transform="translate(-377.112 -888.158)" fill="#5eb65c"/>
</svg>
