<svg id="Group_2360" data-name="Group 2360" xmlns="http://www.w3.org/2000/svg" width="541.605" height="679.188" viewBox="0 0 541.605 679.188">
  <path id="Path_940" data-name="Path 940" d="M-589.652,141.588c13.119,3.626,26.864,5.814,39.274,11.112,66.387,28.331,94.45,109.531,60.513,173.3-4.48,8.427-5.882,8.819-14.335,3.932-28.671-16.568-57.325-33.145-86.786-50.179-3.276,5.632-6.426,11.05-9.635,16.558,78.066,55.849,120.693,130.8,118.869,226.934-1.812,95.862-46.964,169.084-126.917,221.991,4.789,8.389,9.543,16.8,14.373,25.169,7.622,13.2,15.468,26.271,22.772,39.641,1.3,2.389,1.7,6.856.317,8.8-2.782,3.915-6.236.909-9.087-1.2-22.037-16.273-44.117-32.481-66.027-48.921-3.442-2.584-6.258-2.8-10.227-1.382Q-746,799.2-835.581,767.549c-4.214-1.493-7.212-1.177-10.848,1.556-21.721,16.314-43.636,32.375-65.5,48.5-2.833,2.09-6.38,5.2-9.1,1.328-1.44-2.051-.928-6.792.486-9.32,11.975-21.378,24.364-42.529,36.875-64.173-79.874-52.554-125.363-125.752-127.255-221.89-1.9-96.252,40.616-171.164,119.063-227.311-2.918-5.093-6.017-10.518-9.412-16.456-14.61,8.4-28.735,16.483-42.825,24.627-15.1,8.732-30.154,17.556-45.262,26.272-6.752,3.891-8.723,3.256-12.571-3.634-38.029-68.141-.8-158.433,74.266-179.926,7.791-2.229,15.793-3.706,23.689-5.532h25.2c1.685.42,3.348.978,5.054,1.236q57.67,8.757,89.391,57.688c5.029,7.722,4.654,8.935-3.065,13.424q-25.475,14.8-51,29.481c-12.372,7.154-24.723,14.333-37.383,21.676,2.817,4.906,5.3,9.293,7.854,13.647a27.3,27.3,0,0,0,2.086,2.716q119.848-56.919,239.655.24c3.217-5.493,6.3-10.765,9.711-16.589-3.386-1.981-6.38-3.753-9.391-5.492q-39.833-23.02-79.655-46.048c-6.84-3.966-7.237-5.469-3.158-11.971,18.757-29.89,45.5-48.679,79.684-57,5.092-1.24,10.3-2.015,15.463-3.006ZM-756.759,312.221c-30.014,1.032-57.2,8.718-83.2,22.192,1.233,2.261,2.17,4,3.133,5.725,1.073,1.93,2.246,3.806,3.234,5.778,3.091,6.2,1.756,12.056-3.353,15.051-5.494,3.227-11.418,1.473-15.185-4.625-2.17-3.516-4.159-7.146-6.515-11.216a203.352,203.352,0,0,0-60.779,60.766c4.366,2.574,8.044,4.587,11.561,6.844,5.531,3.554,7.275,9.667,4.417,14.826-2.821,5.093-9.023,6.648-14.973,3.567-3.868-2-7.588-4.276-11.785-6.656a194.612,194.612,0,0,0-22.312,83.169c13.276,0,26.053-.087,38.831.036,7.2.07,12.039,4.424,12.115,10.46.081,6.071-4.767,10.493-11.856,10.738-2.428.085-4.86-.014-7.289-.016-10.526,0-21.053,0-31.775,0A189.652,189.652,0,0,0-930.1,611.895c4.4-2.44,7.985-4.626,11.738-6.465,6.148-3.008,12.212-1.38,14.939,3.779,2.783,5.254.921,11.322-4.678,14.777-3.526,2.177-7.17,4.169-11.316,6.565a202.937,202.937,0,0,0,60.733,60.792c2.444-4.162,4.391-7.616,6.473-10.99,3.855-6.271,9.548-8.07,15.1-4.871,5.456,3.143,6.731,8.981,3.294,15.563-1.908,3.646-3.973,7.208-6.11,11.057,26.251,13.555,53.479,21.229,83.176,22.227v-7.677c-.013-10.83-.195-21.663.038-32.487.127-6.3,4.666-10.6,10.429-10.647,5.793-.052,10.219,4.171,10.738,10.4.182,2.2.055,4.42.055,6.628V724.17c27.129-.3,63.82-10.3,82.673-22.518-2-3.561-4.117-7.111-6.009-10.78-2.952-5.745-1.6-11.489,3.247-14.552,5.185-3.272,11.135-1.862,14.892,3.771,2.314,3.464,4.291,7.157,6.756,11.335,24.546-16.285,44.7-36.166,60.657-60.88-4.2-2.427-7.875-4.417-11.414-6.636-5.793-3.628-7.545-9.437-4.607-14.735,2.871-5.188,8.817-6.757,14.965-3.733,3.915,1.929,7.689,4.161,11.95,6.489,13.3-26.282,21.312-53.339,22.029-83.037-13.453,0-26.019.1-38.577-.037-7.14-.078-11.869-4.588-11.772-10.749.1-5.834,4.75-10.208,11.46-10.419,6.186-.194,12.376-.085,18.562-.093,6.735-.011,13.462,0,20.5,0a194.943,194.943,0,0,0-22.257-83.01c-2.187,1.17-3.927,2.075-5.642,3.031-1.934,1.074-3.8,2.26-5.751,3.285-6.346,3.331-12.494,1.914-15.522-3.517-2.935-5.259-1.229-10.914,4.645-14.727,3.623-2.351,7.406-4.44,11.5-6.87a208.649,208.649,0,0,0-60.779-60.651c-2.136,3.643-4,6.838-5.877,10.023-4.193,7.1-9.974,9.213-15.831,5.8-5.527-3.222-6.575-9.24-2.779-16.129,1.871-3.382,3.775-6.739,5.874-10.488-26.37-13.423-53.3-21.245-82.9-22.091,0,2.924,0,5.085,0,7.245-.017,10.166.013,20.332-.051,30.5-.055,7.79-4.078,12.651-10.413,12.763-6.549.114-10.725-4.917-10.788-13.054-.034-3.979,0-7.958,0-11.936Z" transform="translate(1017.009 -141.588)" fill="#5eb65c"/>
  <path id="Path_941" data-name="Path 941" d="M-774.454,432.681c-15.473,0-30.949.177-46.412-.1a15.428,15.428,0,0,0-11.732,4.567c-8.139,7.56-17.623,10.728-28.608,6.588s-17.012-12.284-18.7-23.659c-1.3-8.785,2.477-16.109,8.215-22.217,3.492-3.723,4.552-7.538,4.529-12.443-.169-31.6-.135-63.209-.076-94.812.019-8.268,4.077-13.9,11.162-16.181,6.578-2.116,13.984-.1,17.464,5.882a24.826,24.826,0,0,1,3.12,11.841c.247,31.6.127,63.208.15,94.813,0,6.843,6.985,13.835,13.732,13.835q45.753.017,91.5.009c2.21,0,4.427-.075,6.629.1,8.815.667,15.356,7.668,15.187,16.149a15.934,15.934,0,0,1-15.779,15.57c-8.386.237-16.793.1-25.19.11s-16.8,0-25.192,0Z" transform="translate(1122.156 -40.15)" fill="#5eb65c"/>
</svg>
