<svg xmlns="http://www.w3.org/2000/svg" width="393.434" height="645.566" viewBox="0 0 393.434 645.566">
  <path id="Path_1053" data-name="Path 1053" d="M-3090.892,5970.318c11.468,6.263,20.962,10.689,29.675,16.328,43.306,27.97,68.26,67.726,68.845,119.4,1.208,107.423.58,214.873.4,322.308-.036,24.5-1.888,26.842-24.752,31.976-114.718,25.758-229.436,25.092-344.306.334-17.571-3.8-24.144-12.135-24.05-29.879.571-109.534-.564-219.065.955-328.558.716-50.543,26.479-88.938,68.931-115.939,8.757-5.568,18.186-10.064,31.007-17.064,0-11.686-.665-25.019.151-38.252,1.236-19.669,8.445-27.953,27.586-32.161a313.791,313.791,0,0,1,37.038-5.829c16.493-1.621,17.953-10.846,13.117-26.437-9.256-.952-19.784-.448-29.091-3.614-5.5-1.865-12.35-9.444-12.473-14.578-.094-4.4,8.416-12.711,13.37-12.9,48.931-1.895,98.021-4.439,146.18,8.143,9.855,2.572,19.408,7.679,15.424,18.786-1.809,5.062-12.4,9.169-19.321,9.7-9.075.694-18.388-3.023-27.687-4.021-16.255-1.749-32.582-2.85-51.245-4.412-.507,10.27-.847,16.936-1.3,25.8,17.246,3.1,33.429,5.642,49.445,8.968,22.654,4.742,29.321,12.856,30.63,36.184.347,6.246-.014,12.509.194,18.756C-3091.992,5958.5-3091.412,5963.638-3090.892,5970.318Zm67.681,357.425c-12.994-.795-24.216-2.01-35.439-2.083-45.895-.232-91.8.188-137.712-.218-42.829-.361-54.4-11.8-54.8-53.321-.289-29.212-.412-58.438.022-87.651.592-37.832,12.669-49.922,51.325-50.355,47.984-.493,95.983.087,143.952-.274,10.9-.059,21.779-2.024,31.837-3.023,8.164-76.646-39.639-132.99-112-135.175-32.308-.969-64.738.955-97.01-.462-74.608-3.326-124.812,59.755-123.012,124.283,2.632,93.813.593,187.772.665,281.658,0,9.242.955,18.468,1.569,29.487,111.478,25.279,220.969,26.146,330.6-.594Zm.073-161.712h-196.4c-1.816,43.37-5.243,84.949,2.212,126.7h194.187Zm-100.214-236.421c-45.3-10.4-87.009-11.555-129.136.549v33.451a1156.115,1156.115,0,0,0,129.136.2Z" transform="translate(3385.082 -5833.871)" fill="#5eb65c"/>
</svg>
