<svg id="Group_2367" data-name="Group 2367" xmlns="http://www.w3.org/2000/svg" width="603.845" height="615.469" viewBox="0 0 603.845 615.469">
  <path id="Path_962" data-name="Path 962" d="M-3002.673,5804.26c0-34.621-.507-69.227.145-103.82.622-33.406,14.787-47.883,47.717-50.834,41.519-3.729,83.032-10.267,124.573-10.368,39.343-.1,78.955,4.9,118.016,10.572,87.508,12.683,174.8,26.8,262.055,41.1,38.584,6.291,50.457,20.767,50.854,59.12q.565,54.946-.007,109.909c-.4,36.979-12.206,52.105-48.52,58.021-100.314,16.356-201.062,30.2-301.108,48.027-58.5,10.426-115.558-.795-173.245-3.281-9.126-.393-18.186-2.142-27.312-2.864-40.84-3.226-52.894-16.067-53.234-57.876-.261-32.583-.058-65.15-.058-97.705Zm28.851.666c0,33.625-.492,67.247.174,100.841.4,19.265,4.229,22.692,23.254,25,13.131,1.593,26.32,3.37,39.5,3.6,48.642.882,96.677,13.593,145.978,3.89,43.862-8.663,88.514-13.246,132.723-20.161,59.279-9.284,118.558-18.627,177.678-28.865,22.842-3.948,25.51-7.534,26.045-29.979.745-30.528.34-61.115.29-91.672-.073-44.166-.55-44.658-44.853-51.745-1-.145-2.017-.246-3.022-.419-76.381-11.9-152.673-24.369-229.162-35.5-38.156-5.538-76.647-11.8-115.015-11.946-41.555-.187-83.141,6.336-124.718,10-25.807,2.256-28.525,4.989-28.829,32.233C-2974.119,5741.786-2973.858,5773.37-2973.822,5804.926Z" transform="translate(3002.872 -5639.236)" fill="#5eb65c"/>
  <path id="Path_963" data-name="Path 963" d="M-2884.036,5929.806c58.873,1.459,106.5-16.661,149.317-53.887-4.272-9.124-8.271-17.106-11.815-25.278-16.906-39.133-33.84-78.267-50.363-117.53-2.7-6.406-5.213-13.825-4.491-20.421.514-4.729,5.792-10.5,10.412-12.669,2.98-1.372,10.225,1.722,12.712,4.991,4.18,5.466,6.11,12.639,8.952,19.1,17.932,40.87,35.092,82.113,54.036,122.535,15.063,32.119,13.464,43.01-15.416,64.441-42.056,31.209-89.251,47.694-141.718,48.447-29.068.4-38.288-6.177-44.152-35.2a839.413,839.413,0,0,0-59.25-182.1c-.846-1.836-1.866-3.614-2.611-5.51-3.832-9.76-8.025-20.866,4.715-26.175,12.828-5.351,17.795,5.916,22.163,15.155,27,57.182,46.733,116.866,60.768,178.475C-2889,5911.96-2886.733,5919.61-2884.036,5929.806Z" transform="translate(3103.4 -5344.088)" fill="#5eb65c"/>
  <path id="Path_964" data-name="Path 964" d="M-2914.785,5665.2c20.269-.014,40.63-1.055,60.761.622,5.907.492,14.693,7.9,15.958,13.536,2.1,9.226-5.973,14.072-15.344,14.114-40.544.117-81.11.638-121.624-.49-5.749-.16-11.252-8.592-16.877-13.189,5.444-4.889,10.55-13.422,16.363-13.929C-2955.43,5664.128-2935.061,5665.2-2914.785,5665.2Z" transform="translate(3056.396 -5514.095)" fill="#5eb65c"/>
  <path id="Path_965" data-name="Path 965" d="M-2906.421,5710.506c-23.2-2.04-46.4-4.034-69.6-6.161-8.756-.81-17.875-4.455-15.424-14.086,1.469-5.784,10.912-13.767,16.537-13.593q60.686,1.973,121.234,7.635c5.755.549,14.75,9.082,15.264,14.564,1.121,12.075-9.856,13.52-19.357,13.131-16.189-.636-32.358-1.937-48.534-2.951Z" transform="translate(3056.704 -5456.485)" fill="#5eb65c"/>
  <path id="Path_966" data-name="Path 966" d="M-2889.66,5652.424c8.829,0,23.11-1.114,37.052.565,5.3.636,13.514,7.476,13.724,11.814.224,4.743-6.414,11.337-11.657,14.374-4.822,2.764-11.742,2.185-17.766,2.576-30.268,1.965-60.544,3.773-90.828,5.61-4.042.246-8.091.289-12.125.507-10.21.549-19.184-2.735-20.449-13.494-1.425-12.1,8.337-14.389,18.048-15.186C-2947.456,5657.111-2921.257,5654.984-2889.66,5652.424Z" transform="translate(3056.694 -5576.614)" fill="#5eb65c"/>
</svg>
