<svg xmlns="http://www.w3.org/2000/svg" width="948.945" height="578.741" viewBox="0 0 948.945 578.741">
  <path id="Path_1050" data-name="Path 1050" d="M181.468,1105.388c0,16.128.91,32.315-.2,48.367-2.1,30.58-19.677,51.847-46.18,64.052-59.1,27.217-118.979,52.742-178.589,78.844-51.77,22.667-103.488,45.46-155.455,67.67-38.66,16.519-77.207,13.4-114.786-3.788-46.906-21.452-93.537-43.5-140.23-65.407q-124.5-58.4-248.913-116.963c-44.235-20.86-68.318-66.729-62.474-115.291,6.991-58.087,41.168-94.663,92.117-117.336,72.041-32.049,144.667-62.794,217.011-94.159,32.547-14.11,64.818-28.87,97.6-42.418,39.158-16.185,77.589-18.286,116.589,3.446,28,15.6,58.3,27.041,87.472,40.562q100.54,46.594,200.953,93.443c28.882,13.487,58.119,26.328,86.271,41.212,34.051,18,51.388,46.871,49.995,86.123-.373,10.537-.057,21.092-.057,31.64Zm-28.527,20.7c-9,17.769-24.333,26.81-41.073,34.068Q-42.348,1227.013-196.6,1293.809c-12.647,5.47-25.306,11.113-38.4,15.3-11.374,3.642-21.478-.509-28.745-10-15.925-20.769-13.168-53.018,7-69.634a138.052,138.052,0,0,1,31.84-19.286c77.31-34.053,154.883-67.527,232.356-101.23,31.943-13.894,63.769-28.08,95.885-41.577,3.826-1.606,11.19-1.429,13.233,1,2.658,3.172,3.568,10.4,1.71,14.12a28.565,28.565,0,0,1-12.955,12.345c-46.815,20.923-93.871,41.313-140.9,61.761q-73.681,32.056-147.432,63.957-23.5,10.216-46.875,20.769c-13.928,6.273-19.926,15.281-18.361,27.081,1.49,11.251,8.337,15.347,18.767,10.842q65.159-28.182,130.236-56.545,83.185-36.122,166.364-72.265c19.869-8.682,40.013-16.947,59.094-27.155,15.256-8.158,26.53-21.177,28-39.475,3.167-39.612-9.564-60.712-45.65-77.537Q63.9,985.471,19.225,964.7C-73.667,921.485-166.753,878.68-259.326,834.81c-26.229-12.433-52.043-14.254-78.218-3.406-50.407,20.885-100.4,42.76-150.511,64.363-57.948,24.987-115.976,49.8-173.7,75.3-36.914,16.314-65.349,41.493-73.679,82.836-9.153,45.378,4.412,78.656,48.15,100.081,27.136,13.3,54.684,25.751,82,38.683,51.061,24.181,102.023,48.574,153.151,72.609,47.289,22.232,94.792,43.995,142.091,66.2,20.23,9.5,40.965,15.841,63.656,15.235,22.135-.6,41.3-10.113,60.849-18.653q81.32-35.539,162.6-71.146c47.569-20.836,95.273-41.375,142.608-62.73C147.768,1181.514,159.023,1157.762,152.94,1126.084Z" transform="translate(766.221 -796.459)" fill="#5eb65c"/>
</svg>
