<svg id="Group_2382" data-name="Group 2382" xmlns="http://www.w3.org/2000/svg" width="670.926" height="604.978" viewBox="0 0 670.926 604.978">
  <path id="Path_1032" data-name="Path 1032" d="M-5538.946,6078.333c-6.047-1.288-11-1.839-15.635-3.395-15.993-5.348-26.613-19.707-26.762-35.7-.2-16.83,10-31.271,27.15-37.171,36.46-12.538,73.508-17.134,112.284-12.817,84.245,9.425,163.424,34.847,239.609,71,12.349,5.858,25.061,10.942,37.61,16.316,39.232,16.815,79.513,21.442,121.091,10.058,27.408-7.5,54.816-15.087,82.25-22.54,14.533-3.98,28-1.729,38.722,9.238,10.675,10.859,14.815,24.148,10.552,39.249-3.056,10.914-10.336,18.757-20.395,23.343-4.88,2.185-6.9,5.282-8.514,9.909-12.107,35.142-24.308,70.274-36.9,105.23-2.761,7.67-6.905,14.91-10.954,22.017-18.048,31.79-41.873,56.824-79.1,66.117v15.26c2.349,1.072,6.183,1.568,7.36,3.617,2.417,4.184,4.855,9.268,4.628,13.84-.335,5.886-5.229,9.639-11.452,9.734-13.675.256-27.418.682-41.055-.295-4.022-.281-8.9-4.184-11.346-7.806-5.683-8.354-9.812-17.7-15.229-26.255-1.5-2.4-5.257-4.839-7.991-4.85q-92.881-.546-185.749-.271c-2.763,0-6.583,2.32-8.112,4.731-5.389,8.544-10.1,17.525-14.9,26.417-3.2,5.941-7.923,8.648-14.7,8.528-10.942-.216-21.907-.067-32.864-.067-11.06-.014-16.211-3.272-17.471-10.9-1.246-7.565,2.654-12.605,12.538-16.295,1.407-15.7,1.381-15.618-12.538-21.787-30.906-13.639-50.79-38.135-65.838-67.311-14.574-28.225-21.238-59.094-29.617-89.383C-5521.273,6143.458-5530.1,6110.769-5538.946,6078.333Zm570.745,71.682-2.654-1.461c-15.272,4.021-30.506,8.354-45.858,12.055-30.691,7.467-61.543,12.911-93.428,9.763-40.335-4.011-77.771-17.381-114.188-34.232-71.37-32.988-145.428-57.189-223.236-69.523-22.367-3.528-44.033-2.347-65.7,5.04.43,2.16.7,4.037,1.182,5.846,12.483,45.6,24.684,91.3,37.61,136.81,8.017,28.168,19.979,54.5,41.029,75.675,8.248,8.3,17.5,15.285,28.883,18.907,4.048-9.936,9.292-13.784,16.356-12.458,7.295,1.356,10.742,6.693,10.755,16.856.038,13.892.014,27.769.014,41.658l2.332,1.369c2.079-2.2,4.708-4.1,6.169-6.665,8.677-15.205,17.082-30.571,25.583-45.857,3.31-6,8.486-8.782,15.07-7.1,6.529,1.66,10.07,6.354,9.977,13.3-.042,1.824-.35,3.633-.578,5.726h165.77c-.229-1.568-.481-2.845-.617-4.116-.748-7.213,2.214-12.5,9.094-14.685s12.347.485,15.86,6.785c8.675,15.526,17.189,31.161,26.026,46.583,1.368,2.361,4.208,3.836,8.07,7.241,0-17.861-.562-32.653.351-47.388.267-4.317,3.847-10.028,7.561-12.068,3.339-1.822,9.71-.668,13.357,1.49,3.19,1.876,4.462,6.986,7.4,12.106,7.066-4.048,15.26-7.829,22.393-13.048a102.114,102.114,0,0,0,33.789-42.769C-4995.1,6220.946-4981.97,6185.334-4968.2,6150.015Zm-500.418-112.029c62.245,2.386,121.765,17.139,179.165,40.549,34.432,14.025,67.861,30.559,102.534,43.911,38.108,14.685,77.247,26.94,119.12,20.8a509.938,509.938,0,0,0,51.517-10c23.318-5.9,46.34-12.887,69.35-19.86,10.164-3.067,12.966-10.886,7.629-18.986-4.412-6.744-10.485-6.342-17.419-4.382-27.874,7.843-55.684,16.037-83.84,22.833-24.81,6.008-49.949,9.2-75.667,4.828-32.463-5.483-62.766-17.056-92.194-31.108-66.507-31.712-135.2-56.691-208.424-67.284-26.763-3.889-53.74-8.85-80.853-4.048-16.1,2.868-31.965,7.281-47.772,11.65-7.737,2.134-10.849,8.354-9,15.124,2.038,7.509,7.442,10.569,15.9,8.771,2.937-.632,5.777-1.676,8.7-2.44C-5509.782,6043.043-5489.778,6037.1-5468.619,6037.986Z" transform="translate(5581.346 -5776.972)" fill="#5eb65c"/>
  <path id="Path_1033" data-name="Path 1033" d="M-5261.689,6010.808c15.981-18.114,10.4-34.11-2.054-50.216-19.054-24.6-17.98-53.512,2.683-77.23,6.488,5.252,12.991,10.552,19.753,16.021a12.943,12.943,0,0,1-1.276,3.071c-12.724,16.708-8.165,31.845,3.5,46.958,18.771,24.311,19.134,50.764,1.689,74.229-.963,1.261-2.092,2.4-3.592,4.171C-5247.759,6022.218-5254.277,6016.909-5261.689,6010.808Z" transform="translate(5777.204 -5844.164)" fill="#5eb65c"/>
  <path id="Path_1034" data-name="Path 1034" d="M-5316.634,5875.509c6.41,5.283,12.858,10.606,19.108,15.782-.2,1.1-.135,1.73-.4,2.105-13.623,17.322-9.038,32.89,3.432,48.846,19.537,25.021,18.276,55.042-2.7,77.407-6.449-5.295-12.927-10.619-19.173-15.727.132-1.1.026-1.743.293-2.093,13.3-17.363,8.971-32.985-3.458-48.968C-5339.064,5927.68-5337.7,5897.056-5316.634,5875.509Z" transform="translate(5741.113 -5849.226)" fill="#5eb65c"/>
  <path id="Path_1035" data-name="Path 1035" d="M-5409.352,6003.735c-6.411-5.282-12.873-10.619-19.067-15.742.132-1.114,0-1.743.279-2.1,13.569-17.313,9.105-32.907-3.377-48.863-19.552-25.034-18.3-54.8,2.612-77.5,6.452,5.283,12.939,10.6,19.51,16a11.4,11.4,0,0,1-.938,2.532c-12.816,16.844-8.7,32.166,3.3,47.585C-5387.095,5951.306-5388.088,5981.5-5409.352,6003.735Z" transform="translate(5668.914 -5859.524)" fill="#5eb65c"/>
  <path id="Path_1036" data-name="Path 1036" d="M-5353.242,6011.782c-6.677-5.5-12.966-10.647-19.067-15.677.081-.989-.051-1.662.216-2.012,13.154-17.309,9.186-33.038-3.232-49.089-19.667-25.354-18.488-55.015,2.6-77.554,6.4,5.324,12.817,10.686,19.093,15.876-.254,1.114-.2,1.729-.47,2.077-13.421,17.421-8.819,33.161,3.528,49.063C-5331.238,5959.4-5332.283,5987.792-5353.242,6011.782Z" transform="translate(5705.038 -5854.418)" fill="#5eb65c"/>
</svg>
