<svg id="Group_2381" data-name="Group 2381" xmlns="http://www.w3.org/2000/svg" width="476.414" height="416.406" viewBox="0 0 476.414 416.406">
  <path id="Path_1043" data-name="Path 1043" d="M-94.585,648.407c-5.028,12.173-11.332,15.426-24.66,14.4-20.309-1.559-36.245-11.367-50.49-24.982-7.579-7.244-15.732-13.441-26.914-14.134-9.922-.615-19.084.92-26.991,7.4-8.136,6.659-15.883,13.89-24.517,19.828-25.614,17.614-61.573,16.094-85.942-3.2-5.824-4.61-11.263-9.7-16.975-14.461-16-13.333-35.6-13.263-51.641.1-6.894,5.749-13.391,12.069-20.761,17.126-27.107,18.594-63.5,16.573-88.989-4.517-6.077-5.03-11.969-10.289-18.084-15.274a30.137,30.137,0,0,0-19.719-7.12c-10.648.207-17.052-4.8-20.731-14.245v-7.447c4.638-10.926,10.356-15.116,20.423-14.71,16.246.65,31.014,5.517,43.707,15.906,6.111,5,11.952,10.326,18.053,15.336a37.644,37.644,0,0,0,46.486,1.042c4.929-3.731,9.573-7.874,14.114-12.079a74.7,74.7,0,0,1,97.064-4.471c5.99,4.641,11.644,9.736,17.31,14.788,13.867,12.366,36.5,11.59,48.373,1.185,5.937-5.2,11.92-10.356,18.091-15.274,26.914-21.44,63.26-22.2,90.861-1.788,5.958,4.412,11.428,9.5,17.022,14.392,6.963,6.083,14.758,10.5,24.17,10.445,10.494-.067,17.141,4.735,20.741,14.312Z" transform="translate(571 -246.805)" fill="#5eb65c"/>
  <path id="Path_1044" data-name="Path 1044" d="M-571,527.858c5.037-12.618,11.954-16.116,25.751-14.674,17.557,1.83,32.137,9.408,44.933,21.09,2.746,2.508,5.657,4.844,8.31,7.442,14.515,14.213,39.225,14.5,54.672-.214,7.356-7.01,15.219-13.967,23.992-18.918,29-16.355,62.075-12.094,87.391,10.129,4.884,4.292,9.691,8.709,14.877,12.614a37.74,37.74,0,0,0,46.537-1.371c5.819-4.864,11.377-10.048,17.28-14.8a74.472,74.472,0,0,1,94.235.964c4.631,3.878,9.163,7.877,13.672,11.9,6.92,6.173,14.748,10.375,24.211,10.32,10.5-.06,17.24,4.76,20.553,14.609v7.445c-3.085,8.042-8.036,13.975-17.364,14.224a70.911,70.911,0,0,1-27.313-4.452c-13.529-5.135-23.939-14.649-34.4-24.1-16.291-14.726-38.156-14.684-54.2.032-5.017,4.6-10.15,9.11-15.534,13.268-20.884,16.132-44.211,18.849-69.027,11.759-13.818-3.947-24.72-12.845-34.591-22.733-17.909-17.934-42.5-16.892-58.092-1.379-3.619,3.6-7.606,6.832-11.506,10.133-19.394,16.422-41.665,20.508-66.122,15.522-15.527-3.168-27.429-12.364-38.688-22.748-8.052-7.427-16.5-14.624-28.183-14.5-10.652.107-17.641-4.269-21.4-14.1Z" transform="translate(571 -241.64)" fill="#5eb65c"/>
  <path id="Path_1045" data-name="Path 1045" d="M-523.019,477.419-326.873,366.9c-4.477-8.207-8.767-16.2-13.172-24.121-7.6-13.669-15.009-27.45-22.966-40.909-11.927-20.172-.654-43.931,21.967-48.66,45.657-9.545,91.082-20.223,136.508-30.826,20.807-4.855,35.836,9.12,39.005,22.523,4.163,17.606-6.7,34.6-24.5,38.492-32.112,7.021-64.145,14.394-96.211,21.637a24.572,24.572,0,0,0-2.705,1.019q49.6,83.413,98.924,166.379c-8.266.831-16.092,1.284-23.8,2.47-12.8,1.968-23.423,8.582-33.147,16.772-4.621,3.89-9.081,7.971-13.67,11.9a37.8,37.8,0,0,1-48,1.2c-6.475-5.034-12.47-10.677-18.8-15.9-25.969-21.451-68.095-21.573-94.592,2.012-4.281,3.811-8.739,7.426-12.927,11.335-14.991,13.989-38.814,13.612-54.38-.829-8-7.425-17.209-13.565-26.014-20.1C-517.526,479.668-520.247,478.788-523.019,477.419Z" transform="translate(567.665 -221.394)" fill="#5eb65c"/>
  <path id="Path_1046" data-name="Path 1046" d="M-84.323,379.18c-.586,31.649-25.779,56.675-56.724,56.135a56.517,56.517,0,0,1-55.965-59.7c1.7-28.672,24.728-53.562,57.68-53.277C-108.829,322.6-83.76,348.723-84.323,379.18Z" transform="translate(545.013 -228.409)" fill="#5eb65c"/>
</svg>
