<svg id="Group_2383" data-name="Group 2383" xmlns="http://www.w3.org/2000/svg" width="754.898" height="567.2" viewBox="0 0 754.898 567.2">
  <g id="Group_2351" data-name="Group 2351" transform="translate(0 0)">
    <path id="Path_1038" data-name="Path 1038" d="M-142.042,15.36a85.323,85.323,0,0,1,85.323,85.332,85.335,85.335,0,0,1-85.323,85.347,85.348,85.348,0,0,1-85.347-85.347A85.335,85.335,0,0,1-142.042,15.36Z" transform="translate(750.76 277.62)" fill="#5eb65c"/>
    <path id="Path_1039" data-name="Path 1039" d="M-200.724-105.338A85.326,85.326,0,0,1-115.4-20a85.327,85.327,0,0,1-85.321,85.339A85.339,85.339,0,0,1-286.07-20,85.338,85.338,0,0,1-200.724-105.338Z" transform="translate(667 105.338)" fill="#5eb65c"/>
    <path id="Path_1040" data-name="Path 1040" d="M242.442,141.139l-85.124,28.1c-12.278,4.017-35.277,1.653-46.446-4.831L44.94,126.126a54.49,54.49,0,0,0,4.214-21.065A54.521,54.521,0,0,0-5.363,50.515H-371.175a54.53,54.53,0,0,0-54.532,54.546,54.521,54.521,0,0,0,54.532,54.516h338L76.68,223.366C94.7,233.831,118.736,239.4,141.836,239.4a119.055,119.055,0,0,0,36.831-5.45l85.111-28.1a34.069,34.069,0,1,0-21.335-64.711Z" transform="translate(467.684 327.799)" fill="#5eb65c"/>
    <path id="Path_1041" data-name="Path 1041" d="M-264.636-26.623c-7.322,7.081-68.256,70.049-74.987,199.79H-230.34a277.024,277.024,0,0,1,9.663-56.517l51.349,54.519h36.487a67.258,67.258,0,0,1,18.489,2.862,27.3,27.3,0,0,0-5.153-29.546l-77.286-81.97a94.826,94.826,0,0,1,8.69-11.438,54.542,54.542,0,0,0,.592-76.508A54.535,54.535,0,0,0-264.636-26.623Z" transform="translate(590.559 195.731)" fill="#5eb65c"/>
    <path id="Path_1042" data-name="Path 1042" d="M-16.49,110.648H-351.1a66.517,66.517,0,0,1-44.2-17.011H-415.74C-430.8,93.637-443,104.585-443,118.093c0,13.484,12.2,24.454,27.259,24.454h454.2Z" transform="translate(443 389.35)" fill="#5eb65c"/>
  </g>
</svg>
