<svg xmlns="http://www.w3.org/2000/svg" width="499.668" height="493.89" viewBox="0 0 499.668 493.89">
  <path id="Path_1057" data-name="Path 1057" d="M78.08,182.483c-4.17,7.053-9.6,11.773-17.793,12.6-11.3,1.126-21-7.67-21.185-19.348-.188-10.767-.054-21.534-.054-33.561-1.462,2.32-2.293,3.714-3.191,5.082a19.254,19.254,0,0,1-21.226,8.193C6.13,153.145.257,146.079.123,137.3c-.2-12.805-.107-25.6-.054-38.389.04-10.338,5.752-18.034,15-20.341C23.668,76.462,32.035,80.444,37,89.025c.389.67.791,1.341,2.065,3.54,0-11.089,0-20.662,0-30.209.027-12.6,5.1-20.314,15-22.781,9.238-2.32,17.216,1.971,24.028,13.985,0-12.51-.147-23.492.04-34.473A19.512,19.512,0,0,1,93.647.409c8.246-1.757,17.324,2.253,20.957,10.03a28.344,28.344,0,0,1,2.413,11.142c.255,16.64.107,33.307.107,49.973,0,1.984,0,3.956,0,6.248H351.238c0-2.065,0-4.2,0-6.342,0-16.653-.04-33.32,0-49.987C351.265,8.668,359.4-.088,371.042.086c11.29.188,19.174,8.97,19.2,21.494.04,10.1,0,20.207,0,30.518.684-.375,1.1-.483,1.247-.711,5.94-10.11,13.744-14.106,22.915-11.732,9.627,2.481,14.816,10.03,14.857,21.668.013,9.855,0,19.724,0,31.067,1.649-2.8,2.454-4.358,3.433-5.779a19.359,19.359,0,0,1,20.864-7.924c7.924,2.105,14.253,8.756,14.508,16.895q.664,21.32.04,42.666c-.241,8.662-6.838,15.54-15.366,17.485A19.652,19.652,0,0,1,432.2,146.99c-.737-1.193-1.341-2.467-2.936-5.444,0,11.29.094,20.837-.04,30.384a35.865,35.865,0,0,1-1.073,9.614c-2.293,7.75-7.924,12.242-15.768,13.382-7.924,1.167-14.293-2.038-18.933-8.568-.912-1.287-1.569-2.709-3.2-5.578,0,12.376.241,23.17-.067,33.991-.389,15.272-16.385,24.363-29.271,16.734-6.423-3.821-9.667-9.667-9.667-17.216-.04-16.653,0-33.32,0-49.987,0-2.4,0-4.827,0-7.683H117.112q0,8.126,0,16.224c0,13.824.094,27.648-.027,41.486-.134,11.357-8.729,19.938-19.576,19.831-10.955-.067-19.241-8.488-19.389-20.005C77.959,203.6,78.08,193.035,78.08,182.483Z" transform="matrix(0.719, -0.695, 0.695, 0.719, 0, 325.38)" fill="#5eb65c"/>
</svg>
