<svg xmlns="http://www.w3.org/2000/svg" width="531.34" height="559.483" viewBox="0 0 531.34 559.483">
  <g id="Group_2364" data-name="Group 2364" transform="translate(3575.33 -2583.773)">
    <path id="Path_957" data-name="Path 957" d="M-3464.092,3116.644c-13.889-2.558-27.249-3.348-39.428-7.564-44.862-15.534-71.5-53.687-71.67-101.65-.253-71.3-.08-142.6-.08-213.894,0-34.082-.051-68.156.029-102.237.094-36.545,14.708-65.975,44.073-87.74,17.925-13.295,38.363-19.692,60.715-19.692,107.034-.037,214.075-.217,321.115.051,58.853.152,105,46.29,105.157,105.149q.4,160.29,0,320.572a104.9,104.9,0,0,1-93.6,104.592c-5.615.645-11.36.094-17.664.094,0,4.84.138,8.694-.029,12.527-.485,11.462-5.637,16.367-17.041,16.374q-28.343.011-56.672,0c-12.324-.015-18.367-5.854-18.816-18.236-.116-3.115-.014-6.245-.014-9.824h-123.14c0,3.282.058,6.542-.015,9.8q-.4,18.258-18.8,18.287-28.332.011-56.665-.029c-10.035-.007-15.49-4.659-16.758-14.657C-3463.955,3124.215-3463.926,3119.781-3464.092,3116.644Zm154.1-32.683q80.009,0,160.018-.015c42.631-.058,74.9-32.249,74.923-74.821q.076-160.29.036-320.594c0-11.3-2.058-22.177-7.267-32.168-14.766-28.343-38.53-41.936-70.264-41.943q-88.356-.032-176.7.015c-47.6.022-95.2-.572-142.789.34-41.284.79-72.134,32.966-72.2,74.126q-.283,160.3-.007,320.594c.065,42.558,32.705,74.488,75.336,74.473Q-3389.448,3083.936-3309.994,3083.961Z" transform="translate(-0.002 0.001)" fill="#5eb65c"/>
    <path id="Path_958" data-name="Path 958" d="M-3317.746,3026.229c-101.542-.29-184.71-83.689-184.9-184.347-.188-102.07,84.066-187.854,189.122-185.528,98.811,2.181,180.674,83.233,180.681,185.028C-3132.827,2943.01-3216.6,3026.526-3317.746,3026.229Zm154.207-185.028c-.862-87.218-70.358-153.932-154.048-153.954-85.334-.021-154.707,69.315-154.186,154.251.522,85.443,68.75,153.482,154.214,153.772C-3233.05,2995.552-3163.583,2926.063-3163.539,2841.2Z" transform="translate(8.094 8.081)" fill="#5eb65c"/>
    <path id="Path_959" data-name="Path 959" d="M-3267.2,2761.291c5.47-5.492,11.8-11.737,17.99-18.1,6.5-6.68,13.3-6.579,21.381.507,6.107,5.376,6.9,12.679,1.253,19.12-5.47,6.267-11.614,11.94-17.447,17.9-.9.906-1.724,1.884-2.094,2.282,4.941,11.448,9.571,22.482,14.563,33.343.688,1.485,3.217,2.905,4.963,2.992,6.833.34,13.693.043,20.547.174,9.593.167,15.758,6.89,15.758,16.976,0,10.4-5.325,15.867-15.577,15.947-5.376.051-10.759-.152-16.113.123-1.456.072-3.645,1.145-4.151,2.333-5.014,11.846-9.759,23.815-15.15,37.168,4.8,4.688,10.448,11.1,17.019,16.374,8.129,6.514,6.9,14.86,2.456,20.46-5.289,6.644-15.483,8.724-22.475,3.833-4.354-3.036-8.021-7.093-11.824-10.868-3.275-3.231-6.3-6.694-9.556-10.187a86.171,86.171,0,0,1-35.7,16.36c-1.159.239-2.55,2.833-2.608,4.376-.275,7.216-.058,14.439-.145,21.67-.108,9.81-6.151,16.389-15.41,16.976-9.144.58-16.439-5.282-17.353-14.918-.725-7.709-.217-15.534-.558-23.3-.065-1.652-1.029-4.195-2.268-4.731-11.8-5.1-23.757-9.854-37.189-15.331-4.311,4.543-9.658,10.4-15.259,16.012-7.064,7.107-15.28,8.527-22.6,4.209-9.73-5.738-11.194-14.933-3.282-23.033,4.521-4.623,9.636-8.658,14.476-12.961,1.384-1.225,2.768-2.435,3.818-3.362-4.043-8.129-7.97-15.969-11.846-23.837a23.909,23.909,0,0,1-1.282-3.666c-3.376-11.092-3.369-11.071-15.157-11.107-4.637-.007-9.281.188-13.875-.247-8.506-.811-13.788-7.68-13.671-17.25s4.629-15,13.643-15.563c7.383-.457,14.809-.072,22.207-.391,1.594-.065,4.028-1.138,4.572-2.4,5.129-11.81,9.918-23.75,15.28-36.784-4.746-4.637-10.7-10.172-16.353-16.019-7.767-8.042-6.528-20.555,2.348-25.866,6.752-4.05,14.381-2.695,20.482,3.935,5.26,5.724,10.281,11.657,15.063,17.12,8.651-4.209,17.033-8.3,25.431-12.36a18.739,18.739,0,0,1,3.137-1.108c10.143-2.8,10.136-2.8,10.1-13.491-.014-4.811-.152-9.636.087-14.439.515-10.382,7.151-16.911,16.838-16.824,9.629.094,16.128,6.876,16.316,17.244.123,7.224-.1,14.455.138,21.664.051,1.427,1.145,3.6,2.318,4.1C-3292.114,2751.343-3280.152,2756.074-3267.2,2761.291Zm-117.286,74.2c-.362,33.125,27.952,61.9,61.157,62.157,33.082.239,61.708-28.162,61.932-61.439.218-32.683-27.865-61.4-60.381-61.744C-3355.611,2774.108-3384.106,2801.835-3384.483,2835.489Z" transform="translate(13.335 13.319)" fill="#5eb65c"/>
  </g>
</svg>
