<svg xmlns="http://www.w3.org/2000/svg" width="398.273" height="420.491" viewBox="0 0 398.273 420.491">
  <g id="Group_2365" data-name="Group 2365" transform="translate(-0.001 -0.001)">
    <path id="Path_971" data-name="Path 971" d="M-2906.038,7248.633c-10.614,10.715-20.528,20.723-30.449,30.715-1.953,1.969-3.753,4.121-5.843,5.93-5.423,4.715-11.077,4.15-14.52-2.229a29.839,29.839,0,0,1-3.659-13.359c-.181-88.6-.419-177.187.059-265.793.209-37.139,9.1-72.094,32.134-102.26,16.653-21.793,37.875-33.58,66.329-33.293,68.868.74,137.771,1.375,206.609-.246,34.252-.795,55.656,15.041,70.776,42.924,18.995,35.027,23.767,73.047,21.7,112.18-1.352,25.7-5.857,50.963-17.824,73.957a165.883,165.883,0,0,1-23.081,33.277c-10.954,12.277-25.677,17.832-42.561,17.457-16.646-.363-33.335.287-49.98-.232-7.548-.232-9.35,2.473-9.3,9.6.311,36.934.166,73.854.094,110.791,0,3.572-.022,7.346-1.15,10.645-3.882,11.381-12.206,12.941-20.708,4.523-11.237-11.09-22.734-21.936-34.68-33.434-7.874,7.824-16.276,16.182-24.657,24.541-9.617,9.6-12.089,9.6-21.649-.131-6.233-6.334-12.719-12.436-18.583-19.088-4.614-5.236-8.034-6.291-13.153-.334-6.682,7.752-14.266,14.752-21.541,22.025-6.168,6.162-10.008,6.291-16.255.16C-2887.193,7267.865-2896.225,7258.537-2906.038,7248.633Zm181.026,12.32,2.141-.854V7212c0-54.145-.146-108.332.158-162.479.043-7.49-2.408-10.021-9.53-9.357a95.027,95.027,0,0,1-12.5.031c-5.156-.174-8.518-2.719-8.662-8.113-.167-5.83,3.3-8.562,8.858-8.75,4.989-.16,10-.232,15-.045s6.732-1.893,6.775-6.912c.071-10.281.281-20.578,1.272-30.789,3.406-34.809,12.148-67.725,35.359-95.258.766-.9,1.092-2.184,2.125-4.354h-9.161c-55.562,0-111.131.838-166.658-.361-27.188-.594-45.591,11.367-59.459,32.727-19.465,30.021-25.192,63.572-24.367,98.715.108,4.816,2.422,6.232,6.775,6.146,4.439-.1,9.227-.838,13.211.551,3.2,1.111,7.86,5.365,7.527,7.576-.484,3.24-4.461,6.51-7.693,8.592-2.01,1.271-5.416.4-8.192.418-11.584.1-11.606.072-11.606,11.266q-.055,99.158-.037,198.33c0,2.879.449,5.727.868,10.586,3.6-3.152,5.706-4.773,7.57-6.666,7.043-7.072,13.891-14.377,21.057-21.348,6.529-6.334,10.528-6.072,16.943.465,7.173,7.346,14.7,14.4,21.418,22.141,4.576,5.277,7.642,4.613,11.916-.133,6.305-7.012,13.153-13.551,19.762-20.289,8.922-9.082,11.931-9.037,21.165.131,8.388,8.316,16.892,16.572,25.28,24.76,9.118-8.795,17.918-17.18,26.581-25.713,7.911-7.795,11.642-7.854,19.335-.029Q-2738.436,7247.438-2725.011,7260.953Zm145.435-252.4c.151-23.256-3.008-46-10.789-67.928-6.458-18.207-14.7-35.488-30.905-47.377-13.189-9.7-28.013-10.76-40.876-.652-8.294,6.5-16.364,14.811-21.121,24.053-29.04,56.543-29.4,114.652-5.265,172.789,4.729,11.408,13.03,22.053,21.881,30.861,14.289,14.217,33.023,14.084,47.919.549a95.361,95.361,0,0,0,18.476-23.27C-2584.8,7070.016-2579.9,7039.762-2579.576,7008.553Zm-123.909,92.916-1.851.3c0,8.188-.153,16.371.144,24.557.066,1.4,1.974,3.834,3.153,3.92,5.763.42,11.563.188,18.54.188Z" transform="translate(2960.73 -6868.069)" fill="#5eb65c"/>
    <path id="Path_972" data-name="Path 972" d="M-2894.629,6932.208c-4.135-.217-8.6.434-12.285-.971-2.726-1.055-6.284-4.916-6.125-7.316.195-2.965,3.586-7.811,6.074-8.127a99.366,99.366,0,0,1,24.7-.014c2.48.316,6.147,5.363,6.017,8.082s-3.913,6.35-6.9,7.52c-3.355,1.3-7.607.307-11.476.307Z" transform="translate(3070.73 -6759.777)" fill="#5eb65c"/>
    <path id="Path_973" data-name="Path 973" d="M-2925.657,6931.78c-3.6,0-7.658,1.041-10.687-.291-2.986-1.316-6.739-4.959-6.819-7.693s3.659-7.664,6.211-8a90.913,90.913,0,0,1,24.021-.029c2.573.332,6.349,5.191,6.3,7.91s-3.725,6.666-6.661,7.766C-2916.95,6932.792-2921.5,6931.767-2925.657,6931.78Z" transform="translate(3001.253 -6759.85)" fill="#5eb65c"/>
    <path id="Path_974" data-name="Path 974" d="M-2908.845,6915.36c3.586-.014,7.628-1.055,10.644.275,2.972,1.3,6.985,5.162,6.768,7.564-.29,3.08-4.042,7.854-6.848,8.27a80.011,80.011,0,0,1-23.088,0c-2.7-.361-6.942-5.09-6.718-7.461.3-3.08,3.855-7.059,6.949-8.314C-2917.58,6914.261-2912.989,6915.36-2908.845,6915.36Z" transform="translate(3036.014 -6759.912)" fill="#5eb65c"/>
    <path id="Path_975" data-name="Path 975" d="M-2789.285,6956.586c-.361,21.2-3.3,41.1-18.034,57.082-15.987,17.352-39.574,16.7-54.231-1.795-16.118-20.334-18-44.268-15.351-68.852,1.576-14.551,6.059-28.215,15.77-39.641,14.9-17.572,38.288-18.166,53.842-1.186C-2793.052,6917.727-2789.957,6937.033-2789.285,6956.586Zm-71.094.766c-.232,14.7,1.931,28.85,10.405,41.244,9.305,13.6,23.059,13.609,32.77.379,14.281-19.453,14.4-62.143.209-81.652-10.167-13.971-24.281-13.609-33.674,1.057C-2858.267,6930.221-2860.523,6943.512-2860.378,6957.352Z" transform="translate(3151.819 -6817.891)" fill="#5eb65c"/>
  </g>
</svg>
