<svg xmlns="http://www.w3.org/2000/svg" width="323.228" height="629.727" viewBox="0 0 323.228 629.727">
  <g id="Group_2366" data-name="Group 2366" transform="translate(-0.001)">
    <path id="Path_967" data-name="Path 967" d="M-2462.964,6546.191c-15.749-49.256-16.031-92.453-1.186-150.836l-16.472-31.107c-123.474-77.572-156.606-236.247-67.941-349.482,59.966-76.6,165.58-76,224.476,1.243,62.822,82.4,65.859,203.854,3.376,285-19.408,25.22-47.869,43.457-74.434,66.871l-13.681,28.706a259.525,259.525,0,0,1-1.649,150.433l15.314,24.671c-9.118,5.034-17.736,12.45-27.47,14.461-11.013,2.287-23.377,1.26-34.463-1.285-7.679-1.75-19.349-7.9-19.964-13.162C-2477.853,6564.877-2469.429,6556.968-2462.964,6546.191Zm156.584-384.031c-.889-47.449-13.8-90.834-46.285-126.945-47.354-52.686-123.409-51.759-169.708,1.764-60.349,69.778-59.56,181.857,1.779,250.666,45.46,51.022,122.686,51.744,166.837,1.576C-2321.861,6252.98-2307.355,6210.3-2306.38,6162.16Z" transform="translate(2598.608 -5957.694)" fill="#5eb65c"/>
    <path id="Path_968" data-name="Path 968" d="M-2436.1,5972.9c-6.522,8.083-9.364,12.321-12.9,15.88-41.5,41.663-82.91,83.4-124.907,124.543-4.31,4.223-12.162,4.816-18.374,7.1,2.155-6.638,2.409-15.141,6.775-19.609,41.1-42.055,82.83-83.488,124.676-124.82,3.7-3.643,9.3-6.16,14.433-7.288C-2443.493,5968.043-2439.726,5971.282-2436.1,5972.9Z" transform="translate(2660.846 -5850.296)" fill="#5eb65c"/>
    <path id="Path_969" data-name="Path 969" d="M-2488.361,5973.029c-2.8,4.253-4.592,8.257-7.484,11.18-25.815,26.031-51.514,52.147-78.036,77.412-4.216,4.021-12.33,3.948-18.642,5.757,1.807-5.9,1.9-13.437,5.706-17.412,25.907-26.973,52.481-53.293,79.207-79.481,3.217-3.152,8.438-4.947,12.994-5.655C-2493.09,5964.6-2490.748,5969.762-2488.361,5973.029Z" transform="translate(2658.426 -5887.641)" fill="#5eb65c"/>
  </g>
</svg>
