<svg xmlns="http://www.w3.org/2000/svg" width="449.838" height="618.412" viewBox="0 0 449.838 618.412">
  <path id="Path_1052" data-name="Path 1052" d="M-3463.534,4496.092c-1.852,8-3.673,15.437-5.271,22.915-3.095,14.367-6.276,28.757-9.067,43.152-3.188,16.509-6.117,33.083-8.937,49.647-3.478,20.369-6.746,40.77-10.051,61.146-2.155,13.226-4.187,26.487-6.3,39.712-.491,3.117-1.749,4.021-4.916,3.281q-32.9-7.449-65.772-14.953c-5.142-1.185-5.409-1.482-4.549-6.521,4.389-25.713,8.6-51.449,13.421-77.082q5.814-30.924,12.914-61.605c5.091-22.157,10.334-44.3,16.487-66.194,7.946-28.286,16.594-56.377,25.489-84.362,5.8-18.235,12.732-36.111,18.88-54.238,1.547-4.576,4.952-7.072,8.352-9.746a135.63,135.63,0,0,1,44.238-23.531c8.215-2.632,16.29-2.053,24.672.544,18.865,5.913,38.388,8.771,58.063,10.3,4.9.382,9.928-.774,14.9-1.368,15.149-1.787,30.283-4.145,44.7-9.067,12-4.087,22.567-1.389,33.515,3.087,10.167,4.173,19.921,8.988,28.808,15.474a141.083,141.083,0,0,1,11.643,9.373c1.258,1.149,1.916,3.115,2.487,4.822,9.639,28.113,19.762,56.075,28.655,84.45,7.977,25.321,15,51,21.679,76.711,6.254,24.137,11.771,48.478,17.1,72.844,4.44,20.233,8.308,40.631,12.077,61.008,3.05,16.616,5.553,33.3,8.352,49.98.426,2.486-.29,4.021-2.908,4.628-8.706,1.944-17.4,4-26.089,5.965q-20.488,4.688-40.956,9.284c-4.071.934-5.054.378-5.69-3.729-2.936-18.477-5.684-37.017-8.793-55.5q-6.617-39.645-13.667-79.192c-2.335-13.1-5.09-26.126-7.794-39.163-2.885-13.846-5.951-27.681-8.937-41.513l-.694-.042c-1.027,3.607-2.1,7.193-3.081,10.809q-3.829,13.929-7.585,27.854c-1.786,6.651-3.521,13.355-5.235,20.036a3.614,3.614,0,0,0,.087,2.055c4.541,11.881,4.411,24.105,3.036,36.528-.268,2.625,1.121,5.533,2.083,8.193,7.76,21.549,15.864,42.988,23.355,64.652,10.421,30.088,19.394,60.645,27.507,91.426q10.466,39.719,20.457,79.512c5.285,21.064,10.231,42.177,15.321,63.293.8,3.392.246,4.628-3,5.465-15.829,4.107-31.6,8.446-47.536,12.033-5.747,1.28-10.839,3.833-16.255,5.712-10.563,3.673-21.324,4.193-32.388,2.718-4.057-.521-8.344.458-12.5.906a657.63,657.63,0,0,1-94.044,3.114c-20.652-.867-41.324-2.291-61.876-4.454a508.65,508.65,0,0,1-84.941-16.377c-4.027-1.149-8.048-2.357-12.067-3.565-3.377-1.042-4.049-2.184-3.2-5.66q9.2-38,18.469-76c3.6-14.593,7.216-29.175,11.142-43.726,5.856-21.577,11.779-43.152,18.114-64.622,5.661-19.111,11.562-38.172,18.033-57.036,6.891-20.095,14.556-39.95,21.975-59.857a14.907,14.907,0,0,0,.969-7.643c-1.691-11.637-1.012-23.06,3-34.211a6.289,6.289,0,0,0,.044-3.549q-7.43-27.976-15.033-55.969A22.869,22.869,0,0,0-3463.534,4496.092Zm114,100.4c-5.121,0-9.921-.108-14.729.028-26.176.711-52.366,1.534-78.557,2.279a2.5,2.5,0,0,0-2.711,1.837c-2.033,5.493-4.347,10.9-6.335,16.405-6.263,17.332-12.728,34.636-18.562,52.127-5.814,17.414-11.216,34.962-16.356,52.612-6.248,21.4-12.178,42.9-17.969,64.449-4.367,16.292-8.388,32.67-12.431,49.07-5.061,20.543-9.979,41.135-14.953,61.692-.325,1.315-.549,2.662-.816,3.979,1.967.649,3.614,1.257,5.286,1.749a518.351,518.351,0,0,0,83.184,17.051c15.813,1.979,31.744,3.261,47.644,4.25a710.551,710.551,0,0,0,112.946-2.271c2.756-.274,5.474-.577,8.476-.9-10.079-45.423-20.059-90.394-30.052-135.382-.84,0-1.374-.059-1.88,0q-23.776.984-47.521,1.993c-3.753.167-4.707-.736-4.628-4.482,0-.514.028-1.069.058-1.59q1.605-30.185,3.2-60.379,2.81-52.126,5.61-104.219C-3350.276,4610.13-3349.908,4603.513-3349.531,4596.492Zm-159.5,112.954c.231-.816.419-1.281.506-1.8,2.684-16.921,5.329-33.878,8.049-50.82,2.639-16.318,5.234-32.677,8.12-48.967,3.528-19.821,7.129-39.625,11.149-59.358,3.7-18.266,7.99-36.393,12.018-54.606.875-3.979,2.561-8.041,2.38-12.02-.737-15.04-1.866-30.073-3.226-45.075a355.544,355.544,0,0,0-12.3-64.956c-1.331-4.651-2.894-9.228-4.557-14.542-40.97,109.946-67.667,222.633-85.476,337.777C-3551.092,4699.895-3530.217,4704.63-3509.031,4709.446Zm307.263,0c21.266-4.816,42.279-9.573,63.5-14.367-18.078-115.29-44.8-227.939-85.657-337.581-.368.932-.535,1.316-.672,1.7-8.815,26.372-13.884,53.509-16.509,81.109-1.287,13.5-1.9,27.116-2.77,40.636a14.9,14.9,0,0,0,.368,4.159c3.413,15.366,7.015,30.681,10.289,46.068,3.522,16.509,6.9,33.045,10.008,49.641,3.262,17.477,6.241,35,9.148,52.525,3.362,20.29,6.529,40.607,9.79,60.918C-3203.481,4699.207-3202.643,4704.2-3201.768,4709.446ZM-3483.455,4348.9a318.919,318.919,0,0,1,17.194,69.28c2.394,18.683,3.6,37.483,5.315,56.241.34,3.565.181,7.238,1.026,10.68,2.364,9.617,5.148,19.1,7.745,28.649,3.456,12.646,6.912,25.265,10.282,37.976a2.69,2.69,0,0,0,2.632,2.329c8.952.99,17.889,2.414,26.892,3.066,16.688,1.235,33.406,2.075,50.117,3.044,2.141.129,4.288.021,6.659.021-.2-1.25-.26-2.055-.427-2.784q-5.682-25.509-11.359-50.971c-3.341-15.134-6.616-30.282-9.972-45.388-.875-4-1.192-8.36-3.036-11.888-5.409-10.3-11.447-20.269-17.254-30.341-9.718-16.849-19.487-33.639-29.176-50.471q-10.923-18.971-21.715-38.058c-.781-1.4-1.54-1.924-3.108-1.1-3.927,2.111-8.077,3.824-11.838,6.219C-3470.23,4339.709-3476.773,4344.358-3483.455,4348.9Zm160.135,202.06a33.27,33.27,0,0,1,3.666-.521c12.271,0,24.55-.108,36.819.109,1.815.028,3.913,1.365,5.293,2.712,1.021.99,1.729,1.482,3.031,1.229a18.282,18.282,0,0,1,3.123-.413c1.722-.021,2.437-.976,2.849-2.51,1.612-6.16,3.3-12.321,4.954-18.488,3.109-11.548,6.3-23.081,9.27-34.694,1.641-6.413,3.514-12.835,4.2-19.387,2.083-20.13,3.052-40.361,5.561-60.435a306.455,306.455,0,0,1,16.016-66.452c.781-2.142.261-3.347-1.337-4.663a134.076,134.076,0,0,0-28.765-18.092c-1.635-.746-2.523-.45-3.4,1.041-5.792,9.962-11.664,19.9-17.455,29.862-7.209,12.409-14.311,24.876-21.534,37.274q-20.933,35.949-41.889,71.913a4.7,4.7,0,0,0-.534,3.117c3.694,14.756,7.49,29.458,11.272,44.215C-3329.263,4528.124-3326.306,4539.426-3323.32,4550.959Zm25.858,50.986c2.111,8.271,4.179,16.218,6.182,24.179q9.523,37.919,19,75.882,5.152,20.565,10.318,41.18c.723,2.885.044,3.969-2.863,4.767-1.915.518-3.847,1.018-5.813,1.56,14.194,54.817,28.338,109.447,42.634,164.576,16.761-4.194,33.421-8.381,50.356-12.626-.891-3.5-1.628-6.268-2.3-9.066-5.61-23.191-11.033-46.445-16.905-69.583-6.616-26.091-13.341-52.164-20.594-78.058-6.312-22.561-12.979-45.055-20.362-67.312-8.149-24.526-17.347-48.772-25.944-73.17-1.374-3.912-3.146-6.4-7.723-5.639-1,.194-2.118-.348-3.116-.2a13.083,13.083,0,0,0-3.088,1.188c-1.771.76-3.5,2.1-5.321,2.212C-3287.693,4602.169-3292.436,4601.945-3297.461,4601.945ZM-3416.4,4324.669q31.011,55.7,62.244,111.833c20.188-37.629,40.182-74.84,60.32-112.354a8,8,0,0,0-1.229.194,265.409,265.409,0,0,1-57.334,9.988c-9.581.518-19.371-1.173-28.938-2.684C-3393.054,4329.766-3404.624,4327.048-3416.4,4324.669Zm63.148,456.558c15.741-.6,31.106-1.229,46.667-1.836-.527-4.382-1-8.357-1.532-12.329-2.732-20.506-5.518-40.992-8.235-61.463q-3.505-26.29-6.936-52.612c-1.937-14.766-3.8-29.521-5.827-44.28a11.179,11.179,0,0,1,1.063-6.537,19.457,19.457,0,0,0,2.032-7.173c.245-7.882.079-15.808.051-23.661-.007-.663-.123-1.292-.217-2.219-1.562.99-2.864,1.729-4.071,2.573-7.745,5.533-13,12.186-13.153,22.532-.181,14.158-1.382,28.316-2.147,42.446q-1.736,32.049-3.457,64.073-1.475,27.451-2.942,54.9C-3352.4,4764.031-3352.815,4772.436-3353.248,4781.227Zm50.131-23.854c0,.715-.051,1.236,0,1.75a425.626,425.626,0,0,0,7.767,43.891c4.822,20.516,9.2,41.146,13.774,61.724q6.021,27.028,11.953,54.06c.3,1.424.795,2.052,2.263,2.3a54.672,54.672,0,0,0,31.281-4.216c1.425-.659,1.931-1.367,1.489-3.044-1.409-5.416-2.545-10.9-3.927-16.321q-7.484-29.08-15.047-58.157-11.379-43.5-22.878-87a2.277,2.277,0,0,0-1.837-1.187C-3286.521,4753.156-3294.722,4755.261-3303.117,4757.372Zm-42-179.42a46.309,46.309,0,0,1,16.516-14.418c1.714-.9,1.794-1.837,1.346-3.535-2.487-9.207-4.853-18.432-7.209-27.66q-10.781-42.344-21.533-84.645a18.067,18.067,0,0,0-1.317-4.235c-5.328-9.728-10.744-19.387-16.124-29.084q-16.726-30.022-33.465-60.1-8.624-15.457-17.3-30.9a3.014,3.014,0,0,0-2.147-1.358,41.645,41.645,0,0,0-17.571,3.99c.354.774.594,1.454.919,2.034q5.673,9.759,11.337,19.516c6.871,11.888,13.689,23.8,20.552,35.712,10.238,17.744,20.564,35.433,30.665,53.255,2.9,5.121,6.262,9.943,7.557,16.025,6.407,29.935,13.189,59.8,19.842,89.686C-3350.458,4553.944-3347.854,4565.638-3345.122,4577.952Zm76.8,164.661c-11.872-47.152-23.63-93.87-35.417-140.668h-14.179a5.266,5.266,0,0,0-5.17,6.108c1.366,10.161,2.755,20.29,4.092,30.451,2,15.277,3.956,30.557,5.974,45.836q3.306,25.143,6.681,50.255c.723,5.409,1.518,10.832,2.343,16.616C-3291.995,4748.306-3280.317,4745.515-3268.322,4742.613Zm-176.064-149.86c8.5-.389,16.7-.882,24.925-1.076,22.5-.521,44.99-.934,67.479-1.368,2.964-.021,3.26-.3,2.632-3.173-1.4-6.219-2.944-12.43-4.253-18.669-.39-1.874-1.25-2.25-3.016-2.337-17.838-.847-35.7-1.555-53.508-2.739-9.5-.631-19-1.837-28.438-3.263-3.009-.434-3.8.559-4.462,2.937a68.428,68.428,0,0,0-2.054,24.2C-3444.929,4589.08-3444.625,4590.854-3444.386,4592.753Zm178-266.717c-6.3-1.28-12.163-2.538-18.063-3.638a2.721,2.721,0,0,0-2.118,1.28c-4.548,8.271-9,16.631-13.464,24.953-6.32,11.8-12.6,23.623-18.981,35.438-5.986,11.051-12.134,22.042-18.142,33.1-3.413,6.291-6.537,12.755-10.059,18.974-2.53,4.482-4.129,8.735-1.938,13.963,1.519,3.608,2.054,7.673,3.2,12.235C-3319.3,4416.681-3293.022,4371.654-3266.39,4326.036Zm-16.378,269.748V4556.6h-37.16v39.185Zm16.392-2.986c.3-3.3.709-6.4.832-9.552a59.455,59.455,0,0,0-2.791-21.716c-.2-.649-1.07-1.583-1.562-1.562-2.147.159-4.259.631-6.421.984v31.192C-3273.065,4592.364-3269.869,4592.58-3266.376,4592.8Z" transform="translate(3580.19 -4314.531)" fill="#5eb65c" stroke="#5eb65c" stroke-width="3"/>
</svg>
