<svg id="Group_2370" data-name="Group 2370" xmlns="http://www.w3.org/2000/svg" width="384.375" height="339.339" viewBox="0 0 384.375 339.339">
  <path id="Path_983" data-name="Path 983" d="M-1699.433-846.845h-350.431v-4.375q0-103.51.064-207.019a8.97,8.97,0,0,0-3.6-7.621c-8.3-7.1-12.895-15.9-13.3-26.184-.244-6.133-.218-12.279-.109-18.415a9.111,9.111,0,0,1,1.386-4.5c14.293-22.867,28.715-45.68,43-68.557,1.257-2.011,2.72-2.659,5.241-2.659q142.459.077,284.9-.006c2.72,0,4.183.722,5.523,2.861,14.133,22.672,28.42,45.263,42.566,67.929a10.331,10.331,0,0,1,1.675,5.52c-.308,8.68-.231,17.443-1.655,26-1.238,7.4-6.152,13.639-12.478,18.707a6.585,6.585,0,0,0-2.842,5.674q.087,100.743.058,201.489ZM-1984.9-1070.769a46.547,46.547,0,0,1-20.933,14.072,49.843,49.843,0,0,1-26.56,1.431v193.4h25.238v-161.807h98.4V-861.9h191.876v-193.5a48.046,48.046,0,0,1-26.463-1.257c-8.558-2.723-15.288-7.689-21.132-14.021-9.649,10.8-21.844,16.584-36.946,16.529-15.05-.048-27.124-6.047-36.452-16.439-16.661,19.528-51.553,24.029-73.776.1-9.148,10.409-21.19,16.228-36.1,16.333C-1962.865-1054.05-1975.106-1059.782-1984.9-1070.769Zm58.726,208.909v-146.812H-1989.7V-861.86Zm78.658-256.533c-2.194-17.636-4.356-35-6.537-52.477h-41.186c-2.188,17.559-4.363,34.912-6.55,52.477Zm-71.531.087c2.213-17.7,4.388-35.066,6.621-52.8-13.183,0-25.944-.067-38.684.119-1.02.013-2.508,1.6-2.932,2.714-5.985,15.528-11.823,31.1-17.674,46.659-.385,1.02-.648,2.069-1.039,3.307Zm82.155-52.663c2.245,17.777,4.439,35.15,6.634,52.542h53.889c-6.7-17.748-13.254-35.14-19.817-52.542Zm-134.247-.128c-12.94,0-25.3-.071-37.658.115-1.168.016-2.714,1.443-3.413,2.544-10.008,15.714-19.881,31.474-29.773,47.239a27.579,27.579,0,0,0-1.264,2.544c.507.228.738.417.962.417,16.256.032,32.532,0,48.789.122,2.528.019,2.932-1.334,3.5-2.845q5.966-15.868,11.926-31.746C-1975.805-1158.72-1973.534-1164.728-1971.135-1171.1Zm193.306-.013a12.415,12.415,0,0,0,.333,1.828c6.12,16.269,12.3,32.522,18.329,48.824.808,2.178,2.271,2.319,4.363,2.313,14.864-.048,29.735-.019,44.593-.032,1.322,0,2.63-.115,4.439-.2-.917-1.591-1.552-2.775-2.271-3.923-8.693-13.822-17.764-27.464-25.892-41.539-3.3-5.7-6.973-7.926-14.248-7.432C-1757.947-1170.614-1767.8-1171.111-1777.828-1171.111Zm-51.047,68.134c-2.823,12.882,2.123,24.173,13.023,30.085a31.2,31.2,0,0,0,31.7-1.408c9.437-6.3,13.915-18.521,10.5-28.677Zm-73.494.013c-2.791,12.9,2.213,24.285,13.055,30.082a31.156,31.156,0,0,0,32.031-1.646c9.155-6.293,13.594-18.749,10.143-28.436Zm-73.712.006c-1.411,12.067.4,22.928,12.978,29.844,10.123,5.572,20.683,5.4,30.633-.395,12.01-7,13.626-17.674,12.3-29.45Zm-17.527.083h-56.179c0,3.747-.218,7.185.058,10.6.783,10.178,8.821,19.012,19.759,21.976,11.227,3.038,23.333-.395,30.627-8.584C-1992.985-1086.011-1992.94-1094.236-1993.608-1102.874Zm237.989-.125c-1.469,12.651.706,23.718,13.921,30.386,10.483,5.293,21.151,4.683,30.928-1.658,11.118-7.214,12.324-17.559,11-28.728Z" transform="translate(2066.886 1186.184)" fill="#5eb65c"/>
  <path id="Path_984" data-name="Path 984" d="M-1551.648-675.861h-121.84V-783.229h121.84Zm-107.588-14.377h93.042v-78.8h-93.042Z" transform="translate(1870.404 949.58)" fill="#5eb65c"/>
</svg>
