<svg id="Layer_1" data-name="Layer 1" xmlns="http://www.w3.org/2000/svg" viewBox="0 0 236 267.25"><defs><style>.cls-1,.cls-2{isolation:isolate;}.cls-2{font-size:155.02px;font-family:Cairo;font-weight:700;}.cls-2,.cls-3{fill:#5eb65c;}</style></defs><title>icon2_1</title><g id="_24" data-name=" 24" class="cls-1"><text class="cls-2" transform="translate(49.69 177.38)">24</text></g><path id="Path_1054" data-name="Path 1054" class="cls-3" d="M193.68,81.3c4.68-6.19,9.35-12.39,14.27-18.91l16,56.3H165.5l14.25-18.92C143.47,80.7,85.05,83.52,48,127.84A109,109,0,0,0,57,277.5c23.49,21.77,51.45,31.81,83.43,29.29s57.85-16.88,78-41.89c5.88,4.56,11.72,9.07,17.54,13.6-33.19,44.9-100.87,67.19-161.65,38-62.61-30.13-91.17-104.73-64.18-169C25.09,111.89,50.94,87.06,87.28,74S159.16,64,193.68,81.3Z" transform="translate(0 -62.39)"/></svg>