<svg id="Group_2369" data-name="Group 2369" xmlns="http://www.w3.org/2000/svg" width="404.988" height="380.393" viewBox="0 0 404.988 380.393">
  <path id="Path_979" data-name="Path 979" d="M-3254.246-2544.817c4.318-.244,6.935-.539,9.54-.539,112.191-.122,224.376-.436,336.554-.25,45.177.077,72.513,45.228,51.932,85.292-10.431,20.336-28.118,30.267-50.61,31.4-13.119.654-28.657-4-38.742,1.6-9.238,5.145-11.406,21.729-18.823,31.679-11.811,15.878-25.4,30.441-38.254,45.562,8.192,0,18.367.186,28.536-.045,11.252-.256,13.658,6.858,13.549,15.923-.109,8.52-2.232,14.788-13.158,14.762q-119.527-.365-239.067.045c-11.5.039-13.812-6.582-13.825-15.512-.013-9.18,3.066-15.807,14.21-15.294,9.649.456,19.31.1,31.775.1C-3247.208-2400.062-3252.495-2470.9-3254.246-2544.817Zm24.3,23.506c1.591,37.639,5.331,73.75,23.917,106.039,7.743,13.446,17.61,26.97,29.684,36.394,39.583,30.922,84.766,32.077,131.084,18.951,25.571-7.249,45.01-23.679,59.04-46,22.088-35.149,27.6-74.4,28.619-115.379Zm289.646,68.317c12.767,0,25.552,1.206,37.992-.3,16.378-1.982,28.586-16.873,29.279-32.827.687-15.686-9.848-31.4-25.6-34.3-11.021-2.021-22.717-.392-34.04-.392C-2935.225-2498.14-2937.708-2476.02-2940.3-2452.995Z" transform="translate(3254.246 2699.775)" fill="#5eb65c"/>
  <path id="Path_980" data-name="Path 980" d="M-2852.031-2931.4c4.76-4.311,9.938-8.25,14.2-13.017,7.589-8.487,7.005-14.107-1.854-21.485-3.542-2.951-7.609-5.273-11.516-7.756-27.535-17.514-35.092-40.551-22.7-70.723a112.6,112.6,0,0,1,10.591-19.259c5.12-7.692,15.153-9.629,21.081-4.022,6.729,6.377,6.293,13.318.256,20.452-4.708,5.575-9.43,11.362-12.882,17.739-8.583,15.865-6.454,28.221,6.216,40.961,5.19,5.2,10.874,9.931,15.846,15.313,10.874,11.753,10.213,22.794-1.97,32.827-4.888,4.029-10.393,7.313-15.608,10.938Z" transform="translate(2989.573 3070.885)" fill="#5eb65c"/>
  <path id="Path_981" data-name="Path 981" d="M-2708.194-2872.707c14.448-17.09,14.717-18.143-2.746-28.028-28.612-16.186-22.736-48.551-7.73-66.9,5.145-6.281,12.08-6.813,18.508-1.61,6.537,5.292,6.152,11.939,2.162,18.656-.77,1.283-2.136,2.207-3.169,3.336-14.678,16.09-14.473,23.589,1.1,39.024C-2684.63-2892.935-2686.388-2882.9-2708.194-2872.707Z" transform="translate(2884.645 3001.569)" fill="#5eb65c"/>
  <path id="Path_982" data-name="Path 982" d="M-3098.07-2392.388c3.4-5.331,6.454-14.9,10.194-15.166,10.707-.77,7.146,9.4,7.769,15.641,2.983,30.088,10.258,57.86,37.17,76.439,2.47,1.693,2.418,7.012,3.554,10.649-4.408.43-10,2.816-13.03.988-23.044-13.954-33.821-36.311-39.557-61.542-1.867-8.25-2.528-16.763-3.734-25.167C-3096.5-2391.169-3097.281-2391.779-3098.07-2392.388Z" transform="translate(3143.894 2602.217)" fill="#5eb65c"/>
</svg>
