<svg xmlns="http://www.w3.org/2000/svg" width="457.723" height="457.509" viewBox="0 0 457.723 457.509">
  <path id="Path_1055" data-name="Path 1055" d="M-5616.648-548.6v-26.818c.692-5.872,1.271-11.761,2.1-17.615,6.4-45.592,24.558-85.893,55.146-120.305,35.438-39.863,79.474-64.752,132.117-73.97,8.622-1.509,17.36-2.367,26.047-3.528h26.815a31.251,31.251,0,0,0,3.888.757,222.015,222.015,0,0,1,54.569,10.783c108.867,35.822,174.766,148.058,152.838,260.478-9.559,49.045-32.461,90.907-69.323,124.573-53.029,48.457-115.759,67.786-186.892,58.771-45.2-5.732-85.016-24.288-119.158-54.447-40.237-35.518-65.4-79.712-74.636-132.714C-5614.634-531.238-5615.48-539.949-5616.648-548.6Zm354.78,135.237c51.964-41.692,86.876-122.584,60.6-206.849a195.3,195.3,0,0,0-203.006-136.55,195.43,195.43,0,0,0-176.28,162.417c-14.165,83.649,28.163,158.962,84.631,194.415V-404.5c0-20.258-.025-40.516.038-60.774a26.539,26.539,0,0,1,.976-6.555c1.835-7.2,4.208-14.277,5.633-21.547,2.348-11.862,3.721-23.822.615-35.854-1.231-4.73-3.605-7.686-8.121-10.218-6.249-3.492-12.484-7.886-17.065-13.293-21.645-25.5-24.737-64.625-8.07-93.726,19.772-34.547,64.358-36.061,85.08-2.141,15.756,25.806,16.359,53.348,3.58,80.74-6.262,13.4-15.782,24.09-29.9,29.982a6.734,6.734,0,0,0-3.49,3.681c-1.4,4.5-2.925,9.118-3.271,13.774-1.271,16.452,2.45,32.224,7.313,47.8a27.152,27.152,0,0,1,1.3,7.825q.154,40-.013,79.991c-.014,3.06.962,4.253,3.785,5.336a192.3,192.3,0,0,0,50.219,11.931c7.788.759,15.641.852,23.878,1.267v-5.665c0-28.6.077-57.2-.09-85.8-.039-7.654.564-15.089,2.874-22.439a91.111,91.111,0,0,0,3.182-14.351c3.016-20.882-3.079-38.813-18.04-53.659-9.866-9.779-14.126-21.467-12.458-35.246q2.848-23.935,5.9-47.857c1.372-11.065,2.822-22.122,4.26-33.22h8.417c-1.027,32.551-2.041,64.78-3.067,97.072h11.009V-664.5h9.071v97.082h9.1v-97.12h8.34v96.721h10.919c-.911-32.377-1.822-64.464-2.708-96.7h9.046a12.786,12.786,0,0,1,.5,1.99c3.08,26.616,6.069,53.241,9.226,79.845,1.54,12.837-2.4,23.6-10.894,33.162a87.18,87.18,0,0,0-11.137,15c-8.609,15.522-8.3,32.194-5.273,49.119,1.321,7.591,2.977,15.26,3.093,22.914.346,29.191.141,58.389.141,87.587v4.962a200.039,200.039,0,0,0,55.095-19.121c2.733-1.437,3.8-2.964,3.76-6.115-.192-12.13-1.527-24.41,3.579-36.037a12.491,12.491,0,0,0,.616-3.054c2.092-15.857-2.912-28.2-18.4-33.355-3.054-1.014-2.655-3.028-2.63-5.227.359-30.989,1.488-61.937,5.389-92.713,2.951-23.5,7.146-46.776,15.217-69.146,4.414-12.207,9.56-24.059,18.694-33.711,2.426-2.545,4.876-3.732,8.841-2.319Zm-248.209-219.877c-17.783,22.446-7.429,73.215,17.693,83.457C-5510.295-575.778-5513.593-603.787-5510.077-633.245Z" transform="translate(5616.648 790.841)" fill="#5eb65c"/>
</svg>
