<svg id="Group_2356" data-name="Group 2356" xmlns="http://www.w3.org/2000/svg" width="318.789" height="505.151" viewBox="0 0 318.789 505.151">
  <g id="Group_2278" data-name="Group 2278" transform="translate(0 0)">
    <g id="Group_2277" data-name="Group 2277" transform="translate(0 0)">
      <path id="Path_924" data-name="Path 924" d="M-170.587-138H-470.624c-5.177,0-9.376,3.77-9.376,8.419V341.894c0,4.649,4.2,8.419,9.376,8.419h28.13v8.419c0,4.649,4.2,8.419,9.376,8.419h37.5c5.177,0,9.376-3.77,9.376-8.419v-8.419h131.266v8.419c0,4.649,4.2,8.419,9.376,8.419h37.5c5.177,0,9.375-3.77,9.375-8.419v-8.419h28.128c5.178,0,9.376-3.77,9.376-8.419V-129.581C-161.21-134.23-165.408-138-170.587-138Zm-9.376,471.475H-461.247V30.384h281.284Zm0-319.929H-461.247V-121.162h281.284Z" transform="translate(480 138)" fill="#5eb65c"/>
    </g>
  </g>
  <g id="Group_2280" data-name="Group 2280" transform="translate(37.505 56.257)">
    <g id="Group_2279" data-name="Group 2279" transform="translate(0)">
      <path id="Path_925" data-name="Path 925" d="M-438.623-90A9.377,9.377,0,0,0-448-80.624v56.257a9.377,9.377,0,0,0,9.377,9.376,9.378,9.378,0,0,0,9.376-9.376V-80.624A9.378,9.378,0,0,0-438.623-90Z" transform="translate(448 90)" fill="#5eb65c"/>
    </g>
  </g>
  <g id="Group_2282" data-name="Group 2282" transform="translate(37.505 181.983)">
    <g id="Group_2281" data-name="Group 2281" transform="translate(0 0)">
      <path id="Path_926" data-name="Path 926" d="M-438.623,38A9.377,9.377,0,0,0-448,47.376v56.257a9.377,9.377,0,0,0,9.377,9.376,9.377,9.377,0,0,0,9.376-9.376V47.376A9.378,9.378,0,0,0-438.623,38Z" transform="translate(448 -38)" fill="#5eb65c"/>
    </g>
  </g>
</svg>
