<svg id="Group_2357" data-name="Group 2357" xmlns="http://www.w3.org/2000/svg" width="356.125" height="357.914" viewBox="0 0 356.125 357.914">
  <path id="Path_929" data-name="Path 929" d="M-162.826,132.809a5.264,5.264,0,0,0,5.074-3.9L-143.674,77h27.538a5.27,5.27,0,0,0,5.26-5.28V54.53A41.473,41.473,0,0,0-152.2,13H-401.636A65.6,65.6,0,0,0-467,78.693V305.221a65.6,65.6,0,0,0,65.364,65.693h285.5a5.27,5.27,0,0,0,5.26-5.28V312.2a5.27,5.27,0,0,0-5.254-5.286h-67.625a51.094,51.094,0,0,0,18.4-28.12h1.735a20.909,20.909,0,0,0,20.842-20.975,20.909,20.909,0,0,0-20.842-20.948h-.167V220.651a5.272,5.272,0,0,0-5.258-5.286h-91.084a5.269,5.269,0,0,0-5.259,5.28v45.795a51.025,51.025,0,0,0,19.974,40.473h-62.366V77H-285.5l14.077,51.911a5.265,5.265,0,0,0,5.075,3.9h28.472v27.948a5.27,5.27,0,0,0,5.254,5.286h12.779v12.71a5.272,5.272,0,0,0,5.259,5.286,5.273,5.273,0,0,0,5.259-5.286h0v-12.71h12.772a5.269,5.269,0,0,0,5.259-5.28v-8.07h40.351a5.273,5.273,0,0,0,5.26-5.286,5.273,5.273,0,0,0-5.26-5.286H-191.3v-9.312Zm9.545,125.022a10.359,10.359,0,0,1-10.326,10.39h-.268c.018-.6.09-1.181.09-1.782v-19h.166a10.376,10.376,0,0,1,10.338,10.39Zm-101.593-31.9H-174.3V236.87h-80.571Zm0,40.5v-19H-174.3v19a40.387,40.387,0,0,1-40.3,40.474A40.388,40.388,0,0,1-254.874,266.439ZM-313.044,66.43a5.276,5.276,0,0,0-5.259,5.286V312.2a5.276,5.276,0,0,0,5.259,5.286H-121.4v42.859H-401.636a55.047,55.047,0,0,1-54.846-55.122V78.693a55.047,55.047,0,0,1,54.846-55.122H-152.2A30.913,30.913,0,0,1-121.4,54.53v11.9ZM-274.6,77h120.024l-12.267,45.236h-95.49Zm72.785,78.469H-227.36V132.818h25.545Z" transform="translate(467 -13)" fill="#5eb65c"/>
  <path id="Path_930" data-name="Path 930" d="M-103.076,107.76h-37.433a4.991,4.991,0,0,0-4.991,4.991,4.991,4.991,0,0,0,4.991,4.991h37.433a4.991,4.991,0,0,0,4.991-4.991A4.991,4.991,0,0,0-103.076,107.76Z" transform="translate(389.058 -36.086)" fill="#5eb65c"/>
  <path id="Path_931" data-name="Path 931" d="M-337.488,300H-423.05a4.987,4.987,0,0,0-4.99,4.984v53.237a4.988,4.988,0,0,0,4.986,4.991h85.566a4.987,4.987,0,0,0,4.991-4.986V304.982A4.987,4.987,0,0,0-337.488,300Zm-4.991,53.23h-75.579V309.982h75.579Z" transform="translate(455.819 -80.51)" fill="#5eb65c"/>
  <path id="Path_932" data-name="Path 932" d="M-369.362,162.071a20.678,20.678,0,0,0,20.677-20.677,20.678,20.678,0,0,0-20.677-20.678,20.678,20.678,0,0,0-20.678,20.678A20.7,20.7,0,0,0-369.362,162.071Zm0-31.372a10.7,10.7,0,0,1,10.695,10.7,10.7,10.7,0,0,1-10.695,10.695,10.7,10.7,0,0,1-10.7-10.695A10.706,10.706,0,0,1-369.362,130.7Z" transform="translate(448.272 -38.749)" fill="#5eb65c"/>
  <path id="Path_933" data-name="Path 933" d="M-369.362,239.879A20.678,20.678,0,0,0-348.685,219.2a20.678,20.678,0,0,0-20.677-20.677A20.678,20.678,0,0,0-390.04,219.2h0A20.7,20.7,0,0,0-369.362,239.879Zm0-31.372a10.7,10.7,0,0,1,10.695,10.7,10.7,10.7,0,0,1-10.695,10.7,10.7,10.7,0,0,1-10.7-10.7h0A10.706,10.706,0,0,1-369.362,208.506Z" transform="translate(448.272 -57.348)" fill="#5eb65c"/>
</svg>
