<?xml version="1.0" encoding="utf-8"?>
<!-- Generator: Adobe Illustrator 19.2.1, SVG Export Plug-In . SVG Version: 6.00 Build 0)  -->
<svg version="1.1" id="Capa_1" xmlns="http://www.w3.org/2000/svg" xmlns:xlink="http://www.w3.org/1999/xlink" x="0px" y="0px"
	 viewBox="0 0 220.6 220.6" style="enable-background:new 0 0 220.6 220.6;" xml:space="preserve">
<style type="text/css">
	.st0{fill:#5EB65C;}
</style>
<g>
	<g>
		<path class="st0" d="M215.3,165.9v-10.4c0-33.1-17.8-60-52.6-60H57.9c-34.8,0-52.6,26.9-52.6,60v10.4H16
			c11.2-8.6,30.5-14.3,52.6-14.3H152c22.1,0,41.4,5.7,52.6,14.3H215.3z M27.9,113.4c0,0,6.7-12.9,37-12.9h90.9
			c30.2,0,37,12.9,37,12.9H27.9z"/>
		<path class="st0" d="M41.6,92.4c0.3-9.9,8.3-17.8,18.2-17.8h28.7c9.2,0,16.7,6.8,18,15.7h7.5c1.3-8.8,8.8-15.7,18-15.7h28.7
			c9.9,0,18,7.9,18.2,17.8c16.5,4.4,28.9,15.5,35.7,31.8h0.6v-20.9c0-33.1-7.4-60-42.2-60H47.5c-34.8,0-42.2,26.9-42.2,60v20.9h0.6
			C12.7,107.9,25.1,96.7,41.6,92.4z"/>
		<path class="st0" d="M14,167.4H4.9c-2.7,0-4.9,2.2-4.9,4.9c0,2.7,2.2,4.9,4.9,4.9H14c2.7,0,4.9-2.2,4.9-4.9
			C18.9,169.6,16.7,167.4,14,167.4z"/>
		<path class="st0" d="M215.6,167.4h-9.1c-2.7,0-4.9,2.2-4.9,4.9c0,2.7,2.2,4.9,4.9,4.9h9.1c2.7,0,4.9-2.2,4.9-4.9
			C220.6,169.6,218.4,167.4,215.6,167.4z"/>
	</g>
</g>
</svg>
