<svg id="Layer_1" data-name="Layer 1" xmlns="http://www.w3.org/2000/svg" viewBox="0 0 234.97 234.97"><defs><style>.cls-1{fill:#5eb65c;}</style></defs><title>bedSymbol</title><path class="cls-1" d="M235.35,243.94v51.4a15.56,15.56,0,0,0-.63,1.51c-2.51,8.36-11.08,15.71-20.52,15.17-3.31-.19-6.64,0-10.13,0-0.05,3,.44,6-2.5,7.83h-2.94c-3.13-1.78-2.3-5-2.53-7.7H39.52c0.1,2.92.48,5.88-2.42,7.7H34.16c-3.11-1.78-2.31-5-2.54-7.83-3.66,0-7.07-.08-10.47,0a19.53,19.53,0,0,1-13.74-5.26c-3.54-3.07-5.56-7.06-7-11.4q0-25.7,0-51.4c0.47-.94,1-1.84,1.4-2.81C15.49,206.9,29.06,172.62,43,138.48c3.07-7.53,5.2-15,4.45-23.14-0.3-3.32,0-6.68-.06-10a19.29,19.29,0,0,1,4.85-13,23.29,23.29,0,0,1,12.29-7.5H171.71a16.06,16.06,0,0,0,1.52.62C181.6,88,188.87,96.65,188.42,106c-0.31,6.43-.09,12.89,0,19.33a10,10,0,0,0,.67,3.54q19.46,48.78,39,97.52C230.41,232.27,232.91,238.09,235.35,243.94Zm-9.78-2.51c-0.35-.92-0.57-1.53-0.81-2.12q-13.19-33-26.34-66c-0.72-1.8-1.59-2.36-3.52-2.35q-77.19.1-154.37,0a2.84,2.84,0,0,0-3.13,2.16q-13,32.68-26.11,65.31c-0.38.94-.67,1.92-1,3H225.57Zm1.94,8.07H8.22c0,14.2,0,28.22,0,42.24,0,7.55,4.86,12.41,12.39,12.41H215.14c7.49,0,12.36-4.92,12.37-12.45q0-15.78,0-31.56C227.51,256.64,227.51,253.14,227.51,249.5ZM55.3,124h8.88c4.88,0,4.93,0,6.61-4.47,0.81-2.16,2.09-3.37,4.49-3.37q42.58,0,85.16,0a4.28,4.28,0,0,1,4.49,3.33,27.71,27.71,0,0,0,1.31,3.42,1.8,1.8,0,0,0,1.11,1c4.36,0.07,8.73,0,13.18,0,0-6.48,0-12.59,0-18.7,0-7.73-4.8-12.58-12.47-12.59q-20.07,0-40.13,0-30.22,0-60.44,0c-6.45,0-11.69,4.05-12.07,10.12C55,109.76,55.3,116.78,55.3,124Zm111.57,23.39c-0.28-.87-0.47-1.56-0.72-2.23-2.34-6.24-4.76-12.46-7-18.74-0.64-1.79-1.39-2.47-3.41-2.46-24,.09-47.93.05-71.9,0.06-2,0-4.53-.63-6,0.32s-1.69,3.49-2.46,5.34c-0.13.3-.26,0.6-0.37,0.9l-6.32,16.82h98.14Zm2.66-15.55c2.27,6,4.4,11.67,6.49,17.3,1.44,3.89-.19,6.18-4.36,6.19q-10.64,0-21.28,0H64.27c-4.49,0-6-2.26-4.47-6.47,1.39-3.74,2.81-7.47,4.21-11.2,0.7-1.86,1.37-3.73,2.14-5.82-3.73,0-7.07.07-10.41,0a2.2,2.2,0,0,0-2.49,1.67c-2.22,5.77-4.56,11.5-6.85,17.25-1.62,4.06-3.23,8.13-4.91,12.34H194.27c-4.1-10.22-8.11-20.26-12.18-30.27a1.89,1.89,0,0,0-1.42-.91C177.1,131.8,173.51,131.84,169.54,131.84Z" transform="translate(-0.38 -84.84)"/></svg>