<svg id="Layer_1" data-name="Layer 1" xmlns="http://www.w3.org/2000/svg" viewBox="0 0 40 40"><defs><style>.cls-1{fill:#1aaf4b;}.cls-2{fill:#fff;}</style></defs><title>callsvg</title><g id="_Group_" data-name="&lt;Group&gt;"><path class="cls-1" d="M439.44,320.76a20.26,20.26,0,1,1-4.36-6.49A19.8,19.8,0,0,1,439.44,320.76Z" transform="translate(-400.94 -308.4)"/></g><path class="cls-2" d="M431.46,332.62a3.93,3.93,0,0,1,0,.53,3.85,3.85,0,0,1-2.27,3.64,6.11,6.11,0,0,1-2.71.73H426a19.94,19.94,0,0,1-5.3-1.82,19.59,19.59,0,0,1-7.36-6.59q-2.43-3.48-2.43-5.78,0-4,2.63-4.77a7.77,7.77,0,0,1,1.09-.08,2.5,2.5,0,0,1,.93.16,7.41,7.41,0,0,1,1.29,2.3,27.76,27.76,0,0,1,1,2.63,2.25,2.25,0,0,1-.77,1.42l-0.93,1.21a6.46,6.46,0,0,0,1.37,2.3,12.19,12.19,0,0,0,3.76,3.32,6.86,6.86,0,0,0,2.43,1h0.08a3.93,3.93,0,0,0,1.33-1.33,3.33,3.33,0,0,1,1.33-1.25,10.88,10.88,0,0,1,2.67,1.09l1.82,0.89Z" transform="translate(-400.94 -308.4)"/></svg>