<?xml version="1.0" encoding="utf-8"?>
<!-- Generator: Adobe Illustrator 19.2.1, SVG Export Plug-In . SVG Version: 6.00 Build 0)  -->
<svg version="1.1" id="Layer_1" xmlns="http://www.w3.org/2000/svg" xmlns:xlink="http://www.w3.org/1999/xlink" x="0px" y="0px"
	 viewBox="0 0 1000 1000" style="enable-background:new 0 0 1000 1000;" xml:space="preserve">
<style type="text/css">
	.st0{fill:#5EB65C;}
</style>
<g>
	<g transform="translate(0.000000,511.000000) scale(0.100000,-0.100000)">
		<path class="st0" d="M7654.7,4160.1c-33.6-21.7-219.5-221.5-409.4-446.9c-373.8-439-395.5-478.6-352-622.9
			c17.8-63.3,148.3-181.9,965-882c518.1-444.9,969-824.6,1002.6-842.4c33.6-19.8,92.9-35.6,130.5-35.6s96.9,15.8,132.5,35.6
			c63.3,35.6,684.2,753.4,743.5,860.2c45.5,83.1,43.5,160.2-7.9,249.2C9814.1,2552.4,7983,4130.5,7888,4172
			C7808.9,4207.6,7723.9,4201.7,7654.7,4160.1z"/>
		<path class="st0" d="M3942.9,3980.2c-5.9-15.8-25.7-91-45.5-168.1c-92.9-395.5-332.2-646.7-717.8-753.4
			c-67.2-19.8-120.6-41.5-120.6-47.5c0-7.9,73.2-37.6,164.1-65.3c375.7-118.7,589.3-357.9,680.3-769.3
			c19.8-85,39.6-154.2,47.5-154.2c5.9,0,25.7,69.2,45.5,154.2c96.9,413.3,320.4,662.5,692.1,773.2c83.1,23.7,150.3,51.4,150.3,59.3
			c0,7.9-55.4,31.6-122.6,49.4c-383.6,106.8-607.1,346.1-715.9,765.3C3974.5,3926.8,3948.8,3996,3942.9,3980.2z"/>
		<path class="st0" d="M6685.7,2495.1c-160.2-160.2-415.3-350-607.1-446.9c-274.9-138.4-682.2-263-1512.8-468.7
			c-506.2-124.6-658.5-187.9-943.3-401.4C3355.6,980.3,2461.7,64.7,2175-305.1c-207.6-265-272.9-508.2-179.9-668.4
			c63.3-108.8,255.1-207.6,399.5-207.6c213.6,0,379.7,85,674.3,346.1c134.5,118.7,573.5,464.7,771.2,605.1
			c213.6,154.2,441,233.3,672.4,235.3c152.3,0,959.1-83.1,959.1-98.9c0-11.9-468.7-77.1-860.2-118.7
			c-359.9-39.6-547.8-108.8-715.9-263c-296.6-272.9-209.6-585.4,189.8-678.3c87-21.7,421.2-27.7,1544.4-27.7
			c1589.9,0,1546.4-4,1797.6,128.5c278.8,148.3,508.2,423.2,607.1,727.7c39.6,124.6,55.4,221.5,65.3,429.1l13.8,267l102.8,213.6
			c55.4,116.7,150.3,288.7,211.6,381.7c59.3,92.9,104.8,176,98.9,185.9c-5.9,9.9-391.5,346.1-858.2,747.5l-848.3,731.7
			L6685.7,2495.1z"/>
		<path class="st0" d="M1210,2554.4c-4-15.8-31.6-116.7-59.3-225.4c-126.6-506.3-389.6-789-876-937.3
			c-91-27.7-166.1-61.3-166.1-71.2c0-9.9,75.2-43.5,166.1-71.2c237.3-73.2,401.4-166.1,551.7-316.4
			c160.2-160.2,255.1-342.1,326.3-630.8c29.7-114.7,59.3-215.5,67.2-223.4c7.9-9.9,33.6,69.2,59.3,174
			c55.4,241.3,102.8,361.9,211.6,528c136.4,207.6,359.9,369.8,622.9,448.9c284.8,87,286.7,92.9,55.4,160.2
			c-482.5,140.4-749.5,431.1-880,959.1C1229.8,2584.1,1225.8,2595.9,1210,2554.4z"/>
		<path class="st0" d="M1743.9-1460c-652.6-35.6-1311.1-231.4-1536.5-456.8C43.3-2080.9,67-2249,280.6-2456.6
			c152.3-148.3,381.7-278.8,591.3-342.1c148.3-43.5,191.8-45.5,595.2-45.5c605.1,3.9,638.7-9.9,1028.3-354
			c444.9-395.5,795-617,1147-723.8c152.3-45.5,215.5-53.4,425.2-53.4c397.5-2,640.7,87,1083.7,399.5
			c421.2,296.6,696.1,397.5,1091.6,397.5c239.3,0,417.2-25.7,860.2-128.5c591.3-134.5,943.3-160.2,1315-96.9
			c486.5,83.1,931.4,310.5,1103.4,561.6c379.7,549.7-446.9,1214.2-1696.7,1366.5C7617.1-1452,2177-1438.2,1743.9-1460z"/>
	</g>
</g>
</svg>
