<?xml version="1.0" encoding="utf-8"?>
<!-- Generator: Adobe Illustrator 19.2.1, SVG Export Plug-In . SVG Version: 6.00 Build 0)  -->
<svg version="1.1" id="Capa_1" xmlns="http://www.w3.org/2000/svg" xmlns:xlink="http://www.w3.org/1999/xlink" x="0px" y="0px"
	 viewBox="0 0 489.6 489.6" style="enable-background:new 0 0 489.6 489.6;" xml:space="preserve">
<style type="text/css">
	.st0{fill:#5EB65C;}
</style>
<g>
	<g>
		<g>
			<path class="st0" d="M443,264.6H42c3.1,17.1-18.7,38.1-18.7,38.1h438.3C461.6,302.7,439.5,281.7,443,264.6z"/>
			<path class="st0" d="M439.1,375c-33.4-10.5-43.5-36.5-43.9-37.7c-1.6-4.3-6.2-6.2-10.1-4.7c-4.3,1.6-6.2,6.2-4.7,10.1
				c0.4,1.6,13.2,34.6,54,47.4c0.8,0.4,7.2,1.6,10.1-5.1C445.7,380.8,443.4,376.5,439.1,375z"/>
			<path class="st0" d="M99.5,332.6c-4.3-1.6-8.5,0.8-10.1,4.7c0,0.4-10.1,27.2-43.9,37.7c-4.3,1.2-6.6,5.8-5.1,10.1
				c2.4,6.7,9.3,5.4,10.1,5.1c41.2-12.8,53.6-46.2,54-47.4C106.1,338.5,103.7,334.2,99.5,332.6z"/>
			<path class="st0" d="M333,375c-33.4-10.5-43.5-36.5-43.9-37.7c-1.6-4.3-6.2-6.2-10.1-4.7c-4.3,1.6-6.2,6.2-4.7,10.1
				c0.4,1.6,13.2,34.6,54,47.4c0.8,0.4,7,1.6,10.1-5.1C339.2,380.8,336.9,376.5,333,375z"/>
			<path class="st0" d="M205.9,332.6c-4.3-1.6-8.5,0.8-10.1,4.7c0,0.4-10.1,27.2-43.9,37.7c-4.3,1.2-6.6,5.8-5.1,10.1
				c2.5,6.8,9.3,5.4,10.1,5.1c41.2-12.8,53.6-46.2,54-47.4C212.2,338.5,209.8,334.2,205.9,332.6z"/>
			<path class="st0" d="M477.2,99.1H12.4c-7,0-12.4,5.4-12.4,12.4V216h489.6l0,0V111.5C489.6,104.5,484.2,99.1,477.2,99.1z M448,190
				H41.6c-4.3,0-7.8-3.5-7.8-7.8s3.5-7.8,7.8-7.8h406.1c4.3,0,7.8,3.5,7.8,7.8S452.3,190,448,190z M448,149.2H41.6
				c-4.3,0-7.8-3.5-7.8-7.8s3.5-7.8,7.8-7.8h406.1c4.3,0,7.8,3.5,7.8,7.8C455.4,145.7,452.3,149.2,448,149.2z"/>
			<path class="st0" d="M0,232v36.5c0,7,5.4,12.4,12.4,12.4c0,0,9.6,0,9.7-12.8l-4.2-23.3H42h425.1l-4.7,23.3
				c1,12.8,14.8,12.8,14.8,12.8c7,0,12.4-5.4,12.4-12.4V232L0,232L0,232z"/>
		</g>
	</g>
</g>
</svg>
