<svg id="Layer_1" data-name="Layer 1" xmlns="http://www.w3.org/2000/svg" viewBox="0 0 29 28.94"><defs><style>.cls-1{fill:#548b2e;}</style></defs><title>currency_icon_small1</title><path class="cls-1" d="M0,14.51A14.34,14.34,0,0,1,14.44,0,14.29,14.29,0,0,1,29,14.37,14.5,14.5,0,1,1,0,14.51Zm26.92,0A12.43,12.43,0,1,0,14.31,26.9,12.44,12.44,0,0,0,26.93,14.48Z" transform="translate(-0.01 -0.03)"/><path class="cls-1" d="M24.66,14.5A10.16,10.16,0,1,1,14.47,4.36,10.14,10.14,0,0,1,24.66,14.5ZM15,21l0.26,0a5.21,5.21,0,0,0,2.24-.7,3.57,3.57,0,0,0,1.87-3.58,3.4,3.4,0,0,0-2.51-3.07c-0.52-.18-1-0.35-1.58-0.5A0.36,0.36,0,0,1,15,12.7c0-.83,0-1.66,0-2.49,0-.08,0-0.17,0-0.34a5.67,5.67,0,0,1,.75.35,2,2,0,0,1,.7,1.37h2.45a0.89,0.89,0,0,0,0-.16,3.4,3.4,0,0,0-1.77-2.87,11.35,11.35,0,0,0-1.94-.67A0.25,0.25,0,0,1,15,7.59c0-.34,0-0.68,0-1H14v1.3l-0.5.08a4.66,4.66,0,0,0-2.13.82,3.5,3.5,0,0,0-1.43,3.4A3,3,0,0,0,12,14.65c0.53,0.2,1.08.36,1.63,0.52a0.4,0.4,0,0,1,.35.45c0,1,0,2,0,3,0,0.08,0,.17,0,0.28a2.41,2.41,0,0,1-1.18-.57,2.25,2.25,0,0,1-.7-1.69H9.61a5,5,0,0,0,1,2.84A4.65,4.65,0,0,0,14,21v1.44h1V21Z" transform="translate(-0.01 -0.03)"/><path class="cls-1" d="M15,18.89V15.63c1.22,0.14,1.9.78,1.85,1.72A1.8,1.8,0,0,1,15,18.89Z" transform="translate(-0.01 -0.03)"/><path class="cls-1" d="M13.95,10v2.76a1.44,1.44,0,0,1-1.55-1.43A1.4,1.4,0,0,1,13.95,10Z" transform="translate(-0.01 -0.03)"/></svg>