<svg id="Layer_1" data-name="Layer 1" xmlns="http://www.w3.org/2000/svg" viewBox="0 0 30.86 40.06"><defs><style>.cls-1{fill:#fff;}</style></defs><title>currency_icon</title><path class="cls-1" d="M4,14.14A13.06,13.06,0,0,0,17.38,26.66,12.83,12.83,0,0,0,19,26.51l-0.13-5.77,10,7.05-9.7,7.56-0.1-4.49Q18.29,31,17.48,31a17.26,17.26,0,0,1-12.4-4.81h0A17.26,17.26,0,0,1-.3,14a17.57,17.57,0,0,1,.07-1.94Z" transform="translate(0.31 4.72)"/><path class="cls-1" d="M30.48,18.57a17.54,17.54,0,0,0,.07-1.94A17.26,17.26,0,0,0,25.18,4.46h0A17.27,17.27,0,0,0,12.77-.35q-0.82,0-1.62.12L11-4.72,1.35,2.84l10,7.05L11.25,4.12A12.89,12.89,0,0,1,22.19,7.58a13,13,0,0,1,4,8.91Z" transform="translate(0.31 4.72)"/><path class="cls-1" d="M13.66,14.34a0.79,0.79,0,0,1,.53-0.72l0.07,0v1.53A0.81,0.81,0,0,1,13.66,14.34Zm2.52,3a0.88,0.88,0,0,1,.74.87,1,1,0,0,1-.54.91l-0.2.11V17.37Zm-1.41,5.23h0.92a0.5,0.5,0,0,0,.5-0.5V21.26a4.7,4.7,0,0,0,1.91-.69,2.72,2.72,0,0,0,1.31-2.33,2.31,2.31,0,0,0-.52-1.58,4.12,4.12,0,0,0-2.71-1.29V13.64a2.74,2.74,0,0,1,.62.41,0.66,0.66,0,0,0,.43.15,0.86,0.86,0,0,0,.31-0.09h0l1-.64a0.4,0.4,0,0,0,.21-0.34,0.37,0.37,0,0,0-.13-0.29,4.13,4.13,0,0,0-2.47-1.35v-1a0.5,0.5,0,0,0-.5-0.5H14.76a0.5,0.5,0,0,0-.5.5v0.94a4.57,4.57,0,0,0-1.28.36,2.63,2.63,0,0,0-1.81,2.51,2.42,2.42,0,0,0,.49,1.45,3.8,3.8,0,0,0,2.6,1.35v2.15a3.71,3.71,0,0,1-1.47-1,0.48,0.48,0,0,0-.4-0.2,1,1,0,0,0-.27.08h0l-0.93.55a0.41,0.41,0,0,0-.24.37,0.39,0.39,0,0,0,.11.27,4.64,4.64,0,0,0,1,1,4.85,4.85,0,0,0,2.23,1v0.85A0.5,0.5,0,0,0,14.76,22.61Z" transform="translate(0.31 4.72)"/></svg>