<?xml version="1.0" encoding="utf-8"?>
<!-- Generator: Adobe Illustrator 19.2.1, SVG Export Plug-In . SVG Version: 6.00 Build 0)  -->
<svg version="1.1" id="Capa_1" xmlns="http://www.w3.org/2000/svg" xmlns:xlink="http://www.w3.org/1999/xlink" x="0px" y="0px"
	 viewBox="0 0 915.1 915.1" style="enable-background:new 0 0 915.1 915.1;" xml:space="preserve">
<style type="text/css">
	.st0{fill:#5EB65C;}
</style>
<g>
	<g>
		<path class="st0" d="M71.7,461.5c8.3,17.1,31.9,19.1,42.9,3.5l92-129.9c11.2-15.8,0.9-37.8-18.4-39.4l-25-2
			c17.7-37.2,42.6-70.8,73.5-99c44-40.1,98.6-67.4,158-79c85.3-16.6,172,0.2,244.4,47.3c60.2,39.2,104.4,95.6,127.3,161.4
			c8.1,23.2,32,36.9,56.1,32.2l1-0.2c29.5-5.8,47.2-36.3,37.2-64.7c-12.2-34.6-29-67.4-50.2-97.9c-31.1-44.3-70-82-116-112
			S597.9,31.2,544,20.3C488.2,9.1,431.3,8.9,375,19.9c-77.5,15.2-148.9,50.9-206.5,103.4c-49.3,44.9-87,100.5-110,162.1L27,282.9
			c-19.3-1.5-32.9,18.4-24.5,35.8L71.7,461.5z"/>
		<path class="st0" d="M800.3,449.9l-92,129.9c-11.2,15.8-0.9,37.8,18.4,39.4l25,2c-17.7,37.2-42.6,70.8-73.5,99
			c-44,40.1-98.6,67.4-158,79c-85.3,16.6-172-0.2-244.4-47.3c-60.2-39.2-104.4-95.6-127.3-161.4c-8.1-23.2-32-36.9-56.1-32.2l-1,0.2
			c-29.5,5.8-47.2,36.3-37.2,64.7c12.2,34.6,29,67.4,50.2,97.9c31.1,44.4,70.1,82.2,116.1,112.1c46,30,96.6,50.6,150.5,61.5
			c28.2,5.7,56.7,8.5,85.2,8.5c27.9,0,55.9-2.7,83.8-8.2c77.5-15.1,149-50.9,206.6-103.3c49.3-44.9,86.9-100.5,109.9-162.1l31.5,2.5
			c19.3,1.5,32.9-18.4,24.5-35.8l-69.2-142.8C835,436.4,811.3,434.4,800.3,449.9z"/>
		<path class="st0" d="M456.5,171.5c-19.3,0-35,15.7-35,35v46.1h-82.1c-19.3,0-35,15.7-35,35v168.2c0,19.3,15.7,35,35,35h82.1V589
			h-67.8c-19.3,0-35,15.7-35,35s15.7,35,35,35h67.8v46.1c0,19.3,15.7,35,35,35s35-15.7,35-35V659H570c19.3,0,35-15.7,35-35V455.8
			c0-19.3-15.7-35-35-35h-78.5v-98.2h63.8c19.3,0,35-15.7,35-35c0-19.3-15.7-35-35-35h-63.8v-46.1
			C491.5,187.2,475.9,171.5,456.5,171.5z M421.5,420.8h-47.1v-98.2h47.1V420.8z M535.1,490.8V589h-43.6v-98.2H535.1z"/>
	</g>
</g>
</svg>
