<svg id="Layer_1" data-name="Layer 1" xmlns="http://www.w3.org/2000/svg" viewBox="0 0 30.58 30.53"><defs><style>.cls-1{fill:#fff;}</style></defs><title>lang_med</title><path class="cls-1" d="M4.87,18.26l-4.31,1a14.82,14.82,0,0,1,0-8.07l4.3,1A25.17,25.17,0,0,0,4.87,18.26Z"/><path class="cls-1" d="M30,11.23a14.81,14.81,0,0,1,0,8.07l-4.3-1a25.22,25.22,0,0,0,0-6Z"/><path class="cls-1" d="M11.75,17.64l-5.69.47a23.74,23.74,0,0,1,0-5.69l5.69,0.47v4.75Z"/><path class="cls-1" d="M24.52,18.11l-5.69-.47V12.89l5.68-.47A23.7,23.7,0,0,1,24.52,18.11Z"/><path class="cls-1" d="M6.18,11.23c0.25-1,.44-1.89.72-2.78s0.56-1.52.85-2.28A0.24,0.24,0,0,1,8.07,6c1.32,0.3,2.63.58,4,.86l0.15,0-0.37,4.8Z"/><path class="cls-1" d="M12.17,23.61l-4.33.94a19.77,19.77,0,0,1-1.6-5.25l5.57-.45Z"/><path class="cls-1" d="M18.78,11.69L18.4,6.87c0.47-.08,1-0.13,1.42-0.23,0.88-.2,1.76-0.42,2.63-0.64,0.17,0,.27-0.07.36,0.13a20.29,20.29,0,0,1,1.5,4.94,0.89,0.89,0,0,1,0,.17Z"/><path class="cls-1" d="M24.34,19.3a19.9,19.9,0,0,1-1.6,5.25l-4.34-.94,0.37-4.76Z"/><rect class="cls-1" x="12.99" y="12.92" width="4.6" height="4.7"/><path class="cls-1" d="M4.47,4.47L6.74,5.54A21.8,21.8,0,0,0,5.06,11,19.06,19.06,0,0,1,1,10,15.28,15.28,0,0,1,4.47,4.47Z"/><path class="cls-1" d="M23.83,5.54L26.1,4.47A15.25,15.25,0,0,1,29.62,10a19.24,19.24,0,0,1-4.09,1A22,22,0,0,0,23.83,5.54Z"/><path class="cls-1" d="M4.47,26.06A15.33,15.33,0,0,1,1,20.53a19.24,19.24,0,0,1,4.09-1A22.13,22.13,0,0,0,6.75,25Z"/><path class="cls-1" d="M23.83,25a21.81,21.81,0,0,0,1.7-5.48,19.09,19.09,0,0,1,4.1,1,15.29,15.29,0,0,1-3.52,5.53Z"/><path class="cls-1" d="M17.58,11.69H13L13.35,7h3.87Z"/><path class="cls-1" d="M13.35,23.53L13,18.86h4.59l-0.35,4.67H13.35Z"/><path class="cls-1" d="M16.87,0.2a9.55,9.55,0,0,1,5.28,4.62,20.5,20.5,0,0,1-3.91.84A21.58,21.58,0,0,0,16.87.2Z"/><path class="cls-1" d="M8.39,25.65l3.94-.84a21.79,21.79,0,0,0,1.38,5.52A9.61,9.61,0,0,1,8.39,25.65Z"/><path class="cls-1" d="M16.88,30.3a21.61,21.61,0,0,0,1.36-5.49l3.9,0.82A9.12,9.12,0,0,1,16.88,30.3Z"/><path class="cls-1" d="M12.31,5.72L8.4,4.89A9.56,9.56,0,0,1,13.62.23c-0.27.91-.56,1.79-0.77,2.68S12.5,4.71,12.31,5.72Z"/><path class="cls-1" d="M17,5.8H13.53c0.1-.62.16-1.21,0.3-1.77,0.25-1,.53-2.07.82-3.09A3.11,3.11,0,0,1,15,.18c0.15-.24.35-0.25,0.49,0a5.29,5.29,0,0,1,.45.88A23.91,23.91,0,0,1,17,5.8Z"/><path class="cls-1" d="M17.07,24.8c-0.21,1-.38,2.1-0.63,3.13a15.91,15.91,0,0,1-.68,2,2.25,2.25,0,0,1-.48.56A2,2,0,0,1,14.82,30c-0.33-1-.65-2.06-0.92-3.1-0.17-.67-0.25-1.36-0.37-2A12,12,0,0,1,17.07,24.8Z"/><path class="cls-1" d="M7.26,4.44L5.42,3.61A15.2,15.2,0,0,1,10,1C9.48,1.51,9,2,8.53,2.6S7.71,3.79,7.26,4.44Z"/><path class="cls-1" d="M20.6,1a14.63,14.63,0,0,1,4.55,2.63l-1.88.85A14.74,14.74,0,0,0,20.6,1Z"/><path class="cls-1" d="M5.41,26.92l1.88-.84A14.74,14.74,0,0,0,10,29.55,14.61,14.61,0,0,1,5.41,26.92Z"/><path class="cls-1" d="M20.6,29.55a14.7,14.7,0,0,0,2.68-3.48l1.88,0.84A14.64,14.64,0,0,1,20.6,29.55Z"/></svg>