<svg id="Group_1198" data-name="Group 1198" xmlns="http://www.w3.org/2000/svg" width="22.219" height="25.89" viewBox="0 0 22.219 25.89">
  <path id="Path_665" data-name="Path 665" d="M236.162,278.288c-.532-.8-1.054-1.565-1.56-2.343a67.375,67.375,0,0,1-3.958-6.827,27.717,27.717,0,0,1-1.658-4.082,7.475,7.475,0,0,1,5.067-9.343,7.555,7.555,0,0,1,9.326,5.018,7.478,7.478,0,0,1-.079,4.536,29.831,29.831,0,0,1-2.125,4.91,78.024,78.024,0,0,1-4.893,7.974C236.252,278.173,236.219,278.214,236.162,278.288ZM240,263.121a3.822,3.822,0,1,0-3.84,3.8A3.826,3.826,0,0,0,240,263.121Z" transform="translate(-225.064 -255.388)" fill="#ffde0a"/>
  <path id="Path_666" data-name="Path 666" d="M215.688,388.909a30.161,30.161,0,0,1-6.112-.581,11.2,11.2,0,0,1-3.621-1.279,4.327,4.327,0,0,1-.944-.78A1.581,1.581,0,0,1,205,384.1a4.185,4.185,0,0,1,1.427-1.053,13.014,13.014,0,0,1,3.067-1c.291-.063.585-.113.878-.167a.489.489,0,0,1,.621.383.481.481,0,0,1-.435.566,14.853,14.853,0,0,0-3.167.855,6.82,6.82,0,0,0-1.282.7c-.746.532-.729,1.059,0,1.606a6.221,6.221,0,0,0,1.722.852,20.266,20.266,0,0,0,4.613.935,32.868,32.868,0,0,0,4.537.129,23.727,23.727,0,0,0,6.133-.923,7.325,7.325,0,0,0,1.955-.861,2.876,2.876,0,0,0,.529-.449.663.663,0,0,0,0-.991,3.107,3.107,0,0,0-.991-.719,12.393,12.393,0,0,0-3.086-.994c-.239-.051-.48-.092-.719-.138a.485.485,0,1,1,.181-.951c.508.1,1.019.193,1.522.316a10.536,10.536,0,0,1,2.85,1.07,3.479,3.479,0,0,1,1.074.9,1.6,1.6,0,0,1-.047,2.088,4.176,4.176,0,0,1-1.476,1.075,14.009,14.009,0,0,1-3.474,1.066A30.971,30.971,0,0,1,215.688,388.909Z" transform="translate(-204.575 -363.02)" fill="#ffde0a"/>
  <path id="Path_667" data-name="Path 667" d="M269.436,299.149a1.7,1.7,0,1,1,1.7-1.69A1.693,1.693,0,0,1,269.436,299.149Z" transform="translate(-258.324 -289.739)" fill="#ffde0a"/>
</svg>
