<?xml version="1.0" encoding="utf-8"?>
<!-- Generator: Adobe Illustrator 19.2.1, SVG Export Plug-In . SVG Version: 6.00 Build 0)  -->
<svg version="1.1" id="Layer_1" xmlns="http://www.w3.org/2000/svg" xmlns:xlink="http://www.w3.org/1999/xlink" x="0px" y="0px"
	 viewBox="0 0 1000 1000" style="enable-background:new 0 0 1000 1000;" xml:space="preserve">
<style type="text/css">
	.st0{fill:#5EB65C;}
</style>
<g>
	<g>
		<path class="st0" d="M216.7,433.8c-11.1,0-20.5,8.9-20.5,19.9v94.9c0,11.1,9.4,19.9,20.5,19.9H448L312.9,433.8H216.7z"/>
		<polygon class="st0" points="668,547.1 668,433.8 554.4,433.8 		"/>
		<path class="st0" d="M773.1,433.8h-77.9v134.8h77.9c11.1,0,19.7-8.9,19.7-19.9v-94.9C792.8,442.6,784.1,433.8,773.1,433.8z"/>
		<path class="st0" d="M846.5,153.5c-45-45-97.4-80.3-155.8-104.9C630.3,23,566.1,10,500,10S369.7,23,309.2,48.5
			c-58.4,24.7-110.8,60-155.8,104.9c-45,45-80.3,97.4-104.9,155.8C23,369.7,10,433.9,10,500s13,130.3,38.5,190.8
			c24.7,58.4,60,110.8,104.9,155.8c45,45,97.4,80.3,155.8,104.9C369.7,977,433.9,990,500,990s130.3-13,190.8-38.5
			c58.4-24.7,110.8-60,155.8-104.9c45-45,80.3-97.4,104.9-155.8C977,630.3,990,566.1,990,500s-13-130.3-38.5-190.8
			C926.8,250.9,891.5,198.6,846.5,153.5z M500,889.4c-104,0-201.8-40.4-275.4-114c-73.4-73.7-114-171.3-114-275.4
			c0-87,28.4-169.6,80.7-237.5l546.1,546C669.7,860.9,587,889.4,500,889.4z M808.7,737.5l-546.1-546
			c67.8-52.3,150.4-80.8,237.5-80.8c104,0,201.8,40.4,275.4,114c73.4,73.7,114,171.3,114,275.4C889.4,587,861,669.6,808.7,737.5z"/>
		<path class="st0" d="M722.7,394c8.9,5.3,17.4,11,25.6,17.5c3.2,2.6,8,1.2,9.5-2.6c0.3-0.8,0.5-1.4,0.6-1.6
			c6.7-26.5-4.5-55-21.8-75.1s-40.8-33.8-65.2-44.4c-12.8-5.5-25.9-10.5-38.8-15.4c-12.1-4.5-25.9-8.5-36.9-15.2
			c-3.6-2.2-8.4,0-9.1,4.1c-0.1,0.5-0.2,3-0.2,4c0.5,23.3,14.7,45.3,30.4,61.6c15.8,16.4,35.1,28.9,55,39.6c1.4,0.7,2.8,1.5,4.2,2.2
			C691.6,377.1,707.5,384.9,722.7,394z"/>
	</g>
</g>
</svg>
