<svg id="Layer_1" data-name="Layer 1" xmlns="http://www.w3.org/2000/svg" xmlns:xlink="http://www.w3.org/1999/xlink" viewBox="0 0 378.42 232.96"><defs><style>.cls-1,.cls-8{fill:#8ac441;}.cls-2{fill:url(#linear-gradient);}.cls-3{fill:url(#linear-gradient-2);}.cls-4{fill:url(#linear-gradient-3);}.cls-5{fill:url(#linear-gradient-4);}.cls-6{fill:url(#linear-gradient-5);}.cls-7,.cls-9{fill:#fff;}.cls-8{font-size:74px;font-family:Aldhabi;}.cls-9{font-size:11px;font-family:Ara Jozoor;}.cls-10{fill:url(#linear-gradient-6);}.cls-11{fill:url(#linear-gradient-7);}</style><linearGradient id="linear-gradient" x1="434.82" y1="645.08" x2="621.04" y2="645.08" gradientTransform="matrix(1, 0, 0, -1, -24.48, 1210.25)" gradientUnits="userSpaceOnUse"><stop offset="0" stop-color="#199d9d"/><stop offset="0.5" stop-color="#5db69a"/><stop offset="1" stop-color="#a7cf90"/></linearGradient><linearGradient id="linear-gradient-2" x1="617.18" y1="755.9" x2="732.84" y2="755.9" gradientTransform="matrix(1, 0, 0, -1, 36.59, 1177.84)" xlink:href="#linear-gradient"/><linearGradient id="linear-gradient-3" x1="500.23" y1="701.73" x2="716.06" y2="701.73" gradientTransform="matrix(1, 0, 0, -1, -2.57, 1192.05)" xlink:href="#linear-gradient"/><linearGradient id="linear-gradient-4" x1="527.5" y1="725.48" x2="568.83" y2="725.48" gradientTransform="matrix(1, 0, 0, -1, 6.56, 1187.76)" xlink:href="#linear-gradient"/><linearGradient id="linear-gradient-5" x1="607.53" y1="783.16" x2="635" y2="783.16" gradientTransform="matrix(1, 0, 0, -1, 33.36, 1173.78)" xlink:href="#linear-gradient"/><linearGradient id="linear-gradient-6" x1="541.38" y1="764.72" x2="559.05" y2="764.72" gradientTransform="matrix(1, 0, 0, -1, 11.21, 1180.48)" xlink:href="#linear-gradient"/><linearGradient id="linear-gradient-7" x1="526.71" y1="763.81" x2="544.38" y2="763.81" gradientTransform="matrix(1, 0, 0, -1, 6.29, 1180.78)" xlink:href="#linear-gradient"/></defs><title>omra_logo</title><path class="cls-1" d="M586.64,526.78c0.71-.58,1.41-1.19,2.11-1.78a164.19,164.19,0,0,1-162.26,2.23L391,544.81A175.22,175.22,0,0,0,586.64,526.78Z" transform="translate(-391 -376)"/><path class="cls-2" d="M558.57,562.44a206,206,0,0,0,38-41.06l0,0a175.3,175.3,0,0,1-157.59,56.43l-28.58,30.3q9,0.8,18.24.81A204,204,0,0,0,558.57,562.44Z" transform="translate(-391 -376)"/><path class="cls-3" d="M694.55,395.92s7.75-3.72,13.8-3.72,13.18,4,17.67,11.94c0,0,.93,1.55-2.94,7.6s-7.75,11.16-7.75,11.16-5.27-9.46-16.28-10.7-22.63,9-22.63,9,28.52,5.74,36.58,9.15,32.24,7.75,43.87-1.24c9.3-8.53,12.56-15.78,12.56-15.78v2.47s-7.25,23.21-24.69,32.3-45.67-1.67-53.83-3.53-17.82-4.64-37.13-2.41l7.05-16.89a17.69,17.69,0,0,1,3.53-4.27C666.39,419.32,683.72,400.74,694.55,395.92Z" transform="translate(-391 -376)"/><path class="cls-4" d="M701.72,483.77c-1.63.38-8.71-5.27-12.45-8s-4.31-4.41-4.21-5.75c0.17-2.39,8,3.45,12.74,7.09S703.35,483.38,701.72,483.77Zm-8.32-33.82c-3.52-1.76-3.52-.95-3.52-0.95l-1.35,1.9c-29.12-6.77-57,14.9-65.41,20.58s-58.78,50.92-92.9,35.62-20-50.11-18.55-53.22,0.54-2.84.54-2.84c-4.74,5.42-19.5,29.52-12.87,53.09S526,533.37,540.1,531.47s29.39-6.36,53.36-24.92,31.28-22.07,49.16-30.88a46,46,0,0,1,33.58-3.12s-5.55,8.4-3.66,14.76,10.83,10.56,16,13.54,10.29,9.07,10.29,9.07,3.11-5.42,6.91-12.73,5.42-13.41,7.58-26.41S696.92,451.71,693.4,449.95Z" transform="translate(-391 -376)"/><path class="cls-5" d="M563.63,466.66c-1.63.38-8.71-5.27-12.45-8s-4.31-4.41-4.21-5.75c0.17-2.39,8,3.45,12.74,7.09S565.25,466.28,563.63,466.66Zm-8.32-33.82c-3.52-1.76-3.52-.95-3.52-0.95l-1.35,1.9-12.32,21.67s-5.55,8.4-3.66,14.76,10.84,10.56,16,13.54,10.29,9.07,10.29,9.07,3.12-5.42,6.91-12.73,5.42-13.41,7.58-26.41S558.83,434.61,555.31,432.84Z" transform="translate(-391 -376)"/><path class="cls-6" d="M658,392.22a29.36,29.36,0,0,1-3.84-.37c-0.81-.24-2.34-1.54-1.37-4.77s5.74-11.47,10.91-11.07,5.25,8.51,4,12.82S665,407.45,643,404.94c0,0-2.59-.08-2-1.62s10.26-2.18,16.89-8.48C657.86,394.84,659.3,393.32,658,392.22Z" transform="translate(-391 -376)"/><path class="cls-7" d="M454,500.23a7.81,7.81,0,0,0,.58-1,10.06,10.06,0,0,0,.43-1,7.06,7.06,0,0,0,.27-0.87,3,3,0,0,0,.1-0.68,1.31,1.31,0,0,0-.33-1,2.34,2.34,0,0,0-.84-0.54,9.38,9.38,0,0,0-1.13-.36,8.87,8.87,0,0,1-1.24-.4,4.08,4.08,0,0,1-1.1-.67,2.51,2.51,0,0,1-.74-1.17,0.36,0.36,0,0,0-.23-0.26q-0.39.75-.64,1.33a10.6,10.6,0,0,0-.4,1,6.4,6.4,0,0,0-.2.78,3.38,3.38,0,0,0-.06.58,2.08,2.08,0,0,0,.3,1.18,2.33,2.33,0,0,0,.73.71l0,0.1a18.48,18.48,0,0,0-3,1.22,12.58,12.58,0,0,0-2.29,1.52,9.39,9.39,0,0,0-1.64,1.79,9.14,9.14,0,0,0-1.07,2,14.59,14.59,0,0,0-.71,2.58,15.74,15.74,0,0,0-.25,2.84,21.61,21.61,0,0,0,.29,3.34q0.29,1.85.85,4t1.37,4.5q0.81,2.37,1.84,4.89a10.91,10.91,0,0,0,.72,1.5,1.19,1.19,0,0,0,.45.54,0.08,0.08,0,0,0,.09-0.07,0.8,0.8,0,0,0,0-.13,4,4,0,0,0-.19-1q-0.19-.67-0.52-1.62t-0.74-2.11q-0.41-1.17-.84-2.47t-0.84-2.7q-0.41-1.4-.74-2.8t-0.52-2.77a18.55,18.55,0,0,1-.19-2.61,8.53,8.53,0,0,1,.65-3.4,7.69,7.69,0,0,1,2-2.73,13.13,13.13,0,0,1,3.43-2.12,28.12,28.12,0,0,1,4.91-1.57l0.54-.12,0.4-.08a1.24,1.24,0,0,0,.28-0.11A0.54,0.54,0,0,0,454,500.23Z" transform="translate(-391 -376)"/><path class="cls-7" d="M485.41,462.46a0.06,0.06,0,0,0-.07,0,0.11,0.11,0,0,0-.1.07l-0.1.19a14.88,14.88,0,0,1-1.29,2.19q-0.8,1.14-1.78,2.3T480,469.49q-1.11,1.16-2.21,2.25t-2.14,2.07q-1,1-1.9,1.81t-1.46,1.46a7.08,7.08,0,0,0-.84,1,6.39,6.39,0,0,0-.85,2.08,18.52,18.52,0,0,0-.39,2.43c-0.09.47-.17,0.89-0.22,1.25s-0.09.69-.12,1,0,0.58-.06.85,0,0.54,0,.81a8.13,8.13,0,0,0,.13,1.34q0.13,0.76.32,1.59t0.43,1.67q0.23,0.84.43,1.6t0.32,1.37a5.08,5.08,0,0,1,.13,1,2.54,2.54,0,0,1-.17.87,6,6,0,0,1-.47,1,7.62,7.62,0,0,1-.71,1,8.74,8.74,0,0,1-.87.9,7.82,7.82,0,0,1-2.34,1.5,6.71,6.71,0,0,1-1,.31c-0.19-.57-0.38-1.09-0.57-1.54a6.22,6.22,0,0,0-.72-1.31,2.71,2.71,0,0,0-.87-0.79,2.31,2.31,0,0,0-1.13-.27,2.14,2.14,0,0,0-.75.13,1.73,1.73,0,0,0-.62.4,2.22,2.22,0,0,0-.45.69,3.53,3.53,0,0,0-.25,1q-0.05.4-.12,0.89t-0.14,1c-0.05.31-.09,0.6-0.13,0.87a5.13,5.13,0,0,0-.05.61,2.11,2.11,0,0,0,.17.83,2.14,2.14,0,0,0,.52.73,2.63,2.63,0,0,0,.85.52,3.23,3.23,0,0,0,1.17.19,6.68,6.68,0,0,0,1-.08c0.35-.05.76-0.13,1.22-0.23a2.08,2.08,0,0,1,.28.51,1.42,1.42,0,0,1,.08.47,2.47,2.47,0,0,1-.21.85,6.83,6.83,0,0,1-.7,1.26,14.27,14.27,0,0,1-1.27,1.59,20.23,20.23,0,0,1-1.95,1.84,33.15,33.15,0,0,1-2.72,2,40.06,40.06,0,0,1-3.58,2.13l-0.83.5a0.45,0.45,0,0,0-.28.27,0.12,0.12,0,0,0,.08.13,0.57,0.57,0,0,0,.18,0,0.93,0.93,0,0,0,.23-0.07l0.47-.17,0.64-.21q0.35-.11.76-0.2l2.2-.47q0.95-.19,1.72-0.43a10.71,10.71,0,0,0,1.46-.56,9.2,9.2,0,0,0,1.42-.86,9.82,9.82,0,0,0,1.48-1.46,8.26,8.26,0,0,0,1.11-1.77,9.64,9.64,0,0,0,.69-2.13,12.84,12.84,0,0,0,.24-2.56c0-.25,0-0.49,0-0.72s0-.17,0-0.26a7,7,0,0,0,1.52-.63,8.14,8.14,0,0,0,1.7-1.29,9.71,9.71,0,0,0,1.51-2,8.1,8.1,0,0,0,.72-1.68,21.1,21.1,0,0,0,.57-2.31c0.06-.28.11-0.55,0.15-0.79s0.08-.48.1-0.7,0-.45.06-0.67,0-.46,0-0.71a7.51,7.51,0,0,0-.14-1.32q-0.14-.75-0.41-1.76-0.39-1.48-.67-2.56t-0.45-1.87q-0.18-.78-0.25-1.31a6.39,6.39,0,0,1-.08-0.89,2.8,2.8,0,0,1,.5-1.5,12,12,0,0,1,1.35-1.7q0.85-.92,2-2t2.49-2.42q1.32-1.33,2.75-2.93a41.76,41.76,0,0,0,2.83-3.55q0.44-.59.8-1.17t0.65-1.17a9.86,9.86,0,0,0,.51-1.24,11.18,11.18,0,0,0,.36-1.37c0-.15.07-0.32,0.11-0.52l0.11-.57c0-.18.06-0.34,0.08-0.48a2.45,2.45,0,0,0,0-.27A0.58,0.58,0,0,0,485.41,462.46Z" transform="translate(-391 -376)"/><text class="cls-8" transform="translate(88.69 129.16)">.</text><text class="cls-9" transform="translate(330.23 162.3)">.com</text><path class="cls-7" d="M657.71,523.47c-0.66-.06-1.33-0.07-2-0.07H639.85c-0.43,0-.85,0-1.37.08v16.76H643V527.11h5.34v13.13h4.8V527a22.76,22.76,0,0,1,3.57.23c1.48,0.32,1.77,1.61,1.77,2.92,0,3.37,0,6.74,0,10.11H663c0-3.86.11-7.73-.06-11.58C662.84,525.61,660.8,523.76,657.71,523.47Z" transform="translate(-391 -376)"/><path class="cls-7" d="M714.68,523.53c-1.23-.14-2.48-0.11-3.72-0.13-1,0-2,0-3.15,0v-6h-4.66c0,1.83,0,3.56,0,5.28q0,8.79-.07,17.57h4.8V527.16c1.76,0,3.48-.09,5.18,0a2,2,0,0,1,1.8,1.88c0.14,1.27.18,2.56,0.19,3.84,0,2.44,0,4.88,0,7.32h4.54v-12C718.92,525.66,717.47,523.85,714.68,523.53Z" transform="translate(-391 -376)"/><path class="cls-7" d="M694.45,536.79c-2,0-3.89.08-5.82,0-1-.06-1.33-0.95-1.31-1.87a1.57,1.57,0,0,1,1.49-1.74c1.85-.09,3.71,0,5.63,0v3.67Zm-1.09-13.34c-2.49-.09-5,0-7.47-0.05h-2.07v3.49c2.8,0,5.5,0,8.2,0,1.87,0,2.38.61,2.32,2.66-0.42,0-.85.05-1.29,0.06-1.78,0-3.56,0-5.33,0-3.41.12-5.35,2.39-5.12,5.79a5.4,5.4,0,0,0,3.37,4.81h13.08c0-3.69,0-7.38,0-11.07S697,523.58,693.36,523.45Z" transform="translate(-391 -376)"/><path class="cls-7" d="M630.4,532.34c-0.34,3.48-2.61,5.06-6,4.21A4.31,4.31,0,0,1,623,536c-1.64-1.09-2.3-4.1-1.5-6.74,0.61-2,2-2.94,4.35-2.93,2.64,0,4,1.18,4.43,3.78A9.28,9.28,0,0,1,630.4,532.34Zm-2.67-9.51a17,17,0,0,0-4.5.11,7.19,7.19,0,0,0-6.54,6.51,15.69,15.69,0,0,0-.1,2.79c0.13,4.21,2,6.54,6,7.74a2,2,0,0,1,.43.27h5.6c4.28-1.13,6.41-3.9,6.56-8.34C635.34,526.65,632.9,523.51,627.73,522.83Z" transform="translate(-391 -376)"/><path class="cls-7" d="M677.27,523.66c-3.3-.19-6.61-0.05-10-0.05v16.63h4.54V526.81c1.24,0.19,2.72,0,3.19.58,0.78,1,.92,2.51,1.36,3.9h4.32c-0.11-1.54-.12-3-0.32-4.44A3.36,3.36,0,0,0,677.27,523.66Z" transform="translate(-391 -376)"/><path class="cls-10" d="M561.67,403.17c-1.5-.75-1.5-0.41-1.5-0.41l-0.58.81-5.27,9.26s-2.37,3.59-1.56,6.31,4.63,4.51,6.83,5.79a20.74,20.74,0,0,1,4.4,3.88s1.33-2.32,3-5.44,2.31-5.73,3.24-11.29S563.17,403.93,561.67,403.17Z" transform="translate(-391 -376)"/><path class="cls-11" d="M542.08,404.39c-1.5-.75-1.5-0.4-1.5-0.4l-0.58.81-5.27,9.26s-2.37,3.59-1.56,6.31,4.63,4.52,6.83,5.79a20.75,20.75,0,0,1,4.4,3.88s1.33-2.31,3-5.44,2.32-5.73,3.24-11.29S543.59,405.14,542.08,404.39Z" transform="translate(-391 -376)"/></svg>