<svg id="Layer_1" data-name="Layer 1" xmlns="http://www.w3.org/2000/svg" xmlns:xlink="http://www.w3.org/1999/xlink" viewBox="0 0 191.89 118.13"><defs><style>.cls-1,.cls-8{fill:#8cc342;}.cls-2{fill:url(#linear-gradient);}.cls-3{fill:url(#linear-gradient-2);}.cls-4{fill:url(#linear-gradient-3);}.cls-5{fill:url(#linear-gradient-4);}.cls-6{fill:url(#linear-gradient-5);}.cls-7,.cls-9{fill:#5b5b5d;}.cls-8,.cls-9{isolation:isolate;}.cls-8{font-size:32px;font-family:Aldhabi;}.cls-9{font-size:5px;font-family:Ara Jozoor;}.cls-10{fill:url(#linear-gradient-6);}.cls-11{fill:url(#linear-gradient-7);}</style><linearGradient id="linear-gradient" x1="601.82" y1="437.62" x2="696.24" y2="437.62" gradientTransform="translate(-267.01 -102.71)" gradientUnits="userSpaceOnUse"><stop offset="0" stop-color="#1b9f9e"/><stop offset="0.5" stop-color="#5db69a"/><stop offset="1" stop-color="#a9cf90"/></linearGradient><linearGradient id="linear-gradient-2" x1="784.19" y1="333.71" x2="842.88" y2="333.71" gradientTransform="translate(-325.96 -71.43)" xlink:href="#linear-gradient"/><linearGradient id="linear-gradient-3" x1="667.21" y1="382.1" x2="776.61" y2="382.1" gradientTransform="translate(-288.15 -85.14)" xlink:href="#linear-gradient"/><linearGradient id="linear-gradient-4" x1="694.5" y1="363.75" x2="715.46" y2="363.75" gradientTransform="translate(-296.97 -80.99)" xlink:href="#linear-gradient"/><linearGradient id="linear-gradient-5" x1="774.53" y1="313.91" x2="788.46" y2="313.91" gradientTransform="translate(-322.84 -67.5)" xlink:href="#linear-gradient"/><linearGradient id="linear-gradient-6" x1="708.38" y1="333.13" x2="717.34" y2="333.13" gradientTransform="translate(-301.45 -73.97)" xlink:href="#linear-gradient"/><linearGradient id="linear-gradient-7" x1="693.71" y1="334.01" x2="702.67" y2="334.01" gradientTransform="translate(-296.71 -74.26)" xlink:href="#linear-gradient"/></defs><title>omra_logo_black</title><path class="cls-1" d="M424.23,315.44l1.07-.9A83.24,83.24,0,0,1,343,315.67l-18,8.91A88.83,88.83,0,0,0,424.23,315.44Z" transform="translate(-325.03 -238.99)"/><path class="cls-2" d="M410,333.52a104.44,104.44,0,0,0,19.27-20.82h0a88.88,88.88,0,0,1-79.93,28.65l-14.49,15.36q4.57,0.4,9.25.41A103.44,103.44,0,0,0,410,333.52Z" transform="translate(-325.03 -238.99)"/><path class="cls-3" d="M478.9,249.09s3.93-1.89,7-1.89,6.68,2,9,6.05c0,0,.47.79-1.49,3.85s-3.93,5.66-3.93,5.66a11.57,11.57,0,0,0-8.25-5.42c-5.58-.63-11.47,4.56-11.47,4.56s14.46,2.91,18.55,4.64,16.35,3.93,22.24-.63a27.71,27.71,0,0,0,6.37-8v1.25s-3.67,11.77-12.52,16.38-23.15-.85-27.29-1.79a46.91,46.91,0,0,0-18.88-1.22l3.58-8.56a9,9,0,0,1,1.79-2.17C464.62,261,473.41,251.54,478.9,249.09Z" transform="translate(-325.03 -238.99)"/><path class="cls-4" d="M482.54,293.63c-0.83.19-4.42-2.67-6.31-4.08s-2.18-2.23-2.14-2.91c0.09-1.21,4.08,1.75,6.46,3.59S483.36,293.44,482.54,293.63Zm-4.22-17.15c-1.79-.89-1.79-0.48-1.79-0.48l-0.69,1c-14.76-3.43-28.91,7.55-33.16,10.44s-29.8,25.82-47.1,18.06-10.16-25.4-9.41-27,0.27-1.44.27-1.44c-2.4,2.75-9.89,15-6.52,26.92s13.53,14.83,20.67,13.87,14.9-3.23,27-12.63S443.5,294,452.56,289.57a23.34,23.34,0,0,1,17-1.58s-2.81,4.26-1.85,7.48,5.49,5.36,8.1,6.87a24.61,24.61,0,0,1,5.22,4.6s1.58-2.75,3.5-6.45,2.75-6.8,3.84-13.39-8.27-9.75-10-10.61h0Z" transform="translate(-325.03 -238.99)"/><path class="cls-5" d="M412.52,285c-0.83.19-4.42-2.67-6.31-4.08s-2.19-2.23-2.14-2.91c0.09-1.21,4.08,1.75,6.46,3.59S413.35,284.77,412.52,285Zm-4.22-17.15c-1.78-.89-1.78-0.48-1.78-0.48l-0.69,1-6.25,11s-2.82,4.26-1.85,7.48,5.49,5.35,8.1,6.87a24.61,24.61,0,0,1,5.22,4.6s1.58-2.75,3.5-6.45,2.75-6.8,3.85-13.39S410.09,268.71,408.3,267.81Z" transform="translate(-325.03 -238.99)"/><path class="cls-6" d="M460.36,247.22a14.91,14.91,0,0,1-1.94-.19c-0.41-.12-1.19-0.78-0.7-2.42s2.91-5.82,5.53-5.61,2.66,4.31,2,6.5-1.35,9.44-12.54,8.17c0,0-1.31,0-1-.82s5.2-1.11,8.56-4.3a0.92,0.92,0,0,0,.12-1.3Z" transform="translate(-325.03 -238.99)"/><path class="cls-7" d="M356.93,302a4,4,0,0,0,.29-0.49,5.07,5.07,0,0,0,.22-0.49,3.53,3.53,0,0,0,.14-0.44,1.52,1.52,0,0,0,0-.34,0.66,0.66,0,0,0-.17-0.49,1.18,1.18,0,0,0-.43-0.27,4.62,4.62,0,0,0-.57-0.18,4.65,4.65,0,0,1-.63-0.2,2.07,2.07,0,0,1-.56-0.34,1.27,1.27,0,0,1-.38-0.59,0.18,0.18,0,0,0-.12-0.13c-0.13.25-.24,0.48-0.32,0.67a5.31,5.31,0,0,0-.2.52,3.25,3.25,0,0,0-.1.39,1.73,1.73,0,0,0,0,.29,1.05,1.05,0,0,0,.15.6,1.19,1.19,0,0,0,.37.36v0a9.4,9.4,0,0,0-1.51.62,6.4,6.4,0,0,0-1.16.77,4.77,4.77,0,0,0-.83.91,4.63,4.63,0,0,0-.54,1,7.4,7.4,0,0,0-.36,1.31,8,8,0,0,0-.13,1.44,11,11,0,0,0,.15,1.69q0.15,0.94.43,2t0.69,2.28q0.41,1.2.94,2.48a5.54,5.54,0,0,0,.36.76,0.61,0.61,0,0,0,.23.28h0a0.41,0.41,0,0,0,0-.07,2,2,0,0,0-.1-0.51c-0.07-.23-0.15-0.5-0.26-0.82l-0.3-1.07q-0.21-.59-0.43-1.25t-0.43-1.37q-0.21-.71-0.37-1.42t-0.26-1.4a9.41,9.41,0,0,1-.1-1.32,4.33,4.33,0,0,1,.33-1.72,3.91,3.91,0,0,1,1-1.38,6.67,6.67,0,0,1,1.74-1.07,14.23,14.23,0,0,1,2.49-.8l0.28-.06h0.2l0.14-.06A0.27,0.27,0,0,0,356.93,302Z" transform="translate(-325.03 -238.99)"/><path class="cls-7" d="M372.87,282.83h0l0,0.1a7.52,7.52,0,0,1-.65,1.11q-0.4.58-.9,1.17a11.86,11.86,0,0,1-1.11,1.14q-0.56.59-1.12,1.14l-1.09,1-1,.92-0.74.74a3.62,3.62,0,0,0-.43.5,3.24,3.24,0,0,0-.43,1,9.38,9.38,0,0,0-.2,1.23,5,5,0,0,1-.11.64,1.9,1.9,0,0,1-.06.5,1,1,0,0,0,0,.43V295a4.12,4.12,0,0,0,.07.68,4,4,0,0,0,.16.8c0.06,0.28.14,0.56,0.22,0.85l0.22,0.81c0.07,0.26.12,0.49,0.16,0.7a2.58,2.58,0,0,1,.07.5,1.29,1.29,0,0,1-.09.44,3.07,3.07,0,0,1-.24.49,3.87,3.87,0,0,1-.36.5,4.36,4.36,0,0,1-.44.46,4,4,0,0,1-1.18.76,3.34,3.34,0,0,1-.53.16c-0.1-.29-0.19-0.55-0.29-0.78a3.16,3.16,0,0,0-.36-0.67,1.37,1.37,0,0,0-.44-0.4,1.16,1.16,0,0,0-.57-0.13,1.08,1.08,0,0,0-.38.07,0.87,0.87,0,0,0-.31.2,1.13,1.13,0,0,0-.23.35,1.8,1.8,0,0,0-.12.51l-0.06.45-0.07.48a1.32,1.32,0,0,1-.07.44,2.6,2.6,0,0,0,0,.31,1.08,1.08,0,0,0,.35.79,1.33,1.33,0,0,0,.43.26,1.64,1.64,0,0,0,.59.1,3.39,3.39,0,0,0,.49,0l0.62-.12a1,1,0,0,1,.14.26,0.72,0.72,0,0,1,0,.24,1.25,1.25,0,0,1-.11.43,3.49,3.49,0,0,1-.35.64,7.3,7.3,0,0,1-.65.8,10.24,10.24,0,0,1-1,.93,16.77,16.77,0,0,1-1.38,1,20.32,20.32,0,0,1-1.82,1.08l-0.42.25a0.23,0.23,0,0,0-.14.14,0.06,0.06,0,0,0,0,.07h0.21l0.24-.09,0.32-.1,0.38-.1,1.12-.24q0.48-.1.87-0.22a5.37,5.37,0,0,0,.74-0.28,4.61,4.61,0,0,0,.72-0.43,5,5,0,0,0,.75-0.74,4.18,4.18,0,0,0,.56-0.9,4.87,4.87,0,0,0,.35-1.08,6.5,6.5,0,0,0,.13-1.28v-0.5a3.55,3.55,0,0,0,.77-0.32,4.08,4.08,0,0,0,.86-0.65,4.91,4.91,0,0,0,.77-1A4.1,4.1,0,0,0,366,301a10.7,10.7,0,0,0,.29-1.17,1,1,0,0,1,.08-0.4,0.9,0.9,0,0,1,0-.36,0.78,0.78,0,0,0,0-.34V298.4a3.82,3.82,0,0,0-.07-0.67,4.15,4.15,0,0,0-.21-0.89l-0.34-1.3q-0.14-.55-0.23-1t-0.13-.66a3.25,3.25,0,0,1,0-.45,1.42,1.42,0,0,1,.25-0.76,6.09,6.09,0,0,1,.69-0.86q0.43-.47,1-1t1.26-1.23q0.67-.68,1.39-1.49a21.06,21.06,0,0,0,1.43-1.8q0.22-.3.4-0.59t0.33-.59a5,5,0,0,0,.26-0.63,5.65,5.65,0,0,0,.18-0.69l0.06-.26,0.06-.29V283a1.23,1.23,0,0,0,0-.14A0.28,0.28,0,0,0,372.87,282.83Z" transform="translate(-325.03 -238.99)"/><text class="cls-8" transform="translate(44.93 62.16)">.</text><text class="cls-9" transform="translate(167.39 81.7)">.com</text><path class="cls-7" d="M460.23,313.76h-9.7v8.5h2.3V315.6h2.71v6.66H458v-6.72a11.57,11.57,0,0,1,1.81.12,1.28,1.28,0,0,1,.9,1.48v5.13H463c0-2,0-3.92,0-5.87a2.67,2.67,0,0,0-2.7-2.64h-0.05Z" transform="translate(-325.03 -238.99)"/><path class="cls-7" d="M489.1,313.79c-0.62-.07-1.26-0.06-1.89-0.07h-1.6v-3h-2.38v11.59h2.44v-6.63h2.63a1,1,0,0,1,.91,1c0.07,0.65.09,1.3,0.1,2v3.71h2.3v-6.09A2.84,2.84,0,0,0,489.1,313.79Z" transform="translate(-325.03 -238.99)"/><path class="cls-7" d="M478.85,320.52h-3a0.78,0.78,0,0,1-.67-0.87v-0.08a0.8,0.8,0,0,1,.72-0.88h2.9v1.86Zm-0.55-6.76h-4.79v1.77h4.16c1,0,1.21.31,1.18,1.35H475.5a2.53,2.53,0,0,0-2.6,2.94,2.74,2.74,0,0,0,1.71,2.44h6.62v-5.61a2.68,2.68,0,0,0-2.93-2.9h0Z" transform="translate(-325.03 -238.99)"/><path class="cls-7" d="M446.37,318.26a2.23,2.23,0,0,1-3.06,2.13,2.18,2.18,0,0,1-.67-0.29c-0.83-.55-1.16-2.08-0.76-3.42a2.32,2.32,0,0,1,4.45.43A4.7,4.7,0,0,1,446.37,318.26ZM445,313.44a8.62,8.62,0,0,0-2.28,0,3.65,3.65,0,0,0-3.31,3.3,8,8,0,0,0,0,1.42,3.75,3.75,0,0,0,3,3.92,1.07,1.07,0,0,1,.22.13h2.84a4.1,4.1,0,0,0,3.32-4.23c0.07-2.68-1.17-4.25-3.79-4.6h0Z" transform="translate(-325.03 -238.99)"/><path class="cls-7" d="M470.14,313.86c-1.67-.1-3.35,0-5.06,0v8.43h2.3v-6.84a3.27,3.27,0,0,1,1.62.29,6.4,6.4,0,0,1,.69,2h2.19c0-.78-0.06-1.52-0.16-2.25A1.7,1.7,0,0,0,470.14,313.86Z" transform="translate(-325.03 -238.99)"/><path class="cls-10" d="M411.53,252.77c-0.76-.38-0.76-0.21-0.76-0.21l-0.29.41-2.67,4.7s-1.2,1.82-.79,3.2,2.35,2.29,3.46,2.93a10.51,10.51,0,0,1,2.23,2s0.67-1.17,1.5-2.76a17.22,17.22,0,0,0,1.64-5.72C416.31,254.47,412.29,253.15,411.53,252.77Z" transform="translate(-325.03 -238.99)"/><path class="cls-11" d="M401.6,253.35c-0.76-.38-0.76-0.21-0.76-0.21l-0.29.41-2.67,4.7s-1.2,1.82-.79,3.2,2.35,2.29,3.46,2.94a10.52,10.52,0,0,1,2.23,2s0.67-1.17,1.5-2.76a17.21,17.21,0,0,0,1.64-5.72C406.39,255.09,402.36,253.77,401.6,253.35Z" transform="translate(-325.03 -238.99)"/></svg>