<svg id="Layer_2" data-name="Layer 2" xmlns="http://www.w3.org/2000/svg" viewBox="0 0 29.95 29.98"><defs><style>.cls-1{fill:#1b5e5b;}</style></defs><title>passwordHotelicon</title><path class="cls-1" d="M948.86,617c-0.62.12-1.25,0.19-1.86,0.36a9.69,9.69,0,0,0-6.48,12.75,0.34,0.34,0,0,1-.1.43q-1.68,1.66-3.34,3.33a0.84,0.84,0,0,1-.59.24c-0.83.06-1.67,0.13-2.5,0.24a2.09,2.09,0,0,0-1.93,2c-0.12.86-.16,1.73-0.25,2.59a0.73,0.73,0,0,1-.17.4,17.28,17.28,0,0,1-1.32,1.33,3.57,3.57,0,0,0-.46,4.34,4.37,4.37,0,0,0,2.5,1.88,3.13,3.13,0,0,0,3.11-.72c2.26-2.21,4.48-4.47,6.72-6.7l0.1-.11-1.19-1.17a1,1,0,0,1-.15.26c-2.16,2.16-4.33,4.31-6.47,6.49a2.39,2.39,0,0,1-2.67.47,2.2,2.2,0,0,1-.55-3.38c0.3-.32.62-0.62,0.93-0.93a4.26,4.26,0,0,0,1-1.1,4.73,4.73,0,0,0,.06-1.5,10.22,10.22,0,0,1,.12-1.4,1.4,1.4,0,0,1,1.47-1.39c0.82-.09,1.65-0.09,2.48-0.11a0.8,0.8,0,0,0,.61-0.26c1.14-1.15,2.28-2.31,3.44-3.44a1.48,1.48,0,0,0,.49-1.17c0-.68-0.12-1.36-0.18-2a3.05,3.05,0,0,1-.2-1.54,8.09,8.09,0,0,1,16.09-1.57,7.84,7.84,0,0,1-2.73,7.3,8.06,8.06,0,0,1-3.9,1.7,19.71,19.71,0,0,1-5.36.21l-0.3,0c0.31,0.49.59,0.94,0.88,1.38a0.23,0.23,0,0,0,.16.06,16.15,16.15,0,0,0,6.66-.54,9,9,0,0,0,6.12-7.12c0.08-.35.12-0.71,0.17-1.07V626a2.25,2.25,0,0,1-.05-0.26,9.68,9.68,0,0,0-7-8.35c-0.62-.17-1.26-0.24-1.88-0.36h-1.46Z" transform="translate(-929.33 -617.05)"/><path class="cls-1" d="M949.7,621.54a6,6,0,0,1,5.11,5.2,3.09,3.09,0,0,1-3.15,3.56,5.28,5.28,0,0,1-3.67-1.51,5.5,5.5,0,0,1-2-3.74C946,622.65,947.62,621.26,949.7,621.54Zm3.53,5.13a4.76,4.76,0,0,0-3.44-3.54,1.67,1.67,0,0,0-2.16,2,4.66,4.66,0,0,0,3.8,3.6h0.12A1.63,1.63,0,0,0,953.23,626.67Z" transform="translate(-929.33 -617.05)"/></svg>