<svg id="Layer_1" data-name="Layer 1" xmlns="http://www.w3.org/2000/svg" viewBox="0 0 236 286.72"><defs><style>.cls-1{fill:#5eb65c;}</style></defs><title>personSymbol</title><path class="cls-1" d="M118.12,189.46c-40.38-.07-74.42-34.07-74.48-74.39s34.08-74.6,74.58-74.64,74.69,34.41,74.45,74.74C192.43,155.65,158.44,189.53,118.12,189.46Zm0-138.11C82.55,51.19,54.67,79,54.56,114.66c-0.11,36,27.34,63.67,63.32,63.89s63.86-27.54,63.89-63.63C181.81,79.07,154.24,51.52,118.14,51.35Z" transform="translate(0 -40.43)"/><path class="cls-1" d="M10.91,327.15H0c0.6-5.42,1-10.59,1.77-15.69C5.23,289.11,12.1,268,24.68,249,41.14,224.19,64,209,93.4,203.9c23-4,45.82-3,68,4.94,22.9,8.23,40.16,23.34,52.64,44,13.27,21.91,19.91,46,21.89,71.38,0.07,0.84,0,1.69,0,2.86H225.71c-1.09-7.34-1.85-14.75-3.33-22-4.87-24-13.94-46-31.2-64-15.56-16.18-34.87-24.81-56.93-27.48a123.61,123.61,0,0,0-44.75,2.31C61,222.89,40.8,240.3,27.41,266c-9.54,18.28-14.56,37.87-16.15,58.38C11.18,325.28,11,326.21,10.91,327.15Z" transform="translate(0 -40.43)"/></svg>