<?xml version="1.0" encoding="utf-8"?>
<!-- Generator: Adobe Illustrator 19.2.1, SVG Export Plug-In . SVG Version: 6.00 Build 0)  -->
<svg version="1.1" id="Capa_1" xmlns="http://www.w3.org/2000/svg" xmlns:xlink="http://www.w3.org/1999/xlink" x="0px" y="0px"
	 viewBox="0 0 491.6 491.6" style="enable-background:new 0 0 491.6 491.6;" xml:space="preserve">
<style type="text/css">
	.st0{fill:#5EB65C;}
</style>
<g>
	<g>
		<g>
			<path class="st0" d="M245.8,351.5c-41,0-74.5-33.2-74.5-74.5c0-41,33.2-74.5,74.5-74.5c41,0,74.5,33.2,74.5,74.5
				S286.8,351.5,245.8,351.5z"/>
			<path class="st0" d="M482.6,116.3H87.4V83.1H33.2v33.2H9c-5.1,0-9,3.9-9,9v303.5c0,5.1,3.9,9,9,9h473.6c5.1,0,9-3.9,9-9V125.3
				C491.6,120.2,487.7,116.3,482.6,116.3z M245.8,394c-64.4,0-117-52.7-117-117s52.7-117,117-117s117,52.7,117,117
				S310.2,394,245.8,394z M422.5,200.9c-13.7,0-25-11.3-25-25s11.3-25,25-25s25,11.3,25,25S436.2,200.9,422.5,200.9z"/>
			<polygon class="st0" points="313.3,53.8 178.3,53.8 163.5,96.3 328.1,96.3 			"/>
		</g>
	</g>
</g>
</svg>
