<svg id="Layer_1" data-name="Layer 1" xmlns="http://www.w3.org/2000/svg" viewBox="0 0 236.43 236.27"><defs><style>.cls-1{fill:#5eb65c;}</style></defs><title>roomsize</title><path class="cls-1" d="M118.2,120.77l1.22,1,15,12.34,11.24,9.27c10.64,8.77,21.62,17.84,32.49,26.74,0,9,0,18,0,27.91v45.46H58.3V197c0-8.44,0-17.25.07-26.86,19.92-16.51,40.19-33.2,59.84-49.37m0.2-11.49a6.25,6.25,0,0,0-1,.52q-33.33,27.45-66.62,55a4.5,4.5,0,0,0-1.38,3.08Q49.32,182.42,49.3,197h0v55.49H187.12V198q0-14.8,0-29.6a4.74,4.74,0,0,0-1.92-4.14q-22.6-18.49-45.09-37.11L118.4,109.28h0Z" transform="translate(0 -85.01)"/><path class="cls-1" d="M17.73,291.62H219.35c-3.72-3.72-7.18-7-10.36-10.47-1.07-1.18-2.09-3.07-1.94-4.51a5.41,5.41,0,0,1,2.84-3.85c1.42-.54,4-0.3,5,0.68,6.85,6.47,13.49,13.18,20.07,19.93,2.05,2.1,1.91,4.72-.22,6.89q-9.59,9.76-19.35,19.35c-2.27,2.23-5.13,2.15-7.12.11s-2-4.81.27-7.12c3.41-3.52,6.93-6.92,10.82-10.78H16.64c4.06,3.87,7.65,7,10.89,10.53a7.07,7.07,0,0,1,1.84,4.85c-0.37,3.79-5.15,5.41-8,2.67-6.73-6.46-13.28-13.09-19.81-19.76a4.57,4.57,0,0,1,0-6.89q9.67-9.89,19.56-19.58a4.9,4.9,0,1,1,6.84,7c-3.49,3.53-7.17,6.88-10.77,10.3Z" transform="translate(0 -85.01)"/><path class="cls-1" d="M118.11,96.49L97.9,113.11Q68.24,137.53,38.6,162c-2.19,1.81-4.4,2.71-7,1-2.89-1.94-2.74-5.77.33-8.31q13.61-11.27,27.28-22.48L113.6,87.45c4-3.27,5.27-3.26,9.32.07l80.91,66.63c3,2.48,3.7,4.61,2.32,7.1-1.66,3-5,3.41-8.1.87q-15.81-13-31.57-26l-46-37.91C119.77,97.66,119,97.15,118.11,96.49Z" transform="translate(0 -85.01)"/></svg>