<?xml version="1.0" encoding="utf-8"?>
<!-- Generator: Adobe Illustrator 19.2.1, SVG Export Plug-In . SVG Version: 6.00 Build 0)  -->
<svg version="1.1" id="Layer_1" xmlns="http://www.w3.org/2000/svg" xmlns:xlink="http://www.w3.org/1999/xlink" x="0px" y="0px"
	 viewBox="0 0 1000 1000" style="enable-background:new 0 0 1000 1000;" xml:space="preserve">
<style type="text/css">
	.st0{fill:#5EB65C;}
</style>
<g>
	<g transform="translate(0.000000,511.000000) scale(0.100000,-0.100000)">
		<path class="st0" d="M2282.9,4949.3c-320.7-75.3-610.4-231.8-838.3-455.9c-239.5-233.7-399.9-502.2-488.7-821L911.4,3518
			l-5.8-2109.4l-5.8-2107.4l-336.1-7.7l-336.1-5.8l-56-54.1c-73.4-69.5-90.8-152.6-50.2-235.7c38.6-83.1,129.4-125.6,266.6-125.6
			h108.2V-1344c0-368.9,79.2-736,235.7-1093.3C1012-3078.6,1628.2-3648.5,2269.5-3859c54.1-19.3,100.4-42.5,100.4-52.1
			s-52.2-144.9-115.9-301.3c-63.7-154.5-115.9-311-115.9-345.8c0-44.4,17.4-85,56-127.5c48.3-54.1,69.5-63.7,144.9-63.7
			c65.7,0,98.5,11.6,131.4,44.4c25.1,23.2,106.2,191.3,179.6,370.9l135.2,328.4l2248.5,1.9h2248.5l131.3-324.5
			c77.3-185.4,152.6-343.8,181.6-372.8c69.5-67.6,200.9-67.6,270.4,1.9c85,85,83.1,156.5-17.4,397.9
			c-48.3,117.8-104.3,256.9-125.6,311l-38.6,96.6l119.8,42.5c620.1,226,1172.5,724.4,1464.2,1323.2
			c179.7,370.9,262.7,699.3,282,1126.2l11.6,274.3h90.8c185.4,0,297.5,148.7,226,301.4c-57.9,119.7-81.1,123.6-861.5,123.6h-693.5
			l-7.7,144.9c-5.8,127.5-13.5,150.7-59.9,197l-52.2,54.1l-888.6,5.8c-989,5.8-981.3,5.8-1035.4-121.7
			c-15.5-36.7-27.1-114-27.1-173.9v-106.2H3789.6H1326.7v2092c0,2281.3-3.9,2198.2,112,2451.3c156.5,340,448.1,585.3,817.1,685.7
			c146.8,40.6,579.5,46.4,707,9.7l79.2-23.2l-168-170c-187.4-189.3-291.7-369-330.3-577.6c-30.9-156.5-13.5-241.5,59.9-303.3
			l59.9-50.2h896.3c623.9,0,911.7,5.8,940.7,21.3c81.1,42.5,110.1,98.5,110.1,220.2c0,411.4-403.7,878.9-848,983.2
			c-65.7,15.5-160.3,54.1-210.6,86.9c-119.8,77.3-284,148.8-453.9,197C2916.5,4972.5,2454.8,4989.9,2282.9,4949.3z M3799.3,4205.6
			c131.3-50.2,243.4-142.9,309.1-260.8c32.8-54.1,57.9-104.3,57.9-112c0-9.7-264.6-15.4-589.2-15.4c-394.1,0-589.2,5.8-589.2,19.3
			c0,44.4,77.3,168.1,148.7,233.7c73.4,71.5,166.1,125.6,256.9,154.5C3488.3,4253.9,3698.8,4244.3,3799.3,4205.6z M7909.9-1121.9
			l5.8-411.4h-620.1h-618.1v415.3v415.3l614.3-3.9l612.3-5.8L7909.9-1121.9z M6252.5-1865.6c0-705.1,1.9-743.7,38.6-803.6
			c21.2-34.8,61.8-71.5,88.8-81.2c29-11.6,403.7-19.3,929.1-19.3h879l65.7,65.7l65.7,65.7v755.3v755.3h415.3H9150v-90.8
			c0-199-40.6-529.3-85-707c-218.3-859.6-801.6-1425.6-1672.8-1622.6c-181.6-42.5-200.9-42.5-2366.3-42.5H2843.1l-202.8,46.4
			c-430.8,94.6-751.4,260.8-1043.1,535.1c-428.8,405.7-660.6,944.6-689.6,1607.1L896-1127.7h2677.3h2679.2V-1865.6z M7904.1-2151.5
			v-202.8l-612.3-5.8l-614.3-3.9v212.5v212.5l614.3-3.9l612.3-5.8V-2151.5z"/>
		<path class="st0" d="M3467,2994.5c-77.3-40.6-92.7-83.1-92.7-247.2c0-125.6,5.8-150.7,50.2-202.8c61.8-73.4,154.5-94.7,237.6-52.2
			c90.8,48.3,123.6,127.5,114,287.8c-5.8,121.7-13.5,139.1-69.5,189.3C3637,3033.1,3552,3040.8,3467,2994.5z"/>
		<path class="st0" d="M2937.8,2986.8c-67.6-27-115.9-106.2-142.9-233.7c-23.2-110.1-23.2-125.6,11.6-189.3
			c23.2-44.4,61.8-77.3,108.2-94.7c63.7-25.1,79.2-23.2,144.9,7.7c88.8,44.4,139.1,137.2,154.5,285.9c9.7,102.4,7.7,110.1-58,175.8
			C3086.5,3008,3024.7,3021.5,2937.8,2986.8z"/>
		<path class="st0" d="M4019.5,2969.4c-88.9-54.1-114-131.4-85-256.9c34.8-148.7,71.5-208.6,144.9-239.5
			c88.9-36.7,173.8-15.4,233.7,56c46.4,54.1,50.2,73.4,40.6,170C4330.5,2952,4185.6,3069.8,4019.5,2969.4z"/>
		<path class="st0" d="M2727.2,2156.1c-21.3-7.7-57.9-34.8-79.2-59.9c-52.1-59.9-129.4-347.7-114-423
			c17.4-83.1,112-154.5,202.8-154.5c115.9,0,168.1,57.9,222.1,251.1c27,90.8,48.3,179.6,48.3,199c0,65.7-59.9,152.6-125.6,179.6
			C2808.3,2179.3,2783.2,2179.3,2727.2,2156.1z"/>
		<path class="st0" d="M3430.3,2119.4c-54.1-56-56-61.8-56-258.8c0-189.3,3.9-208.6,48.3-260.8c61.8-73.4,139.1-92.7,227.9-54.1
			c100.4,40.6,129.4,112,129.4,322.6c0,173.8,0,175.8-65.7,241.5C3625.4,2198.6,3513.4,2202.5,3430.3,2119.4z"/>
		<path class="st0" d="M4270.6,2156.1c-65.7-25.1-123.6-114-123.6-185.4c0-77.3,61.8-312.9,98.5-370.9
			c61.8-96.6,222.1-110.1,309.1-25.1c67.6,69.5,73.4,146.8,19.3,332.3c-50.2,173.8-71.5,208.6-146.8,241.5
			C4351.7,2179.3,4328.5,2179.3,4270.6,2156.1z"/>
		<path class="st0" d="M2451,1203.8c-65.7-36.7-90.8-85-139.1-268.5c-38.6-146.8-40.6-175.8-19.3-229.9
			c29-67.6,121.7-133.3,189.3-133.3c57.9,0,152.6,50.2,175.8,92.7c40.6,79.2,100.4,345.8,88.9,403.7
			C2723.3,1194.2,2564.9,1265.6,2451,1203.8z"/>
		<path class="st0" d="M3430.3,1172.9c-54.1-56-56-61.8-56-256.9c0-224.1,19.3-272.4,125.6-316.8c88.9-36.7,193.2-3.9,241.5,75.3
			c30.9,48.3,38.6,96.6,38.6,231.8c0,241.5-52.2,320.7-208.6,322.6C3503.7,1228.9,3476.7,1217.4,3430.3,1172.9z"/>
		<path class="st0" d="M4490.8,1198c-104.3-56-117.8-152.6-54.1-378.6c50.2-181.6,104.3-237.6,224.1-237.6
			c75.3,0,96.6,9.7,144.9,63.7c67.6,75.3,71.5,129.4,13.5,336.1c-30.9,114-56,164.2-96.6,200.9
			C4656.9,1236.7,4570,1242.5,4490.8,1198z"/>
		<path class="st0" d="M3497.9,274.7c-98.5-42.5-123.6-96.6-123.6-268.5c0-141,3.9-154.5,56-208.6c83.1-83.1,195.1-79.2,284,9.6
			c61.8,61.8,65.7,73.4,65.7,193.2c0,142.9-30.9,224.1-100.4,256.9C3600.3,296,3559.8,299.8,3497.9,274.7z"/>
		<path class="st0" d="M2170.9,243.8c-50.2-40.6-110.1-200.9-110.1-297.5c0-117.8,88.9-204.8,214.4-204.8
			c88.9,0,177.7,98.5,208.6,233.7c30.9,131.3,17.4,197-50.2,260.8C2367.9,296,2242.4,299.8,2170.9,243.8z"/>
		<path class="st0" d="M4728.4,251.5c-25.1-17.4-56-59.9-71.5-94.7c-21.3-54.1-21.3-79.2,1.9-173.9
			c48.3-185.4,100.5-241.5,222.1-241.5c86.9,0,150.7,44.4,187.4,131.3c25.1,59.9,25.1,81.1-5.8,191.2
			c-40.6,150.7-108.2,218.3-218.3,218.3C4805.7,282.4,4753.5,268.9,4728.4,251.5z"/>
	</g>
</g>
</svg>
