<?xml version="1.0" encoding="utf-8"?>
<!-- Generator: Adobe Illustrator 19.2.1, SVG Export Plug-In . SVG Version: 6.00 Build 0)  -->
<svg version="1.1" id="Layer_1" xmlns="http://www.w3.org/2000/svg" xmlns:xlink="http://www.w3.org/1999/xlink" x="0px" y="0px"
	 viewBox="0 0 25.7 20" style="enable-background:new 0 0 25.7 20;" xml:space="preserve">
<style type="text/css">
	.st0{fill:#5EB65C;}
</style>
<path class="st0" d="M11.7,0c5-0.4,10.2,1.5,13.8,5.1c0.5,0.5,0.4,1.3-0.1,1.8c-0.5,0.5-1.4,0.5-1.8,0c-3.1-3-7.4-4.6-11.7-4.2
	c-3.5,0.2-7,1.7-9.5,4.2C2.1,7.1,1.8,7.3,1.5,7.3C0.6,7.4-0.2,6.5,0,5.7C0.1,5.4,0.3,5.2,0.5,5C3.5,2.1,7.5,0.3,11.7,0z"/>
<path class="st0" d="M11.5,5c3.9-0.4,7.9,1,10.6,3.8c0.4,0.5,0.4,1.3-0.1,1.7c-0.4,0.5-1.3,0.6-1.8,0.1c-1.7-1.7-4.1-2.8-6.5-3
	c-3-0.2-6,0.9-8.1,3c-0.5,0.5-1.4,0.5-1.8-0.1C3.2,10,3.2,9.2,3.7,8.7C5.8,6.6,8.6,5.3,11.5,5z"/>
<path class="st0" d="M12.1,9.8c2.4-0.2,4.9,0.7,6.6,2.4c0.5,0.5,0.4,1.3-0.1,1.8c-0.4,0.5-1.3,0.6-1.8,0.1c-1-1-2.3-1.6-3.6-1.7
	c-1.6-0.1-3.1,0.5-4.2,1.6c-0.3,0.3-0.7,0.5-1.1,0.4c-1-0.1-1.6-1.3-1-2.1C8.3,10.9,10.2,10,12.1,9.8z"/>
<path class="st0" d="M12.5,14.4c1.6-0.3,3.2,1,3.2,2.6c0.1,1.6-1.2,3-2.8,3c-1.4,0-2.7-1.1-2.8-2.5C9.9,16,11,14.5,12.5,14.4z"/>
</svg>
