<svg id="Layer_1" data-name="Layer 1" xmlns="http://www.w3.org/2000/svg" viewBox="0 0 19.07 14.81"><defs><style>.cls-1{fill:#5eb65c;}</style></defs><title>signal1</title><path class="cls-1" d="M8.64,0A13.33,13.33,0,0,1,18.83,3.78a0.94,0.94,0,0,1-.06,1.31,0.93,0.93,0,0,1-1.36,0,11.35,11.35,0,0,0-15.69,0,1,1,0,0,1-.63.33A1,1,0,0,1,0,4.22,1,1,0,0,1,.36,3.67,13.35,13.35,0,0,1,8.64,0Z"/><path class="cls-1" d="M8.55,3.68a9.71,9.71,0,0,1,7.83,2.78,0.94,0.94,0,0,1-.07,1.27A0.93,0.93,0,0,1,15,7.82a7.73,7.73,0,0,0-10.87,0,0.93,0.93,0,0,1-1.36-.07,0.93,0.93,0,0,1,0-1.29A9.72,9.72,0,0,1,8.55,3.68Z"/><path class="cls-1" d="M9,7.29A6.08,6.08,0,0,1,13.88,9.1a1,1,0,0,1-1.4,1.35,4.1,4.1,0,0,0-5.82-.06,1,1,0,0,1-.8.33,1,1,0,0,1-.71-1.56A6.06,6.06,0,0,1,9,7.29Z"/><path class="cls-1" d="M9.25,10.65A2.09,2.09,0,1,1,7.46,13,2.1,2.1,0,0,1,9.25,10.65Z"/></svg>