<svg id="Group_674" data-name="Group 674" xmlns="http://www.w3.org/2000/svg" width="18.173" height="18.297" viewBox="0 0 18.173 18.297">
  <path id="Path_659" data-name="Path 659" d="M-188.633,1723.644a4.709,4.709,0,0,1,.843.014c.147.027.268.2.4.31-.129.109-.258.31-.388.311a12.108,12.108,0,0,1-1.783-.107.628.628,0,0,1-.374-.468,8.347,8.347,0,0,1,.071-1.569c.024-.177.242-.327.371-.489a2.283,2.283,0,0,1,.249.513,4.027,4.027,0,0,1,.01.742c.211-.128.365-.207.5-.309a9.147,9.147,0,0,1,14.592,5.912,14.037,14.037,0,0,1-.078,3.127c-.014.208-.285.4-.437.6a1.993,1.993,0,0,1-.182-.729,8.362,8.362,0,0,0-2.487-7.77,8.483,8.483,0,0,0-11.077-.55,2.717,2.717,0,0,1-.366.21Z" transform="translate(192.242 -1720.73)" fill="#ffde0a"/>
  <path id="Path_660" data-name="Path 660" d="M-191.243,1776.9a5.153,5.153,0,0,1-.9-.112,2.379,2.379,0,0,1-.514-.336c.166-.1.329-.268.5-.273a8.268,8.268,0,0,1,1.57.076.681.681,0,0,1,.447.472,8.807,8.807,0,0,1-.084,1.641c-.02.153-.232.281-.356.421a1.479,1.479,0,0,1-.254-.438,5.278,5.278,0,0,1-.011-.841c-.22.147-.377.243-.524.351a9.141,9.141,0,0,1-14.5-5.625,15.284,15.284,0,0,1,.022-3.475c.008-.189.268-.367.411-.551.068.236.23.488.191.705a8.542,8.542,0,0,0,3.787,8.792,8.418,8.418,0,0,0,9.375-.161C-191.859,1777.39-191.642,1777.208-191.243,1776.9Z" transform="translate(205.978 -1761.411)" fill="#ffde0a"/>
  <path id="Path_661" data-name="Path 661" d="M-172.87,1770.141c.616,0,1.234-.025,1.847.015.193.012.376.194.564.3-.175.113-.348.318-.527.324-.978.032-1.957.028-2.935,0a1.616,1.616,0,0,1-.536-.234,1.845,1.845,0,0,1,.325-.5c.754-.585,1.529-1.144,2.3-1.712.531-.394.927-.858.657-1.575a1.253,1.253,0,0,0-1.282-.852,1.363,1.363,0,0,0-1.38,1.127c-.046.169-.276.287-.421.429a1.66,1.66,0,0,1-.178-.62,1.957,1.957,0,0,1,1.785-1.6,2.043,2.043,0,0,1,2.053,1.146,1.9,1.9,0,0,1-.558,2.262c-.291.246-.611.458-.917.686-.282.211-.563.423-.845.635Z" transform="translate(178.973 -1758.86)" fill="#ffde0a"/>
  <path id="Path_662" data-name="Path 662" d="M-137.974,1769.716c-.829,0-1.606.015-2.383-.01a2.407,2.407,0,0,1-.631-.2,2.432,2.432,0,0,1,.276-.609q1.291-1.523,2.623-3.011a2.318,2.318,0,0,1,.566-.347,2.648,2.648,0,0,1,.231.687c.032.64,0,1.283.015,1.925.008.393-.165.882.467,1.01a1.217,1.217,0,0,1,.017.452c-.6.094-.451.55-.5.932-.024.172-.194.324-.3.486-.113-.151-.281-.288-.326-.457A4.512,4.512,0,0,1-137.974,1769.716Zm-.02-.7v-2.237l-1.953,2.237Z" transform="translate(150.298 -1759.118)" fill="#ffde0a"/>
</svg>
