<svg id="Layer_2" data-name="Layer 2" xmlns="http://www.w3.org/2000/svg" viewBox="0 0 30.63 29.69"><defs><style>.cls-1{fill:#1b5e5b;}</style></defs><title>userhotelicon</title><path class="cls-1" d="M960.5,560c-0.09-1.84-.49-4.44-1.3-5.62a0.93,0.93,0,0,0-1.29-.26,0.92,0.92,0,0,0-.24,1.28,8,8,0,0,1,.9,3.64H931.92a13.52,13.52,0,0,1,13.32-12c4.59,0,8.4,1.82,10.73,5.13a0.93,0.93,0,1,0,1.52-1.07,13.83,13.83,0,0,0-9-5.61,7.5,7.5,0,1,0-6.72.13A15.89,15.89,0,0,0,930,559.95L929.92,561h30.63Zm-21.15-21.15a5.64,5.64,0,1,1,5.64,5.64A5.65,5.65,0,0,1,939.35,538.81Z" transform="translate(-929.92 -531.31)"/></svg>