<svg id="Layer_1" data-name="Layer 1" xmlns="http://www.w3.org/2000/svg" viewBox="0 0 40 40"><defs><style>.cls-1{fill:#fff;}.cls-2{fill:#1aaf4b;}</style></defs><title>whatsapp</title><g id="_Group_" data-name="&lt;Group&gt;"><path class="cls-1" d="M426.34,269.54a2,2,0,0,1,0,.26,1.92,1.92,0,0,1-1.13,1.82,3.05,3.05,0,0,1-1.35.36h-0.24a10,10,0,0,1-2.65-.91,9.8,9.8,0,0,1-3.68-3.3,5.49,5.49,0,0,1-1.21-2.89q0-2,1.31-2.39a3.88,3.88,0,0,1,.55,0,1.25,1.25,0,0,1,.47.08,3.7,3.7,0,0,1,.65,1.15,13.88,13.88,0,0,1,.51,1.31,1.13,1.13,0,0,1-.38.71l-0.47.61a3.23,3.23,0,0,0,.69,1.15,6.1,6.1,0,0,0,1.88,1.66,3.43,3.43,0,0,0,1.21.51h0a2,2,0,0,0,.67-0.67,1.67,1.67,0,0,1,.67-0.63,5.44,5.44,0,0,1,1.33.55l0.91,0.44Z" transform="translate(-400.94 -247.64)"/><path class="cls-1" d="M431.5,266.53v1.27a10.23,10.23,0,0,1-5,8.15,10.43,10.43,0,0,1-5.1,1.5h-0.32a10.89,10.89,0,0,1-5-1.31l-2.83.91q-1.76.55-2.83,0.93a0.08,0.08,0,0,1-.06-0.08l-0.08.12s0.56-1.65,1.68-4.87a2,2,0,0,0,.1-0.65,1.73,1.73,0,0,0-.12-0.61,10.61,10.61,0,0,1-1.21-4.81,10.39,10.39,0,0,1,9.75-10.17h1.25a10.36,10.36,0,0,1,6.67,3A10.53,10.53,0,0,1,431.5,266.53Zm-2,3.07a10.52,10.52,0,0,0,.34-2.59,8.06,8.06,0,0,0-2.14-5.4,8.18,8.18,0,0,0-6.59-3.09l-0.71,0a8.64,8.64,0,0,0-8,8.47,8,8,0,0,0,.06,1,8.91,8.91,0,0,0,1,3.34q0.57,0.91.59,0.91l-0.32.81q-0.71,2.14-.77,2.35l3.32-1.05a9.74,9.74,0,0,0,3.8,1.4,7.22,7.22,0,0,0,.93.06,8.46,8.46,0,0,0,3.52-.75A8.54,8.54,0,0,0,429.54,269.6Z" transform="translate(-400.94 -247.64)"/><path class="cls-2" d="M439.44,260a20.26,20.26,0,1,1-4.36-6.49A19.8,19.8,0,0,1,439.44,260Zm-7.94,7.81v-1.27a10.53,10.53,0,0,0-3.05-6.65,10.36,10.36,0,0,0-6.67-3h-1.25a10.39,10.39,0,0,0-9.75,10.17,10.61,10.61,0,0,0,1.21,4.81,1.73,1.73,0,0,1,.12.61,2,2,0,0,1-.1.65q-1.68,4.83-1.68,4.87l0.08-.12a0.08,0.08,0,0,0,.06.08q1.07-.38,2.83-0.93l2.83-.91a10.89,10.89,0,0,0,5,1.31h0.32a10.43,10.43,0,0,0,5.1-1.5A10.23,10.23,0,0,0,431.5,267.8Z" transform="translate(-400.94 -247.64)"/><path class="cls-2" d="M429.88,267a10.52,10.52,0,0,1-.34,2.59,8.54,8.54,0,0,1-5,5.46,8.46,8.46,0,0,1-3.52.75,7.22,7.22,0,0,1-.93-0.06,9.74,9.74,0,0,1-3.8-1.4L413,275.41q0.06-.2.77-2.35l0.32-.81s-0.21-.3-0.59-0.91a8.91,8.91,0,0,1-1-3.34,8,8,0,0,1-.06-1,8.64,8.64,0,0,1,8-8.47l0.71,0a8.18,8.18,0,0,1,6.59,3.09A8.06,8.06,0,0,1,429.88,267Zm-3.52,2.79a2,2,0,0,0,0-.26l-0.22-.2-0.91-.44a5.44,5.44,0,0,0-1.33-.55,1.67,1.67,0,0,0-.67.63,2,2,0,0,1-.67.67h0a3.43,3.43,0,0,1-1.21-.51,6.1,6.1,0,0,1-1.88-1.66,3.23,3.23,0,0,1-.69-1.15l0.47-.61a1.13,1.13,0,0,0,.38-0.71,13.88,13.88,0,0,0-.51-1.31,3.7,3.7,0,0,0-.65-1.15,1.25,1.25,0,0,0-.47-0.08,3.88,3.88,0,0,0-.55,0q-1.31.36-1.31,2.39a5.49,5.49,0,0,0,1.21,2.89,9.8,9.8,0,0,0,3.68,3.3,10,10,0,0,0,2.65.91h0.24a3.05,3.05,0,0,0,1.35-.36A1.92,1.92,0,0,0,426.36,269.8Z" transform="translate(-400.94 -247.64)"/></g></svg>