<svg xmlns="http://www.w3.org/2000/svg" width="790.099" height="1377.189" viewBox="0 0 790.099 1377.189">
  <g id="Group_2380" data-name="Group 2380" transform="translate(-0.001)">
    <path id="Path_1010" data-name="Path 1010" d="M-5019.606,5020.038c0,74.451-9.421,140.789,3.57,202.385,7.777,37,45.217,74.064,78.642,98.085,80.511,57.781,99.25,125.479,58.19,214.529-15.078,32.629-21.616,69.078-33.283,103.384-27.137,79.7-52.835,89.638-138.525,49.089-5.4,26.3-3.451,56.224-17.2,74.234-17.692,23.248-49.69,52.642-72.3,50.146-20.519-2.3-39.525-42.26-53.472-68.595-5.936-11.188,1.1-30.564,5.061-45.466,34.163-128.5,16.346-249.614-17.943-378.788-29.645-111.5-14.9-236.68-8.113-355.158,3.32-57.554,51.368-89.739,113.089-76.48,88.75,19.086,156.981-4.14,205.324-83.645,14.584-24,32.931-50.976,56.457-62.784,23.509-11.786,64.956-18.1,81.5-5.105,17.022,13.36,28.1,65.82,16.545,78.937C-4817.268,4900.269-4856.9,5034.428-5019.606,5020.038Z" transform="translate(5224.69 -4434.85)" fill="#5eb65c"/>
    <path id="Path_1011" data-name="Path 1011" d="M-5101.681,4715.5c68.936.052,121.93,54.263,120.8,123.6-1.1,69.271-56.582,122.829-124.722,120.5-65.332-2.246-116.217-54.62-117.3-120.634C-5224.015,4770.17-5170.281,4715.441-5101.681,4715.5Z" transform="translate(5238.87 -4540.093)" fill="#5eb65c"/>
    <path id="Path_1012" data-name="Path 1012" d="M-5048.18,4920.615c-61.618.092-115.033-53.432-114.01-114.288,1.006-60.5,56.087-112.174,117.507-110.264,58.4,1.836,108.99,52.323,110.139,109.928C-4933.3,4866.917-4986.441,4920.508-5048.18,4920.615Z" transform="translate(5724.623 -4696.012)" fill="#5eb65c"/>
  </g>
</svg>
