<svg xmlns="http://www.w3.org/2000/svg" width="989.363" height="1067.325" viewBox="0 0 989.363 1067.325">
  <g id="Group_2379" data-name="Group 2379" transform="translate(0 0.001)">
    <path id="Path_1008" data-name="Path 1008" d="M-4595.856,4596.427c-58.669,248.75-114.926,487.527-171.365,726.293-4.14,17.46-5.129,38.337-15.63,50.925-11.541,13.787-35.6,30.326-48.395,26.477-15.907-4.826-28-28.159-37.4-45.836-4.207-7.92,1.376-21.649,3.923-32.4q108.861-461.527,218.811-922.742c4.753-19.939,16.294-42.283,31.759-54.654,22.662-18.086,57.7-3.184,63.83,29.285,22.555,119.35,119.56,190.475,180.189,284.955,4.52,7.05,18.2,10.444,28.068,11.434,57.037,5.674,83.747,37.967,70.4,92-6.242,25.277,1.359,35.3,24.3,42.26,16.618,5.043,31.781,14.958,50.891,24.306,6.379-3.85,16.158-14.049,26.67-14.953,12.252-.989,31.765,2.547,36.29,10.678,6.823,12.32,9.672,33.9,3.15,45.176-14.037,24.481-8.506,37.758,15.606,50.413,10.108-8.909,21.07-17.164,30.366-27.08,20.206-21.6,43.056-27.363,71.534-18.2,31.674,10.183,64.075,17.938,96.261,26.426,24.7,6.5,40.975,20.274,34.277,47.513-6.687,27.132-28.763,35.881-51.829,24.886-72.608-34.59-126.648-13.327-176.437,45.376-28.99,34.2-39.633,29.217-85.873-12.446-25.38,8.324-51.243,25.932-66.531,19.3-15.322-6.664-24.782-36.729-28.5-58.015-8.926-50.691-12.917-102.2-19.5-158.3a82.474,82.474,0,0,0-13.787.1c-58.526,5.3-94.6-39.662-77.578-95.431,3.127-10.251,4.878-25.437-.37-32.913-30.155-42.754-62.591-83.871-101.479-122.561q29.218,124.4,58.384,248.783,60.56,257.082,121.01,514.2c11.3,48.116.955,74.258-30.935,81.206-29.127,6.345-50.373-14.089-60.908-58.686q-83.628-354.192-167.249-708.424C-4586.084,4626.491-4589.421,4617.44-4595.856,4596.427Z" transform="translate(4870.166 -4336.704)" fill="#5eb65c"/>
    <path id="Path_1009" data-name="Path 1009" d="M-4687.659,4610.128c-5.657-4.384-20.593-10.394-24.907-20.786-4.418-10.621-3.235-30.082,3.945-37.791a738.244,738.244,0,0,1,85.089-78.374c8.187-6.413,28.387-5.816,37.825.034,9.494,5.815,16.761,22.1,17.255,34.078C-4567.6,4529.866-4657.646,4609.969-4687.659,4610.128Z" transform="translate(5461.935 -3833.23)" fill="#5eb65c"/>
  </g>
</svg>
