<svg id="Group_2372" data-name="Group 2372" xmlns="http://www.w3.org/2000/svg" width="508.107" height="458.621" viewBox="0 0 508.107 458.621">
  <path id="Path_990" data-name="Path 990" d="M-1420.323,190.128c-4.2,3.212-7.394,5.611-10.544,8.058-11.22,8.717-22.388,17.506-33.665,26.149-4.159,3.187-9.817,3.408-13.206.636-3.885-3.176-5.455-7.4-3.878-12.221a11.583,11.583,0,0,1,3.752-5.168q32.808-25.6,65.781-50.981c6.906-5.34,13.579-4.094,18.29,3.567q19,30.889,37.894,61.845c1.76,2.885,3.581,5.739,5.266,8.669,3.237,5.625,2.01,12.6-2.625,15.373-4.771,2.85-11.761,1.173-15.192-4.112-4.417-6.8-8.452-13.853-12.651-20.8-5.5-9.093-11-18.185-17.233-28.5-1.153,7.408-2.044,13.58-3.081,19.729-15.726,93.459-90.937,169.485-183.94,185.953-103.278,18.288-202.06-31.561-248.624-125.466-46.978-94.728-19.865-213.871,63.4-279.382,34.905-27.464,74.243-44.471,118.4-48.756,71.79-6.966,134.1,14.592,186.222,64.776,5.245,5.052,5.572,11.051,1.177,15.7-4.509,4.762-10.687,4.695-16.086-.579-23.755-23.21-51.272-40.155-83.01-50.106-103.821-32.549-214.381,18.356-255.7,119.007-44.97,109.574,8.693,231.864,119.314,274.194,100.076,38.3,215.985-8.99,261.2-106.49A213.451,213.451,0,0,0-1420.9,198.18C-1420.607,195.927-1420.566,193.644-1420.323,190.128Z" transform="translate(1856.927 56.548)" fill="#5eb65c"/>
  <path id="Path_991" data-name="Path 991" d="M-1621.3,286.647h-18.2c0-6-.217-12.013.08-18,.2-4.019-.741-5.63-5.2-6.579-31.028-6.61-43.807-23.621-49.666-52.967a9.692,9.692,0,0,1,.148-2.231l32.7-3.209c2.571,13.02,9.491,22.567,21.911,28.932,0-6.5,0-12.345,0-18.192.007-10.491-.137-20.987.111-31.472.076-3.36-1.3-4.333-4.159-5.609-8.736-3.9-18.056-7.259-25.613-12.888-25.215-18.779-27.259-59.418-4.851-81.314,8.226-8.038,18.316-11.857,29.46-13.433,1.144-.161,2.288-.329,3.9-.563V56.7h18.147V69.219c14.666,2.435,27.69,7.084,37.03,18.766,6.075,7.6,9.043,16.428,10.564,26.65l-29.7,2.134c-2.727-8.395-6.263-16.067-15.323-20.308v50.524c6.385,2.278,12.671,4.238,18.733,6.735,25.29,10.412,37.814,25.833,33.03,60.786-3.578,26.129-21.788,43.312-48.255,47.716-3.781.63-5.158,1.763-4.948,5.666C-1621.061,273.939-1621.3,280.022-1621.3,286.647Zm1.221-53.04c14.385-2.384,23.618-13.615,22.681-27-.867-12.389-11.1-22.756-22.681-22.857Zm-18.651-136.942c-10.7,2.055-17.583,11.672-17.146,23.619.357,9.708,8.686,19.763,17.146,20.744Z" transform="translate(1859.426 58.287)" fill="#5eb65c"/>
</svg>
