<svg xmlns="http://www.w3.org/2000/svg" width="518.092" height="570.741" viewBox="0 0 518.092 570.741">
  <g id="Group_2373" data-name="Group 2373" transform="translate(4.996 5)">
    <path id="Path_994" data-name="Path 994" d="M-2129.663,1356.313h-17.52v5.133q0,40.878-.013,81.75c-.02,9.569-6.776,17.148-15.719,17.973-9.036.83-16.82-4.833-18.927-13.925a23.461,23.461,0,0,1-.359-5.309q-.031-39.9-.013-79.806v-5.68h-17.527v5.175q0,40.878-.006,81.752c-.006,7.3-4.409,14.1-10.724,16.5-7.209,2.737-13.731,1.342-19.28-3.965-3.709-3.558-5.049-8.133-5.042-13.218q.05-40.387.02-80.776v-5.552h-17.506v5.405q-.011,40.387-.014,80.776c0,10.565-7.269,18.567-16.933,18.651-10.7.092-18.093-7.388-18.093-18.505q-.05-79.316-.007-158.631c.047-32.588,26.316-62.948,58.6-66.978,11.5-1.437,23.255-.865,34.905-1.154,3.689-.092,7.39-.015,11.6-.015v-5.624q0-145.741.008-291.479c0-10.7,7.435-18.3,17.84-18.235,9.956.062,17.186,7.77,17.186,18.377q.009,145.74.006,291.479v5.152h39.2q-1.63-25.944-3.254-51.646c-12.09-2.279-18.113-8.037-18.419-17.366-.341-10.292,7.276-18.2,17.866-18.213q57.431-.09,114.836-.025h7.142c.326-19.482,8.042-34.551,25.983-42.679,17.973-8.146,34.345-4.217,49.151,8.549,19.7-16.454,42.015-22.923,67.19-15.562s40.816,24.512,48.411,49.294c13.019,1.638,19.394,7.184,19.781,17.15.394,10.122-5.749,16.478-18.413,18.805q-1.5,24.351-3,48.862-2.291,37.846-4.555,75.689-1.641,27.9-3.229,55.806-1.75,29.835-3.547,59.668c-.774,13.1-1.721,26.2-2.214,39.316-.406,10.6-7.57,17.949-18.2,17.949q-112.4.01-224.815.012c-12.945,0-19.84-6.842-19.84-19.62q.01-40.147-.007-80.291v-4.966h-17.5v5.152q0,40.872-.033,81.747c-.014,9.748-6.469,16.973-15.68,17.933a17.465,17.465,0,0,1-18.874-13.318,23,23,0,0,1-.439-5.292q-.031-40.388-.021-80.779Zm263.029-192.7c-1.5,50.813-40.514,84.823-82.93,87.345-44.67,2.657-91.427-31.583-93.04-87.263h-33.425c.146,2.1.279,3.87.393,5.64,1.147,18.108,2.4,36.211,3.3,54.333.167,3.38,1.034,5.472,3.742,7.658,16.825,13.557,26.2,31.26,26.416,52.885.4,42.648.107,85.3.107,127.956v13.7h193.67c5.156-87.505,10.278-174.749,15.44-262.254Zm-210.489,157.23c0-12.532.386-24.534-.08-36.5-.714-18.246-15.893-33.16-34.113-33.29q-53.259-.382-106.512,0c-16.993.116-31.025,11.972-33.492,28.732-1.34,9.058-.74,18.4-.94,27.62-.094,4.463-.013,8.932-.013,13.44Zm174.977-157.185h-104.605a52.041,52.041,0,0,0,52.206,52.226C-1924.108,1216.059-1901.559,1190.079-1902.146,1163.655Zm5.135-35.646h60.082c-7.383-11.443-17.42-17.094-30.258-17.1C-1879.938,1110.9-1889.5,1117.086-1897.011,1128.008Zm-40.262.165c1.075-4.808-.506-8.575-4.4-10.089a12.455,12.455,0,0,0-8.963.415c-3.574,1.724-4.415,5.552-3.488,9.673Z" transform="translate(2287.371 -900.577)" fill="none" stroke="#5eb65c" stroke-width="10"/>
    <path id="Path_995" data-name="Path 995" d="M-2030.972,968.086a17.386,17.386,0,0,1,17.182,17.36,17.594,17.594,0,0,1-17.936,17.678,17.421,17.421,0,0,1-17.114-17.935C-2048.759,975.444-2041,968.013-2030.972,968.086Z" transform="translate(2358.379 -880.482)" fill="none" stroke="#5eb65c" stroke-width="10"/>
    <path id="Path_996" data-name="Path 996" d="M-1991.014,995.067a17.586,17.586,0,0,1,17.69,17.423,17.535,17.535,0,0,1-17.9,17.668,17.407,17.407,0,0,1-17.109-17.4A17.428,17.428,0,0,1-1991.014,995.067Z" transform="translate(2370.435 -872.45)" fill="none" stroke="#5eb65c" stroke-width="10"/>
  </g>
</svg>
