<svg id="Group_2371" data-name="Group 2371" xmlns="http://www.w3.org/2000/svg" width="459.141" height="491.859" viewBox="0 0 459.141 491.859">
  <path id="Path_954" data-name="Path 954" d="M-2299.558,3085.813h6.2c.414.154.874.32,1.354.493,0,4.8-.054,9.63.006,14.432a10.236,10.236,0,0,0,7.776,9.924c6.809,1.627,12.8-2.862,13-9.891.14-4.881.027-9.757.027-14.958h36.567v-.047q139.031.021,278.075.027a25.067,25.067,0,0,0,3.247-.041c2.5-.326,3.541.46,3.369,3.2-.24,3.828-.148,7.689-.035,11.511.121,4.4,2.029,7.8,6.169,9.624,7.417,3.241,14.753-1.947,14.759-10.511q.07-45.976.027-91.953,0-169.111-.027-338.249v-4.035c3.069,0,5.709.066,8.336-.014a10.162,10.162,0,0,0,9.991-9.4c.773-8.5,3.214-10.984,11.558-11.924a9.8,9.8,0,0,0,8.809-8.883,47.171,47.171,0,0,0,.054-5.328c-.121-6.442-4.109-10.4-10.611-10.465-5.022-.045-10.05.014-15.072.014q-209.637-.021-419.266-.139c-10.35-.014-14.778,4.148-14.071,14.638.373,5.775,4.021,9.829,9.763,10.237,6.836.48,10.49,4.248,10.871,11.157.333,6.109,4.354,10.01,10.438,10.09,2.474.047,4.954.014,7.909.014v22.841a5.992,5.992,0,0,0,0,1.467v19.521h.026c-.56,49.972-.339,234.852.267,323.117v53.527h8.917m160.893-65.631a10.689,10.689,0,0,1-10.857,8.99q-59.732.059-119.458,0c-6.7,0-11.156-4.575-11.17-11.484q-.081-32.5-.027-65.051h-.006q0-31.032.006-62.076a30.7,30.7,0,0,1,.38-6.182c1.054-5.014,5.549-8.076,11.55-8.076q56.761-.02,113.556-.013c1.767,0,3.542-.033,5.315.013,6.222.16,10.51,4.294,10.877,10.537.087,1.38.027,2.767.027,4.134q0,62.533-.013,125.079A23.632,23.632,0,0,1-2140.233,3020.182Zm.126-183.959a18.626,18.626,0,0,1-1.695,7.923c-1.854,3.707-5.428,5.268-9.589,5.268q-59.572,0-119.157-.027c-6.749,0-11.184-4.708-11.2-11.79q-.029-32.392-.006-64.757,0-30.171,0-60.316c0-2.074.006-4.148.133-6.2a10.433,10.433,0,0,1,9.437-9.73,31.5,31.5,0,0,1,3.548-.1c38.54,0,77.074.146,115.615-.113,9.056-.041,13.1,5.742,13.064,13.017C-2140.134,2751.671-2140.021,2793.96-2140.107,2836.222Zm28.637-148.888c-.014-1.94.38-2.741,2.575-2.741q78.458.1,156.9.068c.581,0,1.147.059,1.834.093v40.141c-1.507.068-2.854.193-4.214.193q-76.688,0-153.382.06c-2.741,0-3.789-.574-3.755-3.521C-2111.357,2710.189-2111.4,2698.772-2111.47,2687.334Zm161.332,377.344H-2111.21c-.08-1.527-.213-3.161-.213-4.782q-.021-40.034-.014-80.035h.408v-119.87h-.408v-21.474q-.009-44.327-.006-88.707c0-1.247.152-2.5.253-3.828h27.4c.066,1.153.187,2.187.187,3.221.027,6.016-.02,12.031.027,18.04.025,6.776,4.327,11.5,10.436,11.531s10.484-4.708,10.5-11.4c.025-6.21.08-12.425-.027-18.627-.047-2.121.466-3,2.768-2.934,6.089.14,12.184.047,18.566.047.087,1.18.187,2.121.187,3.061.027,6.3-.013,12.619.04,18.92.027,6.263,4.415,10.838,10.391,10.937,5.843.074,10.418-4.542,10.5-10.844.094-6.4.113-12.8,0-19.221-.041-2.087.433-2.981,2.747-2.921,6.095.16,12.2.066,18.767.066v6.656c.013,5.208-.047,10.436.033,15.659.094,6.062,4.643,10.637,10.364,10.6a10.255,10.255,0,0,0,10.371-10.57q.129-9.914-.006-19.814c-.027-1.927.633-2.56,2.574-2.56,7.782.073,15.565.026,23.349.026a13.749,13.749,0,0,1,1.887.26Z" transform="translate(2349.389 -2619.203)" fill="#5eb65c"/>
  <path id="Path_955" data-name="Path 955" d="M-2099.9,3096.283v-5.568h-98.429c-.086.815-.187,1.4-.187,1.982q-.039,52.489-.08,104.939c-.006,2.314.874,2.76,2.968,2.76q46.407-.1,92.814-.012c2.335.012,2.995-.628,2.969-3Q-2099.961,3146.831-2099.9,3096.283Zm-28.844,84.431a10.822,10.822,0,0,1-10.764-10.657,10.859,10.859,0,0,1,10.551-10.9,11.013,11.013,0,0,1,10.937,10.575A10.813,10.813,0,0,1-2128.748,3180.714Z" transform="translate(2287.781 -2811.855)" fill="#5eb65c"/>
</svg>
