<svg id="Group_2375" data-name="Group 2375" xmlns="http://www.w3.org/2000/svg" width="650.834" height="385.507" viewBox="0 0 650.834 385.507">
  <path id="Path_992" data-name="Path 992" d="M-1955.255,635.6q153.2,0,306.4,0c16.866,0,18.567,1.715,18.587,18.982q.061,50.518,0,101.037c-.013,17.927-1.68,19.64-19.167,19.644-57.474.023-114.948.223-172.423-.2-9.677-.072-12.391,2.714-12.344,12.384.394,72.116.234,144.238.207,216.352,0,15.316-1.854,17.268-16.819,17.278q-104.888.048-209.769-.01c-15.319-.006-16.879-1.6-16.887-17.115-.033-71.75-.219-143.5.181-215.248.059-10.439-2.721-13.76-13.459-13.668-57.833.5-115.668.25-173.516.209-14.639-.01-16.753-2.089-16.767-16.284q-.079-53.815,0-107.627c.027-13.605,2.181-15.724,16.06-15.726Q-2110.1,635.573-1955.255,635.6Zm-.96,19.069c-97.736,0-195.471.12-293.22-.189-9.423-.03-12.871,2.289-12.625,12.213.634,25.609.714,51.259-.026,76.863-.3,10.636,3.715,12.725,13.337,12.64,47.224-.412,94.462-.193,141.686-.178,30.771.008,30.511.03,29.73-31.136-.2-7.915-3.208-9.885-10.5-9.766-21.234.34-42.461.14-63.7.105-6.957-.012-14.133.863-20.768-.647-3.535-.805-8.417-5.789-8.477-8.963-.053-3.2,4.588-7.416,8.157-9.45,2.813-1.607,7.143-.705,10.8-.707q70.276-.042,140.564-.022,137.83,0,275.661.04c7.1,0,15.165.043,15.2,9.887.033,9.885-7.949,9.842-15.112,9.855q-29.66.063-59.3.015c-29.477,0-29.151,0-29.371,29.054-.067,8.975,2.427,11.973,11.684,11.909q80.72-.583,161.439-.018c8.563.055,11.55-2.534,11.411-11.167-.407-25.616-.561-51.257.073-76.866.267-10.329-2.554-13.76-13.405-13.713C-1760.717,654.837-1858.459,654.664-1956.215,654.667Zm80.255,61.8v13.918q0,85.616-.026,171.236c-.014,14.217-6.536,22.613-20.021,25.616-7.209,1.607-11.491,5.3-12.6,13.052-1.767,12.354-10.718,19.8-23.1,19.882-15.005.095-30,.052-45,.025-16.313-.03-22.2-5.422-26.984-21.144-1.393-4.587-6.629-9.792-11.218-11.289-14.451-4.718-20.193-11.192-20.193-26.553q-.031-86.167-.021-172.333V716.133h-22.534c-.267,3.348-.634,5.837-.64,8.333-.027,88.911.113,177.823-.228,266.729-.033,9.335,3.689,10.816,11.684,10.786,60.01-.222,120.018-.42,180.019.154,11.325.106,14.033-3.3,13.972-14.237-.427-85.616-.227-171.236-.234-256.85-.006-16.815-.02-16.828-17.239-15.684A55.075,55.075,0,0,0-1875.96,716.467Zm-140.03,94.292c0,28.885.092,57.769-.094,86.657-.041,6.275,1.327,10.554,8.315,11.781,13.052,2.3,20.688,10.446,22.9,23.288,1.187,6.907,4.821,8.845,11.337,8.62,10.963-.374,21.96-.5,32.9.037,8.09.4,12.779-1.379,14.406-10.479,2.041-11.306,9.39-19.015,21.061-21.1,7.743-1.382,9.843-5.522,9.81-12.916q-.319-85.561-.026-171.119c.02-7.178-1.767-10.524-9.8-10.437q-50.458.533-100.924.008c-7.669-.074-10.117,2.512-10.024,10.1C-2015.8,753.718-2016,782.239-2015.989,810.759Z" transform="translate(2281.066 -635.595)" fill="#5eb65c"/>
  <path id="Path_993" data-name="Path 993" d="M-2153.342,738.282c.166-25.171,19.367-44.108,44.7-44.086,25.7.023,45.113,19.615,44.849,45.231a44.764,44.764,0,0,1-44.894,44.45C-2134.017,783.807-2153.515,763.891-2153.342,738.282Zm70.466.4c-.094-13.984-12.074-25.638-26.176-25.456a25.861,25.861,0,0,0-25.176,25.241c-.177,14.005,11.628,26.146,25.5,26.251C-2095.194,764.82-2082.782,752.317-2082.876,738.682Z" transform="translate(2433.935 -565.457)" fill="#5eb65c"/>
</svg>
