<svg id="Group_2376" data-name="Group 2376" xmlns="http://www.w3.org/2000/svg" width="524.75" height="571.741" viewBox="0 0 524.75 571.741">
  <path id="Path_985" data-name="Path 985" d="M-2400.1,82.957q0-117.707.02-235.412c.02-25.729,14.412-44.524,37.847-49.345a62.942,62.942,0,0,1,12.592-.872c141.591-.035,283.189.236,424.781-.252,25.45-.088,49.4,19.129,49.371,49.272q-.22,236.853-.107,473.7c0,28.49-20.167,48.479-48.657,48.487-141.984.043-283.963-.267-425.941.279-26.937.1-50.218-20.275-50.044-50.447.473-78.469.166-156.941.166-235.411Zm25.782-167.977V-76.4c0,130.456.2,260.914-.247,391.369-.053,17.832,12.238,28.7,28.344,28.477,49.1-.686,98.223-.248,147.334-.249q137.561,0,275.113-.009c10.771,0,18.214-5.4,21.242-15.814a35.109,35.109,0,0,0,1.14-9.635q.09-198.564.047-397.128c0-1.831-.22-3.662-.347-5.626Zm.333-13.139h472.4c.107-2.4.281-4.452.281-6.51q.039-24.174.014-48.351c-.021-17.267-7.136-24.3-24.557-24.3q-175.272-.005-350.54,0c-24.756,0-49.506-.111-74.254.074-14.985.113-23.562,8.85-23.636,23.62-.08,16.692-.039,33.384-.026,50.076C-2374.306-101.869-2374.106-100.188-2373.986-98.158Z" transform="translate(2400.243 202.925)" fill="#5eb65c"/>
  <path id="Path_986" data-name="Path 986" d="M-2301.825,94.258c.127-83.2,67.591-150.654,150.449-150.44,83.143.215,150.555,67.745,150.348,150.619-.2,82.963-68.025,150.509-150.808,150.2C-2234.667,244.321-2301.952,176.858-2301.825,94.258Zm275.327-.152c-.06-68.841-55.887-124.59-124.919-124.724A124.676,124.676,0,0,0-2276.275,94.006c.027,69.3,56.014,125.321,125.046,125.133C-2082.391,218.953-2026.431,162.856-2026.5,94.106Z" transform="translate(2415.151 225.152)" fill="#5eb65c"/>
  <path id="Path_987" data-name="Path 987" d="M-2007.3-159.724a17,17,0,0,1,17.247,17,17.475,17.475,0,0,1-17.386,17.063,17.17,17.17,0,0,1-16.819-16.916A16.726,16.726,0,0,1-2007.3-159.724Z" transform="translate(2457.194 209.469)" fill="#5eb65c"/>
  <path id="Path_988" data-name="Path 988" d="M-2073.468-142.723a16.67,16.67,0,0,1,17.039-17.027,16.73,16.73,0,0,1,16.91,17.192,16.957,16.957,0,0,1-16.79,16.856A16.912,16.912,0,0,1-2073.468-142.723Z" transform="translate(2449.741 209.465)" fill="#5eb65c"/>
  <path id="Path_989" data-name="Path 989" d="M-2047.687,88.708c.313,59.182-48.472,108.9-107.239,109.276-61.563.4-110.987-47.956-111.207-108.812-.227-60.079,48.765-109.468,108.74-109.63A109.315,109.315,0,0,1-2047.687,88.708Zm-12.486.5a97,97,0,0,0-96.854-97.165c-52.653-.158-96.615,43.682-96.589,96.312a97,97,0,0,0,96.889,97.14C-2103.894,185.523-2060.239,142-2060.173,89.21Z" transform="translate(2420.557 230.563)" fill="#5eb65c"/>
</svg>
