<svg xmlns="http://www.w3.org/2000/svg" width="696.523" height="842.055" viewBox="0 0 696.523 842.055">
  <path id="Path_1051" data-name="Path 1051" d="M516.763,2672.076c-103.577,48.137-198.554,55.717-301.676,44.136,4.313,43.767,7.3,83.286,12.359,122.573,4.941,38.377-10.608,53.814-49.015,53.422-103.687-1.081-207.387.126-311.075-.594-43.348-.286-55.671-17.637-41.537-58.459,29.338-84.757,59.243-169.324,90.479-253.362,9.389-25.281,7.2-44.337-7.911-67.882-87.558-136.421-90.33-282.094-41.6-432.183,1.886-5.834,5.016-11.328,8.231-16.569,1.5-2.455,4.621-3.886,16.043-13,93.116,92.866,187.39,186.876,289.452,288.668,33.564-36.979,65.552-72.4,97.736-107.658,17.1-18.749,37.568-32.395,59.33-10.194,22.363,22.8,5.223,42.272-12.15,59.359-33.01,32.406-66.169,64.7-105.018,102.66C318.136,2478.337,412.706,2570.57,516.763,2672.076ZM163.706,2822.5c-13.2-41.289-14.12-88.993-38.246-109.784-42.806-36.917-99.7-57.508-154.232-86.844q-32.862,94.36-68.473,196.628Z" transform="translate(179.76 -2050.158)" fill="#5eb65c"/>
</svg>
