<svg xmlns="http://www.w3.org/2000/svg" width="1174.189" height="1174.816" viewBox="0 0 1174.189 1174.816">
  <g id="Group_2361" data-name="Group 2361" transform="translate(0 0.002)">
    <path id="Path_949" data-name="Path 949" d="M664.928,2934.066c-3,32.925-14.42,60.663-35.987,84.546-47.781,52.87-46.561,111.9,3.638,162.378q93.093,93.631,186.729,186.731c47.6,47.279,108.16,48.507,157.527,3.832,43.636-39.532,95-46.562,147.549-20.347q71.35,35.635,142.735,71.206c82.835,41.2,99.033,140.762,33.123,206.041-61.186,60.619-131.214,106.5-216.435,125.769-88.008,19.861-172.621,6.079-254.662-27.927-94.369-39.129-175.415-98.753-250.793-166.487-102.137-91.787-195.915-190.963-266.214-310.065-44.72-75.736-75.24-156.6-77.185-245.59-2.434-111.31,42.143-204.389,114.984-285.8,23.79-26.615,48.485-51.113,85.676-58.459,54.774-10.8,109.255,12.767,135.159,62.229,28.043,53.483,54.752,107.708,80.564,162.294C658.551,2899.7,660.542,2917.445,664.928,2934.066Zm-340.1,68.22c.921,68.582,26.929,135.893,64.094,199.562,60.225,103.157,140.283,189.84,227.206,270.575,71.3,66.209,147.339,126.087,237.2,165.7,66.861,29.5,136.06,44.719,209.361,28.924,68.748-14.823,123.949-52.828,172.862-101.379,23.679-23.481,19.607-48.467-10.015-63.309q-69.755-35.032-139.678-69.7c-22.513-11.18-31.522-9.8-49.837,6.944-81.106,74.341-198.958,72.1-277.3-5.335-19.915-19.671-39.665-39.551-59.454-59.329C654.116,3329.756,608.8,3284.72,563.9,3239.3c-77.479-78.363-79.717-195.665-5.607-277.436,16.312-17.954,17.773-28.331,7.03-49.884-1.994-4.045-4.008-8.047-6-12.028-21.178-42.6-42.18-85.264-63.589-127.719-14.791-29.324-40.168-33.092-63.566-9.78-5.945,5.971-11.755,12.048-17.292,18.357C360.807,2842.426,325.193,2911.749,324.83,3002.286Z" transform="translate(-234.859 -2588.578)" fill="#5eb65c"/>
    <path id="Path_950" data-name="Path 950" d="M925.222,3207.267c-16.672.742-24.707-7.686-29.373-22.486-45.116-142.963-130.172-257.807-247.873-349.194A663.666,663.666,0,0,0,439.45,2726.163c-22.862-7.2-26.507-12.726-24.461-36.673.662-7.791,2.109-15.54,3.1-23.312,3.415-26.934,14.848-34.238,41.368-26.212,67.922,20.686,131.885,50.052,191,89.309,157.328,104.555,269.3,244.363,328.33,424.909,2.247,6.882,4.412,14,5.174,21.132,1.636,15.372-6.256,24.688-21.017,27.377C950.3,3204.958,937.4,3205.848,925.222,3207.267Z" transform="translate(190.024 -2636.888)" fill="#5eb65c"/>
    <path id="Path_951" data-name="Path 951" d="M750.819,3099.077c-12.929-.951-20.154-9.294-24.691-23.312-36.765-113.7-108.075-199.813-211.524-258.7-26.482-15.054-55.84-25.282-84.358-36.5-18.008-7.052-24.474-15.329-22.015-33.941,1.1-8.32,2.117-16.685,3.062-25,2.962-26.064,14.92-34.133,40.087-26.954,76.685,21.978,143.959,60.916,202.936,114.125,75.587,68.264,130.268,150.057,158.127,248.725,6.27,22.191-.654,32.777-23.042,36.928-4.391.825-8.851,1.4-13.292,1.9C768.316,3097.235,760.525,3098.019,750.819,3099.077Z" transform="translate(174.014 -2506.144)" fill="#5eb65c"/>
    <path id="Path_952" data-name="Path 952" d="M583.082,2987.4c-16.814,2.223-26.469-5.7-31.292-21.238-20.459-65.85-64.354-108.408-129.423-129.9-18.2-5.971-22.907-13.551-20.7-32.481,1.165-9.972,2.115-20.03,3.851-29.9,3.917-22.295,14.327-29.155,36.7-23.163,74.642,19.966,130.741,64.79,168.851,131.19,12.339,21.47,19.972,45.968,27.618,69.768,5.294,16.494-3.853,28.541-20.662,31.314C606.442,2984.854,594.733,2985.955,583.082,2987.4Z" transform="translate(158.478 -2372.542)" fill="#5eb65c"/>
  </g>
</svg>
